<?xml version="1.0" encoding="utf-8"?>
<!-- Generator: Adobe Illustrator 18.1.1, SVG Export Plug-In . SVG Version: 6.00 Build 0)  -->
<svg version="1.1" id="Layer_1" xmlns="http://www.w3.org/2000/svg" xmlns:xlink="http://www.w3.org/1999/xlink" x="0px" y="0px"
	 viewBox="0 0 107 116" enable-background="new 0 0 107 116" xml:space="preserve">
<g>
	<g>
		<path fill="#311C13" d="M67.3,78.7c-7.9,4.9-12.9,12.6-13.9,21.1c-1.2-8.2-6.1-16.3-13.8-21.1c-8.8-5.4-19.3-5.8-28-1.9
			c7.8,1.2,16,4.1,23.6,8.8c7.6,4.7,13.8,11.8,18.3,18.3h0c4.5-6.5,10.6-13.5,18.3-18.3c7.6-4.7,15.8-7.7,23.6-8.8
			C86.6,72.9,76,73.3,67.3,78.7z M92.5,49.6c-4.7,3.1-8,7.2-9.6,11.5c4.6,0.3,9.8-1.1,14.5-4.1c4.7-3.1,8-7.2,9.6-11.5
			C102.4,45.2,97.2,46.6,92.5,49.6z M24.4,61.1c-1.5-4.3-4.8-8.5-9.6-11.5c-4.7-3.1-9.9-4.4-14.5-4.1C1.9,49.8,5.2,54,9.9,57
			C14.6,60.1,19.8,61.4,24.4,61.1z M34.5,48.9v17.8h38.3V48.9c5.8-1.3,10.2-6.5,10.2-12.6c0-7.1-5.9-12.9-13.1-12.9
			c-1.7,0-3.4,0.3-4.9,1c-2.3-3.8-6.5-6.3-11.2-6.3c-4.8,0-9,2.5-11.3,6.3c-1.5-0.6-3.2-1-5-1c-7.2,0-13.1,5.8-13.1,12.9
			C24.3,42.4,28.6,47.6,34.5,48.9z M65.1,51.9h2.2v11.7h-2.2V51.9z M56.7,51.9h2.2v11.7h-2.2V51.9z M48.3,51.9h2.2v11.7h-2.2V51.9z
			 M39.9,51.9h2.2v11.7h-2.2V51.9z M56.4,13.1h-5.9v2.7h5.9V13.1z"/>
	</g>
</g>
</svg>
