<?xml version="1.0" encoding="utf-8"?>
<!-- Generator: Adobe Illustrator 18.1.1, SVG Export Plug-In . SVG Version: 6.00 Build 0)  -->
<svg version="1.1" id="Layer_1" xmlns="http://www.w3.org/2000/svg" xmlns:xlink="http://www.w3.org/1999/xlink" x="0px" y="0px"
	 viewBox="0 0 107 116" enable-background="new 0 0 107 116" xml:space="preserve">
<g>
	<g>
		<path fill="#311C13" d="M67.1,78.7c-7.9,4.9-12.9,12.6-13.9,21.1c-1.2-8.2-6.1-16.3-13.8-21.1c-8.8-5.4-19.3-5.8-28-1.9
			c7.8,1.2,16,4.1,23.6,8.8c7.6,4.7,13.8,11.8,18.3,18.3h0c4.5-6.5,10.6-13.5,18.3-18.3c7.6-4.7,15.8-7.7,23.6-8.8
			C86.4,72.9,75.9,73.3,67.1,78.7z M92.3,49.6c-4.7,3.1-8,7.2-9.6,11.5c4.6,0.3,9.8-1.1,14.5-4.1c4.7-3.1,8-7.2,9.6-11.5
			C102.2,45.2,97,46.6,92.3,49.6z M24.3,61.1c-1.5-4.3-4.8-8.5-9.6-11.5c-4.7-3.1-9.9-4.4-14.5-4.1C1.7,49.8,5,54,9.8,57
			C14.5,60.1,19.7,61.4,24.3,61.1z"/>
	</g>
</g>
<path fill="#311C13" d="M72.1,18.1H38.3c-2.9,0-5.3,2.4-5.3,5.3v37.5c0,2.9,2.4,5.3,5.3,5.3h10.9v6.7l4.2-1.5l4.2,1.5v-6.7h14.6
	V18.1z M69.6,63.6h-12v-2.7h-8.4v2.7H38.3c-1.5,0-2.8-1.2-2.8-2.7c0-1.5,1.2-2.7,2.8-2.7h31.3V63.6z"/>
</svg>
