<?xml version="1.0" encoding="utf-8"?>
<!-- Generator: Adobe Illustrator 18.1.1, SVG Export Plug-In . SVG Version: 6.00 Build 0)  -->
<svg version="1.1" id="Layer_1" xmlns="http://www.w3.org/2000/svg" xmlns:xlink="http://www.w3.org/1999/xlink" x="0px" y="0px"
	 viewBox="0 0 26 20" enable-background="new 0 0 26 20" xml:space="preserve">
<g>
	<g>
		<path fill="#DAA04D" d="M15.1,6.8c0-2.7-0.8-5.1-2.1-6.8c-1.3,1.7-2.1,4.1-2.1,6.8c0,2.7,0.8,5.1,2.1,6.8
			C14.3,11.8,15.1,9.4,15.1,6.8z M17.3,12c-2.5,1.6-4,4-4.3,6.7c-0.4-2.6-1.9-5.2-4.3-6.7c-2.7-1.7-6-1.8-8.7-0.6
			c2.4,0.4,5,1.3,7.3,2.8C9.7,15.7,11.6,18,13,20h0c1.4-2.1,3.3-4.3,5.7-5.8c2.4-1.5,4.9-2.4,7.3-2.8C23.3,10.1,20,10.3,17.3,12z"/>
	</g>
</g>
</svg>
