<?xml version="1.0" encoding="utf-8"?>
<!-- Generator: Adobe Illustrator 18.1.1, SVG Export Plug-In . SVG Version: 6.00 Build 0)  -->
<svg version="1.1" id="Layer_1" xmlns="http://www.w3.org/2000/svg" xmlns:xlink="http://www.w3.org/1999/xlink" x="0px" y="0px"
	 viewBox="0 0 107 116" enable-background="new 0 0 107 116" xml:space="preserve">
<g>
	<g>
		<path fill="#311C13" d="M63.6,97.4c-5.7,3.6-9.3,9.3-10.1,15.6c-0.8-6.1-4.4-12-10-15.6c-6.4-4-14-4.3-20.3-1.4
			c5.7,0.9,11.6,3,17.1,6.5c5.5,3.5,10,8.7,13.3,13.5h0c3.2-4.8,7.7-10,13.3-13.5c5.5-3.5,11.4-5.7,17.1-6.5
			C77.6,93.1,69.9,93.4,63.6,97.4z M57.1,11.6c0-4.5-1.4-8.6-3.6-11.6C51.3,2.9,50,7,50,11.6c0,4.5,1.4,8.6,3.6,11.6
			C55.8,20.2,57.1,16.1,57.1,11.6z M22.6,42.1c4.2-1.4,6.8-4.5,6.8-8.3c0-3.1-1.9-5-3.5-5.7c-1.5-0.7-3-0.4-4.1,0.6
			c-1.3,1.2-1.7,2.6-1.2,3.8c0.5,1.3,1.9,2.1,3.4,2.1H25l0,0l0.1,0c-0.4,3.7-2.6,5.8-4.9,6.2c-4.1,0.8-8,0.1-11-3.3
			c0.1,0.5,0.3,1,0.4,1.5C12.5,42.9,18.3,43.5,22.6,42.1z M85.4,42.1c4.3,1.4,10.1,0.8,13-3.1c0.1-0.5,0.3-1,0.4-1.5
			c-2.9,3.4-7.1,4.8-11,3.3c-2.5-0.9-5.1-3.9-4.9-6.2l0.1,0l0,0H84c1.6,0,2.9-0.8,3.4-2.1c0.5-1.3,0-2.7-1.2-3.8
			c-1.1-1-2.6-1.2-4.1-0.6c-1.6,0.7-3.5,2.6-3.5,5.7C78.6,37.6,81.1,40.7,85.4,42.1z M78.1,77.1c-4,2.1-7.7,6.6-7,11.4
			c0.3,0.4,0.5,0.9,0.7,1.3c-0.3-4.5,1.6-8.4,5.4-10.1c2.4-1.1,6.4-0.9,7.8,0.9l0,0l0.1,0l-0.8,0.8c-1.1,1.1-1.5,2.7-0.9,3.9
			c0.5,1.2,1.8,1.9,3.6,1.8c1.5-0.1,2.7-1,3.3-2.5c0.6-1.6,0.6-4.3-1.6-6.5C86.1,75.5,82.1,75.1,78.1,77.1z M20.7,80.7L20.7,80.7
			L20.7,80.7c1.5-1.9,5.4-2.1,7.8-1c3.8,1.7,5.8,5.6,5.4,10.1c0.3-0.4,0.5-0.9,0.7-1.3c0.7-4.8-2.9-9.4-7-11.4
			c-4-2-7.9-1.6-10.6,1.1c-2.2,2.2-2.2,4.9-1.6,6.5c0.6,1.5,1.8,2.5,3.3,2.5c1.7,0.1,3-0.6,3.6-1.8c0.6-1.3,0.2-2.8-0.9-3.9
			L20.7,80.7z M86.7,53.9c-6.5,4.7-10.9,11-12.8,17.2c6.5,0.1,13.8-2.2,20.3-6.9c6.5-4.7,10.9-11,12.8-17.2
			C100.5,46.9,93.2,49.1,86.7,53.9z M20.3,53.9C13.8,49.1,6.5,46.9,0,47c1.9,6.3,6.3,12.5,12.8,17.2c6.5,4.7,13.8,7,20.3,6.9
			C31.2,64.8,26.8,58.6,20.3,53.9z M53.6,34.1L53.6,34.1c2.4-3.5,5.7-7.3,9.7-9.9c4.1-2.6,8.4-4.2,12.6-4.8
			c-4.7-2.1-10.3-1.9-14.9,1c-4.2,2.7-6.9,6.8-7.4,11.4c-0.6-4.5-3.2-8.8-7.3-11.4c-4.7-2.9-10.3-3.1-14.9-1
			c4.2,0.6,8.5,2.2,12.6,4.8C47.9,26.8,51.2,30.6,53.6,34.1z"/>
	</g>
</g>
<g>
	<g>
		<path fill="#311C13" d="M64.3,42.2c1.3-2.4,1.7-4.9,1.4-7c-2,0.9-3.9,2.6-5.2,5c-1.3,2.4-1.7,4.9-1.4,7
			C61.1,46.3,63,44.6,64.3,42.2z M71.9,50.4c-2.2,1.5-3.8,3.5-4.5,5.6c2.2,0.1,4.7-0.5,6.9-2c2.2-1.5,3.8-3.5,4.5-5.6
			C76.6,48.2,74.2,48.9,71.9,50.4z M35.2,50.4c-2.2-1.5-4.7-2.1-6.9-2c0.7,2.1,2.3,4.1,4.5,5.6c2.2,1.5,4.7,2.1,6.9,2
			C39,53.9,37.4,51.8,35.2,50.4z M48.4,47.2c0.3-2.2-0.1-4.7-1.4-7c-1.3-2.4-3.2-4.1-5.2-5c-0.3,2.2,0.1,4.7,1.4,7
			C44.6,44.6,46.4,46.3,48.4,47.2z M61.9,58.4c1.8-2.3,2.5-5.2,2.8-6.5c0.1-0.4-0.2-0.7-0.6-0.7c-2.9,0.1-5.2,1.2-6.9,2.2
			c-0.4-3.1-2.3-5.8-3.2-6.9c-0.2-0.3-0.7-0.3-0.9,0c-1.7,2.2-2.5,4.5-2.8,6.5c-1.6-0.9-3.7-1.7-6.3-1.9c-0.4,0-0.7,0.3-0.6,0.7
			c0.2,1.3,0.9,4.2,2.7,6.4c-2.4,0.3-4.6,1.7-6,3.7c-1.5,2.3-1.6,5.4-0.2,7.8l7.4,12.7c1.3,2.3,3.8,3.7,6.4,3.7
			c2.6,0,5.1-1.4,6.4-3.7l7.4-12.7c1.4-2.4,1.3-5.4-0.2-7.8C66.1,60.2,64.1,58.8,61.9,58.4z M45.6,68.1c-0.9,0-1.5-0.7-1.5-1.5
			c0-0.9,0.7-1.5,1.5-1.5h0c0.2,0,0.4,0,0.5,0.1c0.6,0.2,1,0.8,1,1.5C47.1,67.4,46.4,68.1,45.6,68.1z M49.2,75.6
			c-0.9,0-1.5-0.7-1.5-1.5c0-0.9,0.7-1.5,1.5-1.5c0.9,0,1.5,0.7,1.5,1.5C50.8,74.9,50.1,75.6,49.2,75.6z M53.8,66.7
			c0.9,0,1.5,0.7,1.5,1.5c0,0.9-0.7,1.5-1.5,1.5c-0.9,0-1.5-0.7-1.5-1.5C52.3,67.4,53,66.7,53.8,66.7z M53.8,81.5
			c-0.9,0-1.5-0.7-1.5-1.5c0-0.9,0.7-1.5,1.5-1.5c0.9,0,1.5,0.7,1.5,1.5C55.4,80.8,54.7,81.5,53.8,81.5z M58.3,75.6
			c-0.9,0-1.5-0.7-1.5-1.5c0-0.9,0.7-1.5,1.5-1.5c0.9,0,1.5,0.7,1.5,1.5C59.8,74.9,59.1,75.6,58.3,75.6z M61.2,68.1
			c-0.9,0-1.5-0.7-1.5-1.5c0-0.5,0.3-1,0.6-1.3c0.3-0.2,0.6-0.3,0.9-0.3c0.2,0,0.4,0,0.6,0.1c0.6,0.2,0.9,0.8,0.9,1.4
			C62.8,67.4,62.1,68.1,61.2,68.1z"/>
	</g>
</g>
</svg>
