<?xml version="1.0" encoding="UTF-8" standalone="no"?>
<!-- Generator: Adobe Illustrator 18.1.0, SVG Export Plug-In . SVG Version: 6.00 Build 0)  -->
<svg id="Layer_1" style="enable-background:new 0 0 91.5 65.7" xmlns="http://www.w3.org/2000/svg" xml:space="preserve" height="65.7px" viewBox="0 0 91.5 65.7" width="91.5px" version="1.1" y="0px" x="0px" xmlns:xlink="http://www.w3.org/1999/xlink">
<style type="text/css">
	.st0{fill:#FFFFFF;}
</style>
	<path class="st0" d="m28.2 65.7c1.1 0 1.8-0.3 2.4-0.8 0.1-0.1 0.2-0.3 0.2-0.5 0-0.4-0.3-0.7-0.7-0.7-0.2 0-0.3 0.1-0.4 0.2-0.4 0.3-0.8 0.5-1.5 0.5-1.1 0-1.9-1-1.9-2.1s0.8-2.1 1.9-2.1c0.5 0 1 0.2 1.4 0.5 0.1 0.1 0.2 0.1 0.4 0.1 0.4 0 0.7-0.3 0.7-0.7 0-0.3-0.1-0.5-0.3-0.6-0.6-0.4-1.2-0.7-2.2-0.7-2.1 0-3.5 1.6-3.5 3.5 0.1 1.9 1.6 3.4 3.5 3.4"/>
	<path class="st0" d="m32.5 65c0 0.4 0.3 0.7 0.7 0.7 0.3 0 0.6-0.2 0.7-0.5l0.5-1.1h2.9l0.4 1.1c0.1 0.3 0.4 0.5 0.7 0.5 0.4 0 0.7-0.3 0.7-0.7 0-0.1 0-0.2-0.1-0.3l-2.3-5.3c-0.2-0.4-0.4-0.6-0.8-0.6h-0.1c-0.4 0-0.7 0.2-0.9 0.6l-2.3 5.3c-0.1 0.1-0.1 0.2-0.1 0.3m2.3-2.2l0.9-2.2 0.9 2.2h-1.8z"/>
	<path class="st0" d="m43.3 65.7c1.4 0 2.5-0.7 2.5-2.1 0-1.2-0.8-1.7-2.1-2-1.2-0.3-1.4-0.4-1.4-0.9 0-0.3 0.3-0.6 0.9-0.6 0.5 0 0.9 0.2 1.4 0.4 0.1 0.1 0.2 0.1 0.4 0.1 0.4 0 0.7-0.3 0.7-0.7 0-0.3-0.2-0.5-0.3-0.6-0.6-0.4-1.3-0.6-2.1-0.6-1.4 0-2.3 0.8-2.3 2 0 1.3 0.9 1.7 2.2 2 1.1 0.3 1.3 0.5 1.3 0.8 0 0.4-0.4 0.6-1 0.6s-1.2-0.2-1.7-0.6c-0.1-0.1-0.2-0.1-0.4-0.1-0.4 0-0.7 0.3-0.7 0.7 0 0.2 0.1 0.4 0.3 0.6 0.5 0.8 1.4 1 2.3 1"/>
	<path class="st0" d="m47.9 64.9c0 0.4 0.3 0.7 0.7 0.7s0.7-0.3 0.7-0.7v-5.3c0-0.4-0.3-0.7-0.7-0.7s-0.7 0.3-0.7 0.7v5.3z"/>
	<path class="st0" d="m51.8 65c0 0.4 0.3 0.7 0.7 0.7s0.7-0.3 0.7-0.7v-3.6l2.9 3.9c0.2 0.3 0.4 0.4 0.8 0.4s0.7-0.3 0.7-0.7v-5.3c0-0.4-0.3-0.7-0.7-0.7s-0.7 0.3-0.7 0.7v3.4l-2.8-3.7c-0.2-0.3-0.4-0.4-0.8-0.4h-0.2c-0.4 0-0.7 0.3-0.7 0.7v5.3z"/>
	<path class="st0" d="m63.3 65.7c2.1 0 3.6-1.6 3.6-3.5s-1.5-3.4-3.5-3.4c-2.1 0-3.6 1.6-3.6 3.5s1.5 3.4 3.5 3.4m0-1.3c-1.2 0-2-1-2-2.1s0.8-2.1 2-2.1 2 1 2 2.1-0.8 2.1-2 2.1"/>
	<path class="st0" d="m0 53.9c0 0.6 0.4 1 1 1 0.5 0 0.8-0.2 1-0.7l1-2.3h5.9l1 2.3c0.2 0.4 0.5 0.7 1 0.7 0.6 0 1-0.5 1-1 0-0.1 0-0.3-0.1-0.5l-4.5-10c-0.3-0.6-0.7-0.9-1.3-0.9h-0.1c-0.6 0-1 0.3-1.3 0.9l-4.5 10c0 0.2-0.1 0.3-0.1 0.5m3.8-3.9l2.1-4.9 2.2 4.9h-4.3z"/>
	<path class="st0" d="m14.2 53.7c0 0.6 0.5 1.1 1.1 1.1h3.4c3.8 0 6.4-2.6 6.4-6.1 0-3.4-2.6-6-6.4-6h-3.4c-0.6 0-1.1 0.5-1.1 1.1v9.9zm2.1-0.8v-8.2h2.4c2.5 0 4.2 1.7 4.2 4.1s-1.7 4.1-4.2 4.1h-2.4z"/>
	<path class="st0" d="m28.8 54.8h7.1c0.5 0 1-0.4 1-1 0-0.5-0.4-1-1-1h-6.1v-3.3h5.2c0.5 0 1-0.4 1-0.9s-0.4-1-1-1h-5.2v-3.1h6c0.5 0 1-0.4 1-1 0-0.5-0.4-1-1-1h-7c-0.6 0-1.1 0.5-1.1 1.1v10c0 0.7 0.5 1.2 1.1 1.2"/>
	<path class="st0" d="m39.3 53.7c0 0.6 0.5 1.1 1.1 1.1h6.5c0.5 0 1-0.4 1-1 0-0.5-0.4-1-1-1h-5.5v-9.2c0-0.6-0.5-1.1-1.1-1.1s-1.1 0.5-1.1 1.1v10.1z"/>
	<path class="st0" d="m49.2 53.9c0 0.6 0.4 1 1 1 0.5 0 0.8-0.2 1-0.7l1-2.3h5.9l1 2.3c0.2 0.4 0.5 0.7 1 0.7 0.6 0 1-0.5 1-1 0-0.1 0-0.3-0.1-0.5l-4.5-10c-0.2-0.5-0.7-0.9-1.3-0.9h-0.1c-0.6 0-1 0.3-1.3 0.9l-4.5 10c-0.1 0.2-0.1 0.3-0.1 0.5m3.8-3.9l2.1-4.9 2.1 4.9h-4.2z"/>
	<path class="st0" d="m63.5 53.8c0 0.6 0.5 1.1 1.1 1.1s1.1-0.5 1.1-1.1v-10.1c0-0.6-0.5-1.1-1.1-1.1s-1.1 0.5-1.1 1.1v10.1z"/>
	<path class="st0" d="m68.9 53.7c0 0.6 0.5 1.1 1.1 1.1h3.4c3.8 0 6.4-2.6 6.4-6.1 0-3.4-2.6-6-6.4-6h-3.4c-0.6 0-1.1 0.5-1.1 1.1v9.9zm2.1-0.8v-8.2h2.4c2.5 0 4.2 1.7 4.2 4.1s-1.7 4.1-4.2 4.1h-2.4z"/>
	<path class="st0" d="m83.5 54.8h7.1c0.5 0 1-0.4 1-1 0-0.5-0.4-1-1-1h-6.1v-3.3h5.2c0.5 0 1-0.4 1-0.9s-0.4-1-1-1h-5.2v-3.1h6c0.5 0 1-0.4 1-1 0-0.5-0.4-1-1-1h-7c-0.6 0-1.1 0.5-1.1 1.1v10c0 0.7 0.5 1.2 1.1 1.2"/>
<polygon points="46 0 44.4 10.2 46 28.1 47.6 10.2" class="st0"/>
<polygon points="36.7 1.2 37.7 11.5 43.7 28.4 40.8 10.7" class="st0"/>
<polygon points="28 4.6 31.5 14.3 41.5 29.3 34.3 12.8" class="st0"/>
<polygon points="20.4 10.1 26.2 18.6 39.6 30.6 28.6 16.5" class="st0"/>
<polygon points="14.4 17.3 22.2 24.1 38.2 32.4 23.9 21.4" class="st0"/>
<polygon points="10.4 25.8 19.7 30.5 37.2 34.5 20.6 27.4" class="st0"/>
<polygon points="8.7 35 18.8 37.2 36.7 36.8 19 34" class="st0"/>
<polygon points="83.2 35 72.9 34.1 55.2 36.8 73.1 37.2" class="st0"/>
<polygon points="81.5 25.8 71.3 27.4 54.7 34.5 72.3 30.5" class="st0"/>
<polygon points="77.5 17.3 68 21.5 53.7 32.4 69.7 24.2" class="st0"/>
<polygon points="71.5 10.1 63.4 16.5 52.3 30.6 65.7 18.7" class="st0"/>
<polygon points="63.9 4.6 57.6 12.8 50.4 29.3 60.4 14.3" class="st0"/>
<polygon points="55.2 1.2 51.2 10.7 48.2 28.4 54.3 11.5" class="st0"/>
</svg>
