<?xml version="1.0" encoding="utf-8"?>
<!-- Generator: Adobe Illustrator 18.1.1, SVG Export Plug-In . SVG Version: 6.00 Build 0)  -->
<svg version="1.1" id="Layer_1" xmlns="http://www.w3.org/2000/svg" xmlns:xlink="http://www.w3.org/1999/xlink" x="0px" y="0px"
	 viewBox="0 0 35 35.9" enable-background="new 0 0 35 35.9" xml:space="preserve">
<g>
	<path fill="#FFFFFF" d="M21.3,22.2l3.3,8.1c2.1,0.9,4.6,0.9,6.8-0.4c3.5-2.1,4.7-6.6,2.6-10.2c-0.5-0.9-1.2-1.6-1.9-2.2L25.7,18
		L24,18.1C23.8,19.8,22.7,21.3,21.3,22.2L21.3,22.2z M15.3,21.9l-6.5,6.2c-0.1,2.4,0.9,4.8,3,6.4c3.3,2.4,7.9,1.7,10.4-1.6
		c0.3-0.4,0.6-0.9,0.8-1.4l-3.6-8.7c0,0,0,0,0,0C18,23.1,16.5,22.8,15.3,21.9 M12.9,15.6l-7.4-3.8c-2.4,0.6-4.4,2.5-5.2,5
		c-1.2,3.9,1,8.1,5,9.2c0.8,0.2,1.6,0.3,2.3,0.3l6.3-6c-0.6-0.9-0.9-1.9-0.9-3c0-0.5,0.1-1.1,0.2-1.5L12.9,15.6z M20.3,4.3l0.1-0.4
		C19.1,1.6,16.7,0,13.8,0C9.7,0,6.4,3.3,6.4,7.4c0,1,0.2,2,0.6,2.9l5.6,2.9l1.6,0.8c1-1.3,2.6-2.1,4.3-2.1L20.3,4.3z M31.9,15.6
		c1.9-1.9,2.8-4.7,2-7.4c-1.1-4-5.3-6.3-9.3-5.1c-0.8,0.2-1.6,0.6-2.3,1.1l-1.8,7.6l-0.1,0.5c1.7,0.6,3,2.1,3.4,3.8L31.9,15.6z"/>
</g>
</svg>
