<?xml version="1.0" encoding="utf-8"?>
<!-- Generator: Adobe Illustrator 18.1.1, SVG Export Plug-In . SVG Version: 6.00 Build 0)  -->
<svg version="1.1" xmlns="http://www.w3.org/2000/svg" xmlns:xlink="http://www.w3.org/1999/xlink" x="0px" y="0px"
	 viewBox="0 0 247.7 109" enable-background="new 0 0 247.7 109" xml:space="preserve">
<g id="BG" display="none">
</g>
<g id="Working" display="none">
</g>
<g id="NW">
	<g>
		<path fill="#FFFFFF" d="M104.2,33.4c0.2-0.2,0.3-0.3,0.5-0.5c0.1-0.1,0.2-0.1,0.3-0.2c0.1,0,0.1-0.1,0.2-0.1
			c0.3-0.2,0.5-0.3,0.7-0.6c0.3-0.2,0.6-0.5,0.9-0.9c0.3-0.4,0.6-0.7,1-0.9l0.2,0.1c0,0.7-0.3,1.4-0.7,2.2c-0.3,0.8-0.7,1.6-0.7,2.3
			c0,0.1,0,0.3,0,0.4c0,0.1,0,0.3,0,0.4c-0.1,0.5-0.1,1-0.2,1.4c-0.1,0.7-0.2,1.4-0.2,2.1c0,1.3,0.4,2,0.7,2.5
			c0.2,0.3,0.3,0.5,0.4,0.8c0,0,0,0,0,0c0.2,0,0.4,0.2,0.8,0.5c0.1,0.1,0.1,0.1,0.2,0.1l0,0.1c0,0,0,0.1-0.1,0.1
			c0.1,0,0.2,0.2,0.5,0.5c0.2,0.2,0.4,0.4,0.5,0.5c0.6,0.3,1.7,0.5,2.3,0.5c1.6,0,3.1-1.2,4.1-2.2c1.2-1.2,2.3-2.8,2.9-4.4
			c0.1-0.2,0.2-0.3,0.2-0.5c0.2-0.3,0.3-0.6,0.3-1.1l0.2-0.1c0.4,0.2,1.1,0.5,2.3,0.5c3.3,0,6.8-1.7,9.3-3.4
			c-0.3,0.4-0.6,0.8-0.8,1.1c-0.8,1.2-1.3,3.6-1.3,4.8c0,0.8,0,1,0.5,1.7c0.1,0.1,0.1,0.2,0.1,0.3c0,0.1,0,0.2,0.1,0.3
			c0.8,1,1.4,1.1,1.7,1.2c0.1,0,0.1,0,0.2,0.1c0.3,0.1,0.6,0.2,1,0.2c0.8,0,1.6-0.3,2.4-0.6c0.5-0.2,1-0.4,1.5-0.5
			c0.2-0.4,0.6-0.8,1-0.8h0.2c0,0,0,0,0,0c0-0.1,0-0.1,0-0.2c0-0.2,0.3-0.4,0.5-0.5c0.1-0.1,0.2-0.1,0.2-0.2l0.1,0
			c0.4-0.1,1-1,1.6-1.8c0.4-0.6,0.8-1.1,1.2-1.5c0-0.1,0.1-0.2,0.1-0.3c0-0.2,0-0.4,0.3-0.6l0.1,0c1-0.1,1.4-0.2,2-0.4
			c0.3-0.1,0.7-0.1,1.2-0.2c0.2-0.2,0.6-0.2,1.1-0.3c0.3,0,0.6-0.1,0.8-0.2l0,0h0.2c0.3,0,0.4-0.1,0.6-0.3c0.2-0.2,0.5-0.4,0.9-0.4
			c0.1,0,0.1,0,0.1,0c0.1,0,0.2,0.1,0.5,0.1c0.1-0.1,0.2-0.2,0.3-0.2c0.2-0.1,0.2-0.1,0.2-0.2c0,0,0-0.1,0-0.1l0.1-0.1h0.4
			c0.6,0,0.8-0.3,0.9-0.4c0-0.1,0.1-0.1,0.1-0.1c0.1,0,0.1,0,0.1,0.1c0,0,0,0,0,0c0.5,0,1.6-0.7,2.3-1.2c0.1-0.1,0.2-0.1,0.3-0.2
			c0,0,0,0.1,0,0.1l-0.1,0.2c-0.6,1.3-1.4,3.1-1.4,4.2c0,0.2,0,0.4,0,0.6c0,0.2,0,0.5,0,0.7c0,0.2,0,0.5-0.1,0.7
			c0.6,1.3,1.2,2,2.3,2c0.5,0,1.7-0.2,2.3-0.7c0.1,0,0.1-0.1,0.2-0.2c0.1-0.1,0.1-0.2,0.2-0.3c0.6-0.3,0.9-0.5,1.3-0.9
			c0.2-0.2,0.4-0.3,0.6-0.5c1.2-0.9,2.4-2,3.5-3c1.8-1.5,2.7-2.3,3-2.3c0.1,0,0.1,0,0.1,0l0.1,0.1c0,0.9-0.2,1.8-0.3,2.7
			c-0.1,0.8-0.3,1.6-0.3,2.3c0,1.5,0.9,2.9,1,3.1c0.2,0.2,1.1,0.8,1.7,0.8c0.9,0,1.9-0.5,2.7-0.9c0.2-0.1,0.3-0.2,0.5-0.2
			c0.7-0.3,1.4-0.9,2.1-1.4c0.4-0.3,0.8-0.6,1.1-0.8c0.2-0.2,0.4-0.2,0.6-0.3c0.1,0,0.2-0.1,0.3-0.1c0,0,0,0,0-0.1
			c0-0.1,0.1-0.3,0.2-0.3c1-0.6,1.7-1.2,2.6-1.9c0.2-0.1,0.4-0.2,0.7-0.3c0.1,0,0.2-0.1,0.4-0.1c0.1-0.1,0.3-0.3,0.4-0.4
			c0.4-0.4,0.7-0.7,1.5-1c0.1,0,0.1-0.1,0.1-0.1c0,0,0-0.1,0.2-0.1l0.1,0l0.7-0.7l0.9-0.6l0.3-0.4c-0.1,0.3-0.2,0.6-0.3,0.8
			c-0.2,0.6-0.4,1.2-0.5,1.9c-0.3,1.5-0.5,3.5-0.5,5.2c0,1.6,0.2,2.9,0.4,3.7c0.1,0.3,0.3,0.4,0.5,0.6c0.2,0.2,0.4,0.4,0.5,0.7
			c0.1,0,0.1,0,0.2,0c0.1,0,0.2,0,0.3,0c0.1,0,0.2,0,0.3,0c0.2,0,0.3-0.3,0.3-0.5c0-0.2-0.2-0.5-0.3-0.7c-0.1-0.1-0.2-0.3-0.2-0.4
			l0-0.1c0-0.1,0-0.2,0-0.3c0-0.2-0.1-0.4-0.1-0.6c-0.1-0.2-0.2-0.4-0.2-0.7c0-0.1,0-0.2,0-0.4c0-0.1-0.1-0.3-0.1-0.5
			c0-0.1,0-0.3,0-0.5v-0.5c0-0.5,0.1-0.9,0.2-1.4c0.1-0.5,0.2-1,0.2-1.9c0-0.1,0-0.2,0.2-0.7c0-0.2,0.1-0.3,0.1-0.3
			c0.5-4,1.8-7.5,2.8-10c0.2-0.5,0.4-0.9,0.5-1.3c0.9-2.2,1.8-4,2.6-5.6c0-0.1,0.1-0.2,0.1-0.4c0.2-0.7,0.6-1.8,1.4-2l0,0
			c3,0.2,3.7,0.3,4.9,0.4c0.7,0.1,1.7,0.2,3.4,0.4c0.3,0,0.5,0,0.8,0c0.5,0,0.8,0,1.2-0.1c0.3,0,0.6-0.1,1-0.1
			c0.2,0,0.3,0.1,0.5,0.2c0.2,0.1,0.4,0.2,0.6,0.2c0.2,0,0.5-0.1,0.8-0.1c0.4-0.1,0.8-0.2,1.2-0.2c0.4,0,0.7,0.1,1,0.1
			c0.3,0.1,0.6,0.1,0.8,0.1c0.4,0,1-0.1,1-0.4c0-0.1,0-0.1-0.2-0.1c-0.2,0-0.5,0-0.9-0.1l-0.1,0c-0.8,0.1-1.5,0.2-2.2,0.2
			c-1.2,0-2.4-0.2-3.4-0.4c-0.9-0.2-1.7-0.3-2.4-0.3c-0.2,0-0.3,0.1-0.4,0.1c-0.1,0-0.1,0-0.2,0l0,0c-0.6-0.2-0.8-0.2-0.9-0.2
			c0,0-0.1,0-0.1,0c-0.1,0-0.2,0-0.8-0.2c-0.7-0.2-1.4-0.3-2.1-0.3c-0.9-0.1-1.7-0.1-2.7-0.5l-0.1-0.1c0.2-1.1,0.9-2.1,1.5-3
			c0.4-0.6,0.8-1.2,1.2-1.9c-0.1-0.1-0.2-0.2-0.2-0.3c-0.3-0.4-0.6-0.7-1.2-0.8c-0.7,0.8-1.1,1.5-1.6,2.4c-0.1,0.2-0.2,0.3-0.3,0.5
			c-0.8,1.1-1.9,2.5-2.6,2.9l-0.1,0c-1.1-0.1-2-0.2-2.8-0.3c-1.4-0.2-2.5-0.3-3.8-0.3c-0.4,0-0.9,0-1.4,0.1c-0.6,0-1.2,0.1-1.9,0.1
			h-0.8c-0.4,0-0.7,0.1-1,0.2c-0.3,0.1-0.7,0.3-1.3,0.3h-0.5c-0.5,0-0.8,0.1-1.2,0.2c-0.3,0.1-0.5,0.2-0.9,0.2
			c-0.7,0.2-1.4,0.3-2,0.4c-2.1,0.4-3.7,0.7-5.2,1.7l-0.1,0c-1.3,0-2.5,0.7-3.6,1.2c-0.2,0.1-0.5,0.2-0.7,0.4
			c-0.2,0.1-0.4,0.1-0.6,0.2c-0.2,0-0.4,0.1-0.4,0.1c-0.1,0.1-0.2,0.2-0.3,0.3c-0.1,0.1-0.2,0.3-0.3,0.4c-0.1,0.1-0.2,0.1-0.3,0.1
			c-0.1,0-0.2,0-0.2,0.1l0,0c-0.4,0.2-1,1.5-1,1.9c0,0.2,0,0.4,0.1,0.5c0,0.2,0.1,0.4,0.1,0.7c0.2,0.1,0.4,0.1,0.5,0.2
			c0.5,0.2,1.1,0.4,1.7,0.4c0.5,0,1-0.1,1-0.2c0-0.5-0.3-0.6-0.7-0.7c-0.4-0.2-0.9-0.3-0.9-0.9c0-0.7,0.4-1.1,1.3-1.4
			c0,0,0.1,0,0.1,0c0.1-0.1,0.3-0.2,0.4-0.4c0.3-0.3,0.6-0.5,1-0.7c0.5-0.2,1-0.3,1.3-0.4c0.1,0,0.3-0.1,0.3-0.1l0.1,0.1v-0.1h0.3
			c0.2,0,0.2,0,0.2-0.1c0-0.1,0-0.2,0.1-0.3c1.6-0.7,3.2-1.2,4.3-1.5c0.3-0.1,0.7-0.2,0.9-0.3c3.3-1.1,6.7-1.6,10.6-1.6
			c2.2,0,4.6,0.2,7.4,0.5l0,0l0.1,0.1v0c0,0.1-0.1,0.2-0.2,0.6c-0.2,0.3-0.4,0.8-0.4,1.1c-0.1,0.8-0.6,1.8-1,2.6
			c-0.1,0.2-0.2,0.5-0.3,0.7c-0.1,0.3-0.2,0.5-0.3,0.8c-0.2,0.4-0.3,0.8-0.5,1.1c0,0.4-0.2,0.6-0.4,0.8c-0.1,0.1-0.2,0.2-0.2,0.3
			c-0.1,0.2-0.2,0.7-0.3,1.3c-0.2,0.8-0.5,1.8-0.6,2.1c0,0.2-0.1,0.3-0.2,0.4c-0.1,0.1-0.2,0.2-0.2,0.5v0.3c0,0.4-0.2,0.7-0.3,0.9
			c-0.1,0.2-0.2,0.3-0.3,0.5c-0.1,0.3-0.1,0.6-0.1,0.8c0,0.1,0,0.1,0,0.2c-0.4,0-0.5,0.1-0.6,0.1c0,0,0,0.1,0,0.1
			c0,0.2-0.2,0.2-0.3,0.3l-0.1,0c0,0,0,0,0,0c0,0-0.1,0.2-0.2,0.3c-0.1,0.3-0.3,0.6-0.6,0.6h0c-0.3,0.5-0.5,0.6-0.8,0.8
			c-0.2,0.1-0.4,0.3-0.7,0.6l-0.1,0h-0.2c-0.4,0-2.5,1.3-3.1,2l-0.1,0c-0.9,0.1-1.5,0.5-1.8,1.2l-0.2,0.1c-0.1-0.1-0.2-0.1-0.2-0.1
			c-0.2,0-0.4,0.2-0.6,0.5c-0.2,0.2-0.4,0.5-0.6,0.6c-0.8,0.4-1.3,0.8-1.6,1.3l-0.1,0.1h-0.2c-0.7,0-1.3,0.4-1.8,0.8
			c-0.4,0.3-0.8,0.6-1.2,0.6c-0.1,0-0.3,0-0.4-0.1c-0.1,0-0.2-0.1-0.3-0.1c-0.1,0-0.2,0-0.3,0.1l-0.2,0c-0.4-0.6-0.7-1.4-0.7-2.3
			c0-1.6,0.4-2.9,0.8-3.8c0.1-0.3,0.2-0.6,0.3-0.9c0.1-0.4,0.2-0.7,0.3-1c0.6-1.7,0.8-2.3,0.9-3.7l-0.1-0.1
			c-0.3-0.2-0.5-0.4-1.1-0.4c-2.2,2.5-3.8,3.8-5.2,4.9c-1,0.9-2,1.7-3.1,2.8l-0.1,0c-0.1,0-0.1,0-0.2,0c0,0,0,0,0,0
			c-0.1,0-0.2,0-0.3,0.1c-0.1,0.1-0.2,0.1-0.4,0.1c-0.1,0.1-0.2,0.2-0.3,0.3c-0.1,0.1-0.2,0.2-0.2,0.4v0.1l-0.1,0.1
			c-0.6,0-1,0.4-1.5,0.8c-0.5,0.4-1.1,0.9-1.9,0.9c-0.3,0-0.6-0.1-0.8-0.2l-0.1-0.1c0.2-2.7,1.1-4.7,2-6.6c0.1-0.3,0.3-0.7,0.4-1
			c0-0.3,0.3-0.4,0.6-0.5c0.3-0.1,0.5-0.2,0.5-0.5c-0.1-1-0.4-1.4-1.5-1.4c-0.4,0-1,1.1-1.5,2.4c-0.1,0-0.2,0.1-0.3,0.1
			c-0.1,0-0.2,0-0.3,0.1c0,0,0,0.2,0,0.2l-0.1,0.1c-0.4,0.2-0.6,0.3-0.9,0.4c-0.3,0.1-0.6,0.2-1,0.4c-3.9,2-8.5,2.5-10.4,2.5
			l-0.1-0.1c0-0.1-0.1-0.3-0.1-0.4c-0.4-1.4-0.6-2.3-2.9-2.8l0-0.2c0.3-0.1,0.6-0.1,0.8-0.1c0.5,0,1,0.2,1.5,0.3
			c0.1,0,0.2,0.1,0.3,0.1c-0.2-1.2-1.7-1.7-2.9-1.7c-0.1,0-0.2,0-0.3,0c-0.1,0-0.2,0-0.3,0c-0.1,0-0.2-0.1-0.2-0.2
			c-1.5,0.2-2.8,0.9-3.9,1.7c0,0,0-0.1,0-0.1c-0.3,0.2-0.9,0.5-1.6,1c-2,1.3-4.7,3-5.7,3.1c-0.2,0-0.7,0.1-1.3,0.2
			c-1.1,0.2-2.4,0.5-2.8,0.5c-0.5,0-1.9-0.6-2.2-1.1l0-0.1c0.1-0.5,0.3-1.6,0.3-2.3c0-0.5,0-0.9-0.2-1.4l0,0c0-0.1-0.1-0.1-0.2-0.2
			c-0.1-0.1-0.2-0.2-0.3-0.3c-0.1-0.1-0.1-0.2-0.1-0.2c0-0.1,0-0.1,0-0.2c-0.2-0.5-1-0.6-1.4-0.6c-0.6,0-2.1,0.7-2.1,1.3
			c0,0,0,0.1,0,0.2c0,0.1,0,0.1,0,0.2l-0.1,0.2c-0.5,0-0.6,0.6-0.6,1.1c0,0.3,0.5,1.5,0.8,2c0.1,0.1,0.1,0.1,0.3,0.2
			c0.1,0,0.2,0.1,0.3,0.1c0.1,0,0.4,0.3,0.8,0.6c0.3,0.2,0.6,0.5,0.8,0.6l0.1,0.1c-0.8,2.4-2.3,4.2-3.2,5c-0.1,0.1-0.3,0.3-0.4,0.4
			c-0.3,0.3-0.6,0.6-0.9,0.9l-0.1,0.1c-0.4,0-0.7,0.2-1,0.4c-0.4,0.2-0.8,0.5-1.3,0.5c-2.9,0-3.5-2.7-3.5-5c0-2.7,1-5.9,1.9-8.4
			c0.2-0.6,0.4-1.2,0.5-1.7l0.1-0.1c0.8-0.5,1.5-1.1,2.2-1.8c0.1-0.1,0.3-0.2,0.4-0.4c0.5-0.5,1.1-0.9,1.6-1.4
			c1.5-1.3,2.8-2.4,4.1-3.8c0.1-0.1,0.1-0.2,0.2-0.3c0.1-0.2,0.2-0.4,0.3-0.5c0.2-0.2,0.4-0.4,0.6-0.6c0.2-0.2,0.4-0.4,0.6-0.6
			c0.7-0.9,1.5-2,2.2-3c0.3-0.4,0.6-0.8,0.8-1.2c0.1-0.2,0.3-0.4,0.6-0.8c0.2-0.2,0.4-0.5,0.5-0.6c0.6-1,1.2-2.4,1.7-3.4
			c0.8-1.8,1.5-3.5,1.5-5.7c0-0.4,0-0.8-0.1-1.2l0-0.1c-0.2-0.2-0.2-0.5-0.2-0.7c0-0.2,0-0.3-0.1-0.4c-0.3-0.3-1.5-1.1-2.2-1.1
			c-0.9,0-2.7,1.4-3.2,2.2c-0.1,0.1-0.1,0.3-0.2,0.4c-0.1,0.1-0.1,0.3-0.2,0.4c-0.2,0.2-0.4,0.4-0.6,0.6c-0.2,0.2-0.5,0.4-0.6,0.5
			c-0.5,0.7-0.8,1.3-1,1.6c0,0,0,0,0,0.1c0,0,0,0.1,0.1,0.1c0.1,0.1,0.2,0.2,0.2,0.3c0,0.1,0,0.2-0.1,0.3l-0.2,0.2
			c-1,0.8-1.9,1.7-2.2,3.3l0,0.1c-0.3,0.2-0.9,0.9-1,1.1c0,0,0,0.1,0.1,0.1c0.1,0,0.3,0.1,0.3,0.3c0,0.2-1.3,1.8-1.9,2.1v0.1
			c0,0.3-0.2,0.6-0.3,0.8c-0.1,0.2-0.3,0.4-0.3,0.8c0,0.1,0,0.2,0,0.2c0,0.1,0,0.2,0,0.3c0,0.6-0.3,0.9-0.7,1.2
			c-0.4,0.4-0.7,0.7-0.7,1.3v0.1l0,0.1c-0.4,0.5-0.6,1-0.8,1.6c-0.1,0.4-0.2,0.8-0.4,1.2c-0.1,0.2-0.2,0.3-0.3,0.4
			c-0.1,0.1-0.2,0.2-0.3,0.3c-0.2,0.5-0.4,1-0.4,1.6l0,0.1c-0.6,0.7-0.9,1.8-1.1,2.8l-0.1,0.3c-0.1,0.3-0.4,0.3-0.6,0.4
			c-0.2,0.1-0.4,0.1-0.4,0.3l0,0c-0.1,0.1-0.2,0.2-0.3,0.4c-0.5,0.7-1.1,1.5-1.9,1.9c-0.2,0.1-0.3,0.3-0.4,0.4
			c-0.1,0.2-0.3,0.3-0.4,0.4c-0.1,0-0.2,0.1-0.3,0.1c-0.3,0.1-0.5,0.2-0.9,1.1c0,0,0,0,0,0.1c-0.1,0.1-0.2,0.3-0.2,0.3
			c-0.1,0-0.2,0-0.2,0.1c-0.1,0-0.2,0-0.2,0.1c0,0,0,0,0,0c-0.2,0-1.2,0.9-1.8,1.5c-0.1,0.1-0.3,0.2-0.5,0.3
			c-0.1,0.1-0.2,0.1-0.3,0.2c-0.9,1-2.1,2.1-3.2,3.1c-0.6,0.5-1.2,1.1-1.6,1.5c-0.2,0.2-0.3,0.3-0.5,0.5c-1.4,1.4-3.1,3.1-4.8,3.9
			c-1.3,1.3-3,2-4.6,2.1l-0.1,0c-2.2-1.3-2.2-5.7-2.2-5.9c0-3.5,1.7-9.6,3.2-13.8c0.1-0.3,0.2-0.6,0.2-0.9c0.1-0.4,0.2-0.8,0.3-1.2
			c1.1-2.9,2.1-4.9,3.4-7.5c0.2-0.5,0.5-1,0.7-1.4c0.5-1,1-1.9,1-2.5C92,12.3,92,12,90.9,11.9c-0.3,0.4-0.3,1-0.3,1.6
			c0,0.4,0,0.8-0.1,1.2l0,0.1c-0.1,0.1-0.4,0.5-0.4,0.6c0,0,0,0,0,0.1c0,0,0,0.1,0,0.2c0,0.2-0.2,0.3-0.3,0.3
			c-0.1,0-0.2,0.1-0.2,0.1l0,0c-0.1,0.1-0.1,0.3-0.1,0.4c0,0.1,0,0.2-0.1,0.3c-0.2,0.5-0.5,0.9-0.7,1.3c-0.2,0.3-0.3,0.5-0.5,0.8
			c-0.2,0.3-0.3,0.6-0.3,0.9c-0.1,0.3-0.2,0.6-0.3,0.8c0,0.1-0.2,0.1-0.3,0.2c0,0-0.1,0-0.1,0c0,0.1-0.1,0.1-0.1,0.2
			c0,0.1,0,0.3-0.2,0.4c-1,1.1-1.3,1.6-1.6,2.2c0,0.1-0.1,0.1-0.2,0.2c-0.1,0.1-0.2,0.2-0.2,0.3l0,0c-0.3,0.4-0.6,0.8-0.8,1.2
			c-0.6,0.8-1.2,1.7-1.9,2.4c-0.2,0.3-0.6,0.6-0.9,0.9c-0.3,0.2-0.5,0.5-0.8,0.7c-0.1,0.2-0.2,0.3-0.3,0.5c-0.1,0.2-0.2,0.3-0.3,0.5
			c-0.3,0.5-1.2,1.4-2.1,2.2c-0.6,0.6-1.2,1.2-1.6,1.6l0,0c-1,0.6-2,1.5-2.8,2.4c-0.4,0.4-0.9,0.9-1.4,1.3c-0.9,0.9-1.9,1.6-2.8,2.4
			c-0.3,0.3-0.6,0.5-1,0.8c-0.6,0.5-1.1,0.9-1.7,1.4c-2.1,1.7-4.3,3.5-6.6,4.6c0,0-0.1,0.1-0.2,0.2c-0.1,0.1-0.1,0.2-0.2,0.2
			c-0.4,0.3-0.8,0.5-1.2,0.6c-0.2,0.1-0.3,0.1-0.5,0.2c-3.2,2-5.8,3-8,3c-1.3,0-2.8-0.2-3.6-0.4c-2.1-0.6-3.9-4.3-3.9-7
			c0-0.4,0.1-0.7,0.2-1c0.1-0.2,0.1-0.4,0.1-0.7c0-0.1-0.1-0.2-0.1-0.4c-0.1-0.1-0.1-0.2-0.1-0.3c0-0.4,0.1-0.8,0.3-1.1
			c0.1-0.4,0.2-0.8,0.2-1.2c0-0.2,0-0.4,0-0.6l0-0.1c0.6-1.2,1-2.5,1.3-3.8c0.2-0.6,0.3-1.2,0.5-1.7c0.2-0.5,0.4-1,0.7-1.4
			c0.1-0.2,0.2-0.4,0.3-0.6c0.1-0.1,0.1-0.3,0.1-0.5c0-0.2,0.1-0.3,0.1-0.4c0.9-2,2.2-4.2,3.4-6.1c0.3-0.5,0.6-0.9,0.8-1.4
			c0.3-0.4,0.4-0.8,0.6-1.2c0.2-0.5,0.4-0.8,0.6-1.1c0.8-0.9,1.8-2.7,2.2-3.3c0.1-0.1,0.1-0.2,0.1-0.2c0.1-0.2,0.3-0.3,0.4-0.5
			c0.1-0.1,0.2-0.1,0.2-0.2c0.1-0.1,0.1-0.2,0.1-0.4c0-0.1,0-0.3,0.1-0.4l0,0c0.1,0,0.1-0.1,0.2-0.1c0.1-0.1,0.4-0.2,0.4-0.2
			c0,0,0-0.1,0-0.1c0,0,0-0.1,0-0.2c0-0.2,0.2-0.3,0.3-0.3c0.1,0,0.1,0,0.2-0.1c0.5-0.6,1-1.2,1.4-1.8c0.9-1.2,1.8-2.4,2.8-3.4
			c1.5-1.6,3.3-3,5.2-4.3c0.1-0.1,0.3-0.3,0.5-0.5c0.2-0.3,0.4-0.5,0.6-0.6c0.2-0.1,0.5-0.2,0.7-0.3c0.1,0,0.3-0.1,0.3-0.1
			C67,3.3,67,3.3,67.1,3.2c0,0,0.1,0,0.2-0.1C69.5,2.1,71.9,1,74,0.8c0,0,0,0,0,0c0.1,0,0.1,0,0.2,0.1c0.1,0.1,0.3,0.2,0.5,0.2
			c0,0,0.1,0,0.1,0c0.1-0.1,0.3-0.2,0.6-0.2c1,0.1,2.2,0.7,2.6,0.9c0.1,0.1,0.2,0.1,0.3,0.1c0.1,0,0.3,0,0.5,0.2
			c3.3,1.8,4.5,6.2,4.5,9.6c0,2.5-1,5.7-1.6,7.4c-0.3,0.7-0.4,1.1-0.6,1.6c0,0.1-0.1,0.2-0.1,0.4c-0.1,0.3-0.3,0.7-0.4,1
			c-0.4,0.8-0.7,1.6-0.7,2.6c0,0.8,0.4,1.3,1,1.4c0.8-0.2,0.9-0.9,1-1.7c0-0.3,0.1-0.6,0.1-0.9c0.1-0.2,0.2-0.5,0.3-0.7
			c0.1-0.2,0.2-0.4,0.3-0.6c0.6-1.5,0.8-2.5,1.1-3.6c0.1-0.3,0.2-0.6,0.3-1c0.1-0.2,0.2-0.3,0.3-0.4c0.1-0.1,0.2-0.2,0.2-0.4
			c0-0.1,0-0.2,0-0.3c0-0.1,0-0.2,0-0.3c0-0.1,0-0.1,0.1-0.2c0.3-1.2,0.4-2.7,0.4-4.2c0-1.4-0.1-2.8-0.4-3.9
			c-0.8-2.7-1.4-3.2-1.8-3.5c-0.3-0.2-0.5-0.4-0.7-1.2c-0.5-0.3-1.1-0.7-1.6-1.1c-0.6-0.4-1.1-0.8-1.6-1.1c-0.7-0.4-1.2-0.4-1.8-0.4
			c-0.4,0-0.8,0-1.4-0.1c-0.2,0-0.4-0.1-0.6-0.1C74.7,0,74.4,0,73.8,0c-3.1,0-5.3,1.2-7.2,2.2l-0.3,0.2c0,0,0,0.1,0,0.1
			c0,0.1-0.1,0.2-0.2,0.2C65.8,2.8,65.4,3,65,3.3c-1.3,0.7-3,1.5-3.4,2.7L61.5,6h-0.2c-0.4,0-0.7,0.4-1,0.7
			c-0.1,0.2-0.3,0.4-0.4,0.5C59,8.1,58,9.2,57.2,10.1c-0.3,0.4-0.6,0.7-0.8,0.9c0,0,0,0.1-0.1,0.2c0,0.1,0,0.3-0.2,0.4
			c-0.1,0.1-0.2,0.1-0.4,0.1c-0.1,0-0.2,0-0.3,0.1c0,0.1-0.1,0.3-0.2,0.5c-0.1,0.2-0.1,0.4-0.2,0.5l0,0C55.1,12.9,55,13,54.9,13
			c-0.1,0-0.2,0.1-0.2,0.1c-0.1,0.1-0.1,0.2-0.1,0.3c0,0.1,0,0.2-0.1,0.3c-0.3,0.5-0.8,1-1.2,1.4c-0.4,0.4-0.8,0.8-0.9,1.1
			c-0.1,0.2-0.2,0.4-0.2,0.6c0,0.2-0.1,0.3-0.2,0.5l0,0c-0.1,0.1-0.2,0.1-0.2,0.1c0,0-0.1,0-0.1,0.1l-0.1,0.1
			c-0.1,0.1-0.1,0.2-0.2,0.3c0,0.1,0,0.2-0.1,0.2c-1.7,2.4-3.1,4.8-4.5,7.1l-0.1,0.1c-0.3,0.6-0.6,1.2-0.8,1.7
			c-0.2,0.5-0.4,1-0.7,1.4c-0.1,0.1-0.2,0.3-0.3,0.4c-0.1,0.2-0.3,0.3-0.3,0.4c-0.3,0.5-0.4,1-0.6,1.4c-0.1,0.4-0.3,0.8-0.5,1
			c0,0,0,0,0.1,0l0,0l0.1,0.1c-0.1,0.1-0.2,0.2-0.3,0.3c-0.1,0.1-0.1,0.1-0.1,0.2c0,0,0.1,0.1,0.1,0.1c0.1,0.1,0.2,0.1,0.2,0.3
			c0,0.1-0.1,0.3-0.3,0.5c-0.2,0.2-0.4,0.5-0.4,0.7c0,0.1,0,0.2,0.1,0.2l0,0.1l0,0.1c-0.8,0.6-1.4,2.4-1.4,3.3c0,0.1,0,0.2,0,0.3
			c0,0.1,0,0.2,0,0.4c0,0.3-0.1,0.5-0.3,0.7c-0.1,0.1-0.2,0.2-0.2,0.4c-0.4,1.7-0.7,3.4-0.7,4.9c0,5.4,3.2,7.4,5.9,8.1
			c0.1,0,0.3,0.1,0.4,0.1c0.4,0.1,0.8,0.3,1.2,0.3c0.3-0.1,0.9-0.1,1.4-0.1c0.7,0,1.6,0,2.1-0.1c0.1,0,0.1-0.1,0.2-0.1
			c0.1-0.1,0.2-0.2,0.5-0.3c3.3-0.8,5.6-2.2,7.8-3.6c0.3-0.2,0.6-0.4,0.9-0.6c0.1-0.1,0.2-0.1,0.3-0.1c0.1,0,0.1,0,0.2-0.1
			c0.1,0,0.1-0.2,0.2-0.3c0.1-0.1,0.2-0.3,0.3-0.4c0.2-0.1,0.4-0.2,0.7-0.3c0.5-0.2,1-0.4,1.3-0.9l0,0c0.3-0.2,0.7-0.5,1.1-0.7
			c0.2-0.1,0.3-0.2,0.4-0.3c0,0,0.1-0.1,0.1-0.2c0.1-0.1,0.1-0.3,0.3-0.4c0.1-0.1,0.2-0.1,0.4-0.1c0.1,0,0.2,0,0.2-0.1l0,0
			c0.4-0.2,0.7-0.5,0.9-0.7c0.2-0.2,0.4-0.3,0.6-0.5c0.3-0.2,0.6-0.4,0.9-0.6c0.2-0.1,0.4-0.3,0.6-0.4c0.1,0,0.1-0.2,0.2-0.3
			c0.1-0.1,0.1-0.3,0.2-0.4c0.1-0.1,0.2-0.1,0.3-0.1c0.1,0,0.2,0,0.2-0.1c0.4-0.3,0.8-0.7,1.1-1c0.2-0.3,0.4-0.5,0.6-0.7
			c0.1-0.1,0.2-0.1,0.3-0.1c0.1,0,0.3,0,0.3-0.1c0.1-0.1,0.2-0.3,0.3-0.4c0.1-0.2,0.3-0.4,0.5-0.6c0.2-0.2,0.4-0.3,0.6-0.4
			c0.2-0.1,0.3-0.1,0.4-0.2c0.1-0.1,0.2-0.3,0.4-0.5c0.1-0.2,0.3-0.4,0.5-0.6c0.1-0.2,0.4-0.3,0.6-0.4c0.2-0.1,0.3-0.1,0.4-0.3
			c0.2-0.1,0.3-0.4,0.5-0.6c0.1-0.2,0.2-0.3,0.4-0.5c0.4-0.4,0.9-0.8,1.3-1.2c0.8-0.7,1.5-1.4,2.2-2.1c0.2-0.2,0.3-0.3,0.4-0.5
			c0.1-0.2,0.2-0.4,0.3-0.5c0.3-0.4,0.6-0.7,0.9-1.1c0.6-0.8,1.1-1.5,1.6-1.5l0.1,0c0,0,0.1,0.1,0.1,0.2c-0.6,2.7-1.5,6.7-1.9,10.9
			c0,0.4-0.1,0.8-0.1,1.2c-0.1,0.5-0.1,1-0.1,1.5c0,2.4,1.6,6,3.1,6.2c0.3,0,0.6,0.1,0.9,0.1c2.3,0,3.9-1.2,5.3-2.2
			c0.1-0.1,0.3-0.2,0.4-0.3c1.5-1.1,3-2.5,4.3-3.8c1.1-0.9,2.2-1.9,3.2-2.9c0.3-0.4,0.7-0.7,1-1c0.3-0.2,0.5-0.4,0.6-0.6
			c0.2-0.3,0.5-0.7,0.8-1c0.3-0.4,0.5-0.7,0.7-1l0.1,0l0.2-0.1C103.6,34.1,103.7,34.1,104.2,33.4z M134,33c0.5-0.5,1-1,1.7-1
			c0.7,0,1.2,0.7,1.7,1.4c0.3,0.4,0.6,0.8,0.9,1.1c0.1,0.1,0.2,0.1,0.3,0.2c0.4,0.3,1,0.7,1.2,1.2l0,0.1c0,0.1-0.1,0.3-0.1,0.4
			c-0.2,0.6-0.4,1.5-0.7,1.9c-0.1,0.1-0.2,0.1-0.3,0.2c0,0-0.1,0-0.1,0l0,0.2c0,0.2-0.2,0.2-0.3,0.2c-0.1,0-0.2,0-0.2,0
			c-0.1,0.1-0.2,0.3-0.2,0.5c-0.1,0.2-0.1,0.3-0.2,0.4c-0.2,0.1-0.5,0.3-0.7,0.4c-0.4,0.2-0.8,0.5-1.2,0.7c-0.1,0-0.1,0.1-0.2,0.2
			c-0.1,0.1-0.1,0.2-0.2,0.3c-0.3,0.3-1.2,1-2.8,1c-1,0-2.2-0.6-2.2-3.3c0-1.1,0.3-2.3,0.8-3.1c0.2-0.2,0.5-0.6,0.7-0.9
			c0.4-0.5,0.8-1.2,1.3-1.5C133.4,33.5,133.7,33.3,134,33z M116.8,33c0-0.8,0.4-1.8,1.3-1.8c0.1,0,0.1,0,0.2,0.1
			c0.2,0.2,0.2,0.5,0.2,0.9l0,0.1c0,0.8-0.1,1.8-0.3,2.5L118,35C117.3,34.9,116.8,33.9,116.8,33z M112.1,22.8c0.1-0.2,0.2-0.6,0.4-1
			c0.1-0.3,0.2-0.7,0.3-1c0.9-1.9,2.2-4.5,3.4-6.7c0.1-0.1,0.1-0.2,0.2-0.2c0.1,0,0.1-0.1,0.1-0.1c0,0,0-0.1,0-0.1c0,0,0-0.1,0-0.1
			c0-0.3,0.3-0.7,0.7-1.2c0.1-0.1,0.2-0.2,0.2-0.3c0.2-0.3,0.3-0.6,0.5-0.9c0.7-1.3,1.6-2.7,2.4-4c0.1-0.1,0.1-0.2,0.2-0.3
			c0.1-0.1,0.1-0.3,0.2-0.4c0.1-0.1,0.2-0.2,0.3-0.3c0.1-0.1,0.2-0.1,0.2-0.2c0.1-0.1,0.1-0.1,0.1-0.2c0-0.1,0-0.2,0.1-0.3
			c0.4-0.4,0.8-0.8,1.2-1.2c0.7-0.7,1.4-1.5,2.4-2.2l0.1,0c1,0.2,1.1,1.3,1.1,2.3c0,2.5-1.4,5.7-2.7,7.7c0,0.1-0.2,0.4-0.4,0.4
			c-0.1,0.2-0.3,0.4-0.4,0.6c-0.3,0.5-0.6,1-1,1.3c-0.1,0.1-0.2,0.4-0.2,0.6c0,0.2-0.1,0.3-0.1,0.4l0,0.1c-0.9,0.7-2.6,3-2.7,3.2
			l0,0.2c0,0.2-0.3,0.5-0.8,0.8c-0.1,0.1-0.3,0.2-0.4,0.3c0,0,0,0.1,0,0.1c0,0.1,0,0.3-0.1,0.3c-0.1,0.1-0.2,0.1-0.3,0.1
			c0,0-0.1,0-0.1,0l0,0c-0.1,0.1-0.2,0.2-0.3,0.3c-0.1,0.1-0.1,0.2-0.2,0.3c-0.1,0.1-0.2,0.1-0.3,0.1c0,0-0.1,0-0.1,0
			c-0.2,0.2-0.4,0.5-0.7,0.8c-0.7,0.8-1.5,1.8-2.2,1.9c0,0.4-0.3,0.6-0.6,0.7c-0.1,0.1-0.3,0.1-0.4,0.2c-0.1,0.1-0.1,0.2-0.2,0.3
			c-0.1,0.3-0.3,0.6-0.6,0.6c-0.2,0-0.2,0-0.4-0.1l-0.1-0.1C111.2,24.9,111.6,23.7,112.1,22.8z"/>
		<path fill="#FFFFFF" d="M57.1,108.5c-0.1,0-0.2-0.1-0.3-0.1c-0.3-0.3-0.6-0.3-1.1-0.3c-0.3,0-0.5,0-0.8-0.1
			c-0.2-0.1-0.4-0.2-0.6-0.3c-0.2-0.1-0.5-0.3-0.7-0.4c-5.4-2-5.8-7.6-5.8-9.3c0-0.6,0.1-1.3,0.2-2c0.1-0.5,0.2-1.1,0.1-1.3
			c0-0.1-0.1-0.1-0.1-0.2l0-0.1c0-0.3,0.1-0.4,0.2-0.5c0.1,0,0.1-0.1,0.1-0.1c0-0.3,0.1-0.6,0.1-1c0.1-1.1,0.2-2.1,0.5-3
			c1.3-3.7,2.5-7.5,4-11.1c0,0,1-2.2,1.4-2.8h0c0-0.1,0-0.2-0.1-0.2c0-0.1,0-0.1,0-0.2c0-0.3,0.4-1.3,0.8-2.3
			c0.1-0.2,0.2-0.4,0.2-0.5l0,0c0.1-0.1,0.2-0.1,0.3-0.1c0.1,0,0.1,0,0.1-0.1c0,0,0-0.1,0-0.1c0-0.1,0-0.2,0-0.2
			c0-0.2,0.1-0.4,0.3-0.6c0.1-0.1,0.2-0.2,0.2-0.4c0.1-0.3,0.2-0.7,0.3-1.1c0.1-0.4,0.2-0.9,0.3-1.2c0,0,0-0.1,0.3-0.3l0.1-0.3
			c0.8-1.9,1.7-4.4,1.7-6.2c0-0.4-0.2-1.8-0.4-2l0,0c0,0-0.2-0.1-0.3-0.2c-0.1,0-0.1-0.1-0.2-0.1l0,0l0-0.1c-0.2-0.4-0.6-1-1.7-1
			c-1.2,0-3.4,1.7-4.9,2.8c-0.3,0.2-0.5,0.4-0.7,0.5c-1.9,1.5-2,1.9-2,1.9c0,0,0,0.1,0,0.1l-0.1,0.2c-0.8,0-2,1.5-2.4,2.3L46,66.5
			c-0.1,0-0.1,0-0.2,0c-0.1,0-0.2,0.1-0.3,0.2c-0.1,0.1-0.2,0.2-0.3,0.2h-0.1c0,0,0,0.1,0,0.1c0,0.2-0.2,0.3-0.7,0.7
			c-0.2,0.2-0.5,0.4-0.6,0.5c-0.5,0.5-1.4,1.4-1.9,2.5l-0.1,0.1c-0.2,0-0.3,0.1-0.4,0.1c-0.1,0.1-0.2,0.2-0.5,0.2
			c-0.2,0.8-0.9,1.3-1.4,1.7c-0.2,0.1-0.3,0.2-0.5,0.3c-0.1,0.1-0.2,0.3-0.3,0.5c-0.1,0.2-0.2,0.4-0.3,0.4c-0.2,0.1-0.3,0.1-0.4,0.1
			c-0.1,0-0.2,0-0.5,0.5c-0.1,0.1-0.2,0.2-0.3,0.4c-0.5,0.6-0.8,0.9-1,0.9c-0.1,0-0.1,0-0.1,0c0,0.1-0.1,0.2-0.1,0.3
			c-0.2,0.2-0.5,0.5-0.8,0.7c-0.2,0.1-0.4,0.3-0.5,0.4c-0.2,0.2-0.3,0.5-0.4,0.8c-0.2,0.6-0.5,1.2-1,1.2c0,0-0.1,0-0.1,0l0,0
			c-0.2,0.2-0.3,0.3-0.5,0.3c-0.2,0.1-0.5,0.2-0.9,0.9l0,0c-0.1,0.1-0.1,0.1-0.1,0.1v0.2c0,0.2-0.1,0.4-0.2,0.5l-0.1,0
			c-0.1,0-0.1,0-0.2,0c0,0-0.1,0-0.1,0c-0.2,0-0.3,0.2-0.4,0.5c0,0.1-0.1,0.1-0.1,0.2c-0.1,0.1-0.2,0.2-0.4,0.2
			c-0.2,0.1-0.5,0.3-0.5,0.4l0,0.2h-0.1l0,0l0,0.1c-0.2,0.1-1.3,1.2-1.4,1.3L28,84l0,0l0,0.1c-0.1,0-0.1,0-0.2-0.1
			c-0.8,1.4-2,2.6-3.2,3.7c-0.8,0.7-1.5,1.4-2.1,2.2c-0.7,1-1.4,1.7-2.1,2.4c-0.3,0.3-0.6,0.6-0.9,0.9c-0.5,0.5-1.1,1.2-1.7,1.9
			c-2.4,2.6-3.2,3.5-3.5,3.5c-0.1,0-0.1,0-0.2-0.1l0-0.1c0.4-1.6,0.9-3,1.4-4.2l0.1-0.3c0.1-0.3,0.2-0.5,0.2-0.8
			c0.1-0.3,0.1-0.5,0.2-0.8c0.2-0.4,0.4-0.9,0.6-1.3c0.2-0.5,0.5-1,0.7-1.5c0.1-0.2,0.1-0.4,0.2-0.6c0.1-0.3,0.2-0.6,0.3-1
			c0.1-0.1,0.1-0.3,0.2-0.4c0.1-0.2,0.3-0.5,0.3-0.7c0-0.1,0-0.2,0-0.3l0.1-0.2c0.5,0,1.3-2.4,1.7-4c0.2-0.5,0.3-1,0.5-1.5
			c0.2-0.6,0.4-1.3,0.6-2c0.4-1.4,0.9-2.8,1.4-3.9v-0.4c0-0.9,0.2-1.2,0.4-1.6c0.1-0.1,0.1-0.2,0.2-0.4c0.3-2,0.6-3.9,0.6-6.2
			c0-1.5-0.1-2.5-0.4-3.2c-0.2-0.4-0.7-1-1.4-1.6L22,61.6c-0.2-0.3-0.2-0.4-0.2-0.5c0-0.1,0-0.2-0.5-0.4c-1.5-1-3.1-1.5-4.5-1.5
			c-2.4,0-4.3,0.9-6.2,2l-0.2,0.1c-1.5,0.8-2.9,1.5-3.8,2.5l-0.1,0C6,64,5.6,64.3,5.3,64.6c-0.4,0.4-0.8,0.8-1.5,0.9
			c0,0,0,0.1,0,0.1c0,0.2-0.2,0.2-0.3,0.3c-0.1,0-0.2,0-0.3,0.1c-0.1,0.2-0.4,0.6-0.7,0.9c-0.4,0.6-0.6,0.9-0.7,0.9
			c-0.2,0.2-0.4,0.4-0.6,0.6C0.5,69.1,0,69.6,0,70.1c0,0.6,0.8,2.1,1.7,2.1c0.4,0,1-0.1,1-0.3c0-0.3-0.1-0.4-0.3-0.5
			c-0.1-0.1-0.3-0.3-0.3-0.6c0-0.1,0-0.1,0-0.2l0-0.1c1.3-1.9,2.9-3.2,4.6-4.6L7,65.8c1.3-1.1,1.8-1.3,2.4-1.7l0.2-0.1
			C9.7,64,9.8,64,10,63.9c0.2,0,0.3-0.1,0.5-0.2c0,0,0-0.1,0-0.1c0-0.1,0-0.1,0.1-0.2c0.8-0.7,1.6-1,2.3-1.2
			c0.2-0.1,0.5-0.2,0.7-0.2c1.3-0.6,2.6-1.1,4-1.1c2.7,0,4.7,1.7,4.7,4.2c0,3.4-1.2,8.5-2,10.8c-0.4,1.5-1,3.5-1.5,5
			c-0.1,0.2-0.2,0.4-0.3,0.6c-0.1,0.1-0.1,0.2-0.2,0.4c-0.2,0.5-0.3,1-0.5,1.4c-0.1,0.5-0.3,1-0.5,1.4l0,0c0,0-0.1,0.1-0.2,0.1
			c0,0-0.1,0.1-0.1,0.1c-0.7,2.1-1.5,4.1-2.3,6c-0.7,1.7-1.4,3.3-1.9,5c-0.5,1.2-1,2.8-1,4.1c0,0.6,0.9,2,1.8,2c0.7,0,1.1-0.9,1.1-1
			l0-0.1c1.1-1.4,2.1-2.5,2.9-3.4c0.6-0.7,1.1-1.2,1.5-1.7c0.1-0.2,0.3-0.4,0.4-0.6c0.3-0.4,0.6-0.9,0.9-1c0.6-0.3,1-0.9,1.4-1.5
			c0.2-0.3,0.4-0.6,0.6-0.8c0.7-0.8,1.5-1.6,2.4-2.4c1.1-1.1,2.3-2.2,3.1-3.4c0.1-0.2,0.4-0.4,0.6-0.5c0.1-0.1,0.3-0.2,0.4-0.3
			c0,0,0-0.1,0-0.2c0-0.1,0-0.2,0.1-0.3l0,0c0.1,0,0.1,0,0.2-0.1c0.1,0,0.2,0,0.3-0.1c0.1-0.1,0.2-0.2,0.3-0.3
			c0.7-0.7,1.4-1.4,1.8-2.3l0.1-0.1c0.4-0.1,0.6-0.4,0.9-0.7c0.1-0.1,0.2-0.3,0.4-0.4c0.1-0.1,0.3-0.2,0.4-0.3
			c0.3-0.2,0.6-0.4,0.8-0.7c0.2-0.3,0.5-0.6,0.7-0.9c0.1-0.1,0.3-0.2,0.4-0.4c0.5-0.6,1-1.1,1.7-1.8c0.3-0.2,0.5-0.5,0.7-0.7
			c0.4-0.4,0.7-0.8,1.2-1.1l0.1,0c0.1,0,0.1-0.1,0.1-0.3c0-0.2,0.1-0.4,0.3-0.4c0.4-0.2,0.6-0.5,0.9-0.8c0.1-0.2,0.3-0.4,0.5-0.5
			c0.5-0.5,0.9-0.9,1.4-1.4c0.1-0.1,0.2-0.1,0.4-0.1c0.1,0,0.1,0,0.1,0c0.3-0.3,0.6-0.7,0.9-1c0.3-0.3,0.5-0.6,0.7-0.8
			c0.1-0.1,0.2-0.2,0.4-0.3c0.2-0.1,0.4-0.3,0.5-0.3l0-0.2c0-0.2,0.1-0.2,0.2-0.2c0.1,0,0.1,0,0.2,0c0,0,0,0,0,0
			c0.5,0,1.1-1.1,1.3-1.5l0.1-0.1c0.1,0,0.1,0,0.2,0c0,0,0,0,0,0c0-0.2,0.1-0.3,0.3-0.3h0.2c0,0,0,0,0,0c0-0.1,0-0.1,0.1-0.2
			c0.3-0.3,0.6-0.5,0.8-0.8c0.3-0.3,0.6-0.6,1.1-1c0.1-0.1,0.2-0.1,0.3-0.1c0.1,0,0.1,0,0.1,0c0.2-0.2,0.4-0.4,0.5-0.6
			c0.2-0.3,0.3-0.5,0.7-0.7l0,0c0.3,0,0.5-0.2,0.7-0.5c0.1-0.2,0.3-0.3,0.5-0.5C53,62,54.1,61.4,55,61c0.5-0.3,1.1-0.5,1.3-0.7
			c0,0,0,0,0,0c0-0.1,0-0.1,0-0.1c0-0.2,0.3-0.3,0.4-0.3c0.2,0,0.3,0,0.4,0.1c0.2,0.2,0.2,0.5,0.2,0.7c0,0,0,0.1,0,0.1
			c0,1.5-0.6,3.1-1,4.2c-0.1,0.2-0.1,0.4-0.2,0.5c-0.3,0.8-0.5,1.5-0.8,2.2c-0.2,0.6-0.4,1.2-0.6,1.9c-0.1,0.2-0.1,0.4-0.1,0.5
			c0,0.2,0,0.5-0.3,0.5c-0.2,0.3-1,2.5-1.7,4.3c-0.5,1.4-1,2.9-1.4,3.7c0,0.1-0.1,0.3-0.2,0.4c-0.1,0.2-0.2,0.3-0.2,0.5
			c-0.1,0.2-0.1,0.4-0.2,0.6c0,0.2-0.1,0.4-0.2,0.6c-0.2,0.9-0.6,1.7-0.8,2.4c-0.2,0.4-0.3,0.8-0.4,1.1c-0.2,0.5-0.3,1-0.5,1.5
			c-0.9,2.8-2.1,6.4-2.1,9.7c0,0.4,0,0.7,0,1.1c0,0.2-0.1,0.2-0.1,0.3c0,0.1-0.1,0.1-0.1,0.2c0,3,0.8,5.5,2.5,7.5
			c0.1,0.1,0.3,0.3,0.4,0.4c0.4,0.4,0.7,0.7,0.8,1.3c0.6,0.1,1.3,0.6,2,1.1c0.2,0.1,0.4,0.3,0.5,0.4c0.1,0,0.2,0.1,0.3,0.1
			c0.1,0,0.2,0,0.3,0.1c0.2,0.1,0.4,0.2,0.6,0.3c0.2,0.1,0.4,0.2,0.6,0.3c0.3,0.1,0.6,0.1,0.9,0.1c0.3,0,0.5,0,0.8,0.1
			c0.1,0,0.1,0,0.2,0c0.2,0.1,0.6,0.1,0.8,0.1c0.4,0,0.4-0.2,0.4-0.2C57.4,108.6,57.3,108.6,57.1,108.5z"/>
		<path fill="#FFFFFF" d="M67.8,81.1c0.1-0.1,0.2-0.2,0.3-0.3c0.2-0.1,0.3-0.2,0.3-0.4c0-0.6-1.6-1.4-2.4-1.4c-0.2,0-0.3,0-0.5,0.1
			c0,1.2,0.9,1.5,1.8,1.9C67.6,81,67.7,81.1,67.8,81.1z"/>
		<path fill="#FFFFFF" d="M98.3,86l-1,1.1l-0.1,0h-0.4c0,0-0.1,0.1-0.1,0.2c-0.1,0.1-0.1,0.2-0.2,0.3c-0.1,0.1-0.3,0.2-0.4,0.3
			c-0.1,0.1-0.2,0.1-0.3,0.2c-0.2,0.1-0.3,0.3-0.4,0.4c-0.1,0.1-0.1,0.2-0.2,0.3C95.1,88.9,95,89,94.8,89c-0.1,0.1-0.3,0.2-0.4,0.3
			c-0.5,0.7-1.2,0.9-1.9,1.2c-0.4,0.2-0.9,0.3-1.4,0.6c-0.2,0.7-1,1-1.3,1.2c0,0-0.1,0-0.1,0l0-0.1l0,0.1c0,0,0,0-0.1,0
			c-0.1,0-0.1,0-0.2-0.1c0,0-0.1,0-0.1,0c-0.1,0-0.1,0-0.2,0.1c-1.4,1-2.4,1.6-4.3,2.2c-0.1,0.1-0.2,0.1-0.3,0.2
			c-0.3,0.2-0.5,0.4-1.1,0.4c-0.6,0-1.2,0.2-1.9,0.5c-0.7,0.3-1.5,0.6-2.3,0.6c-0.2,0-0.5,0-0.7,0c-0.2,0-0.5,0-0.8,0
			c-0.4,0-0.6-0.1-0.7-0.2C76.9,96,76.9,96,76.8,96l0,0c-1.6-0.5-1.9-1.4-1.9-2.6c0-3.2,2.4-5.9,3.6-7.2l0.1-0.1
			c0.8-0.9,1.8-1.8,3.2-1.8c0.8,0,1,1.3,1.1,2c0,0.1,0,0.2-0.1,0.4c0,0.1-0.1,0.2-0.1,0.4c0.1,0.1,0.2,0.2,0.2,0.3
			c0,0.2,0,0.4,0,0.6c0,0.2,0,0.3,0,0.5c0,0.3,0.1,0.6,0.4,0.8c0.2-0.1,0.5-0.1,0.7-0.2c0.1,0,0.3,0,0.3-0.1
			c0.3-0.2,0.5-0.6,0.5-1.4c0-1.3-0.5-2.9-0.7-3.2c-0.1-0.1-0.5-0.3-0.9-0.4c-0.3-0.1-0.5-0.2-0.6-0.3l0,0c-0.1-0.1-0.4-0.3-0.6-0.4
			c0,0-0.1,0-0.1-0.1l0,0l-0.1,0c0,0-1-0.1-1.4-0.1c-0.7,0-1.3,0.6-1.9,1.3c-0.5,0.5-0.9,1-1.4,1.2l-0.1,0.1
			c-0.1,0.1-0.2,0.3-0.3,0.4c-0.4,0.3-0.9,0.6-1.3,0.9c-0.6,0.4-1.2,0.8-1.7,1.3c-0.8,0.7-1.7,1.3-2.5,1.9c-1,0.7-2,1.4-2.8,2.2
			c-0.9,0.9-2.1,1.6-3.2,2.2c-0.4,0.2-0.8,0.5-1.1,0.7l-0.1,0h-0.3c0,0,0,0,0,0c0,0.1,0,0.2-0.2,0.3c-0.7,0.4-1.3,0.6-1.9,0.6
			c-0.1,0-0.2,0-0.3,0c-0.1,0-0.2,0-0.3,0c-0.5,0-0.9-0.1-0.9-1.2c0-0.9,0.2-1.9,0.6-3.1c0.1-0.2,0.2-0.4,0.4-0.5
			c0.1-0.2,0.3-0.3,0.3-0.5c0.2-0.4,0.3-1.1,0.3-1.4c0-0.1,0-0.1,0-0.2c0,0,0-0.1,0-0.2c0-0.2,0.2-0.3,0.3-0.4
			c0.1-0.1,0.2-0.1,0.2-0.2c0.1-0.4,0.3-0.7,0.4-1c0.2-0.5,0.4-1,0.6-1.5c-0.1-0.1-0.2-0.2-0.3-0.4c-0.3-0.3-0.5-0.6-0.9-0.6
			c-0.5,0-1.2,1.9-1.5,2.9c-0.2,0.5-0.3,0.8-0.4,1c0,0.1-0.1,0.1-0.2,0.1c-0.1,0-0.1,0-0.1,0.1c0,0,0,0.1,0,0.1c0,0,0,0.1,0,0.2
			c0,0.1-0.1,0.2-0.2,0.6c-0.1,0.2-0.2,0.5-0.3,0.7c-0.4,1.1-1,2.6-1,4c0,1.5,0.9,3,3.3,3c0.8,0,1.5-0.4,2.2-0.8
			c0.3-0.2,0.5-0.3,0.8-0.5c1.8-1.2,3.2-2.2,4.6-3.3c0.6-0.5,1.1-0.8,1.6-1.2c1.4-1.1,2.5-1.9,3.5-3.1l0.1,0c0.3,0,0.5-0.1,0.6-0.3
			c-0.1,0.2-0.2,0.3-0.3,0.4c-0.1,0.2-0.2,0.3-0.2,0.6v0.4l0,0.1c-0.7,0.7-0.7,1.8-0.7,2.3c0,0.8,0.1,2.3,1,3.1
			c0.1,0.1,0.1,0.2,0.1,0.2c0,0.1,0,0.2,0.1,0.2c1.1,1.1,3.2,1.2,3.9,1.2c1.4,0,2.6-0.4,3.1-0.6c0.2-0.1,0.2-0.1,0.3-0.1l0,0
			c2.9-0.7,4.5-1.6,6.6-3c0.6-0.4,0.9-0.5,1.2-0.6c0.2-0.1,0.4-0.2,0.7-0.3c0.4-0.4,0.7-0.6,1.1-0.8c0.3-0.2,0.7-0.3,1-0.6
			c1.6-0.9,4.9-3,6.5-5l-0.3-0.4L98.3,86z"/>
		<path fill="#FFFFFF" d="M167.8,75.1c0.2-0.5,0.4-1.1,0.6-1.7c0.3-1,0.7-2,1.2-2.7c0-0.1,0.1-0.3,0.1-0.4c0.2-0.7,0.5-1.8,0.5-2.3
			l0-0.1c0.5-1.6,0.8-3.2,0.8-4.3c0-0.2-0.1-0.5-0.2-0.7c-0.1-0.2-0.1-0.4-0.1-0.6V62c-0.3-1.2-1.9-1.9-2.7-1.9
			c-0.7,0-0.8,0.2-1.1,0.7c-0.1,0.2-0.2,0.4-0.4,0.7l-0.1,0c-0.3,0.1-0.5,0.4-0.5,0.8c0,0.5,0.2,0.7,0.7,0.7c0.4,0,0.4-0.2,0.5-0.3
			c0-0.1,0.1-0.3,0.3-0.3c0.1,0,0.1-0.1,0.2-0.2c0.1-0.1,0.2-0.3,0.5-0.3h0.1c0.2-0.5,0.5-0.6,0.8-0.6l0.1,0c0.4,0.5,0.6,1,0.6,1.8
			c0,1-0.2,2.2-0.4,3.2c-0.1,0.5-0.2,1-0.2,1.4l0,0c-0.1,0.3-0.2,0.6-0.3,0.9c-0.2,0.5-0.3,1.1-0.7,1.7c-0.2,0.6-0.4,0.9-0.5,1.2
			c-0.1,0.2-0.2,0.3-0.2,0.5c0,0.1,0,0.2-0.1,0.3c0,0.2-0.1,0.4-0.2,0.6c-0.1,0.2-0.2,0.4-0.3,0.7c-0.3,0.5-0.6,1-0.6,1.5
			c0,0,0,0.1,0,0.1l-0.1,0.2H166c-0.1,0-0.7,0.5-2.4,4.6c-0.1,0.1-0.1,0.2-0.1,0.3c-0.2,0.3-0.3,0.5-0.5,0.7
			c-0.3,0.4-0.6,0.8-0.6,1.2l-0.1,0.1c-0.7,0.3-1.1,1-1.4,1.7c-0.1,0.3-0.3,0.5-0.4,0.7c-0.3,0.3-0.5,0.7-0.7,1.1l0,0.1
			c-0.6,0.5-1.9,1.8-1.9,1.9l-0.1-0.1l0,0.1c-0.2,0.1-0.2,0.2-0.2,0.3c0,0.1-0.1,0.3-0.2,0.4c-0.2,0.2-0.3,0.2-0.4,0.3
			c0,0-0.1,0.1-0.1,0.1c-0.9,1-1.6,1.9-1.7,2.2L155,91c-0.4,0.1-1.1,0.8-1.3,1.3c-0.1,0.2-0.3,0.4-0.6,0.7c-0.1,0.1-0.2,0.2-0.2,0.2
			l0,0l0,0.1c-1.6,1.6-3.5,3.1-5.2,4.4c-0.4,0.3-0.7,0.6-1.1,0.8c-2,1.6-3.9,1.9-4.9,2.1l-0.1,0c-0.1,0-0.3,0.1-0.4,0.1
			c-0.3,0.1-0.5,0.2-0.7,0.2c-0.1,0-0.2,0-0.3-0.1c-1.4-0.2-1.8-0.8-2.2-1.3c-0.1-0.2-0.2-0.3-0.4-0.4l0,0c-0.4-0.7-0.8-2.5-0.8-3.7
			c0-0.2,0-0.4,0.1-0.6c0-0.1,0-0.2,0.1-0.3c0,0-0.1,0-0.1-0.1l0.1-0.2h0c0-0.1,0-0.1-0.1-0.1l0-0.1c0-0.2,0.1-0.4,0.1-0.6
			c0-0.2,0.1-0.4,0.1-0.6c0,0,0-0.1,0-0.2v-0.1c0.6-3,1.3-5.6,1.8-7.3l0,0c0.3-0.4,0.5-1,0.7-1.6c0.3-0.8,0.6-1.8,1.3-2.4
			c0.3-1,1.1-1.9,1.7-2.7c0.3-0.4,0.6-0.7,0.7-1c0.5-0.9,1.4-2.3,1.8-2.9c0.1-0.2,0.2-0.3,0.2-0.4c0.2-0.4,0.5-0.8,0.7-1.3
			c1.4-2.5,2.9-5.3,3.5-7.9c-0.2-0.4-0.9-0.8-1.5-0.8c-1.1,0-2.3,2.7-2.8,3.7c-0.1,0.2-0.2,0.3-0.2,0.4c0,0.1-0.1,0.1-0.2,0.1
			c0,0,0,0,0,0l-0.1,0.1c-0.5,1-0.6,1.2-0.7,1.2c-0.6,0.9-1,1.8-1.3,2.6c-0.2,0.5-0.3,0.9-0.5,1.2c-0.1,0.1-0.2,0.3-0.3,0.4
			c-0.2,0.3-0.4,0.6-0.4,0.8c0,0,0,0.1,0,0.1c0,0.1-0.1,0.2-0.2,0.4c-0.2,0.4-0.5,0.9-0.5,1.4l0,0.1c-0.1,0.2-0.3,0.4-0.4,0.6
			c-0.2,0.2-0.3,0.4-0.4,0.6v0.2c0,0.5-0.3,1-0.7,1.2c-0.2,1.3-0.7,2.4-0.9,2.6l-0.1,0c0,0-0.1,0-0.1,0c-0.1,0.3-0.3,0.5-0.6,0.6
			c-0.1,0.1-0.2,0.3-0.3,0.4c-0.1,0.2-0.1,0.3-0.2,0.4c-0.1,0.1-0.2,0.1-0.3,0.1c0,0-0.1,0.1-0.1,0.1l0,0c-0.4,0.3-0.8,1-0.9,1.1
			l-0.1,0l0,0l0.1,0.1c-0.1,0.1-0.3,0.3-0.4,0.4c-0.4,0.4-0.7,0.7-0.9,1.1l0,0c-0.3,0.2-0.7,0.6-1,0.9c-0.6,0.6-0.8,0.7-0.9,0.7
			c0,0-0.1,0-0.1,0.2c0,0.1,0,0.2-0.1,0.3c-2.4,2.4-2.8,2.6-2.9,2.6c0,0.1-0.1,0.1-0.2,0.2c0,0.1-0.2,0.1-0.3,0.1
			c-0.1,0.1-0.2,0.3-0.3,0.4c-0.3,0.3-0.6,0.7-0.7,0.9l-0.1,0.1c-0.4,0.1-1,0.7-1.2,1v0c0,0.2-0.2,0.3-0.5,0.4
			c-0.2,0.1-0.3,0.2-0.4,0.3c-0.1,0.1-0.1,0.2-0.2,0.3c-0.2,0.3-0.3,0.5-0.6,0.5h-0.3c0,0,0,0,0,0v0.2l-0.1,0.1
			c-0.2,0-0.3,0.1-0.4,0.3c-0.1,0.2-0.3,0.4-0.5,0.5l-0.1,0c-0.1,0-0.1,0-0.1-0.1c-0.2,0.3-0.7,0.8-0.8,0.9
			c-0.7,0.2-1.7,1.2-2.4,1.9c-0.3,0.3-0.5,0.5-0.6,0.6c0,0.1-0.2,0.1-0.3,0.1c-0.1,0-0.2,0-0.2,0c0,0,0,0,0,0c0,0,0,0.1,0,0.2
			c0,0.3-0.5,0.4-0.8,0.4c-0.5,0.3-1,0.7-1.4,1c-0.4,0.4-0.8,0.6-1,0.7l0,0c-0.5,0-0.9,0.3-1.2,0.6c-0.3,0.2-0.6,0.5-1,0.5
			c-0.1,0-0.2,0-0.3-0.1c0,0,0,0,0,0c0,0,0,0.2-0.1,0.2c-0.6,0.2-1,0.2-1.4,0.2c-0.4,0-0.8,0-1.2-0.1l-0.1,0c-0.8-0.7-1-1.6-1-2.4
			c0-4.5,1.7-9.5,3.1-14c0.5-1.6,1-3,1.4-4.4c0.1-0.3,0.1-0.6,0.2-1c0-0.1,0-0.2,0-0.3l0-0.1c0.2-0.3,0.7-0.8,0.7-1.2
			c0-0.1,0-0.1,0-0.2c0-0.1,0-0.1,0-0.2c0-0.2,0.1-0.3,0.3-0.4c0.1-0.1,0.1-0.1,0.2-0.2c0.1-0.4,0.2-0.8,0.3-1.2
			c0.1-0.4,0.2-0.9,0.3-1.3c0-0.2,0.1-0.4,0.3-0.6l0.1-0.1c0-0.2,0.1-0.4,0.1-0.6c0.1-0.6,0.2-1.1,0.5-1.4c0.2-0.4,0.3-0.9,0.4-1.3
			c0-0.2,0.1-0.3,0.1-0.5c0-0.1,0.1-0.2,0.2-0.3c0.1-0.1,0.1-0.1,0.1-0.2l0,0c0.2-0.6,0.4-1.1,0.5-1.7c0.1-0.4,0.2-0.7,0.3-1.1
			l0.1-0.2c0.1-0.3,0.3-0.7,0.3-1c0,0,0,0,0-0.1c0,0,0-0.1,0-0.2c0-0.1,0.1-0.1,0.2-0.2c0.1-0.2,0.1-0.5,0.2-0.8
			c0.1-0.6,0.3-1.2,0.6-1.8v0c0,0,0-0.1,0-0.1c0,0-0.1-0.1-0.1-0.1c0-0.3,0.1-0.6,0.3-1c0.1-0.2,0.2-0.4,0.2-0.6
			c0.2-0.6,0.3-1.2,0.4-1.9c0-0.3,0.1-0.6,0.1-0.9c0.1-0.5,0.2-0.9,0.3-1.2c0.2-0.8,0.4-1.5,0.4-2.2c-0.2-1.7-1.4-2.8-3.1-2.8
			c-0.6,0-1.7,0.3-2.6,0.7c-2.1,0.9-3.6,1.9-3.7,2l0,0l-0.1,0.1c-0.1,0-0.1,0-0.1,0.1v0.1l-0.1,0.1c-0.5,0-1.7,0.9-2.1,1.3l0,0.1
			c-0.2,0.1-0.3,0.3-0.6,0.5l-0.1,0.1c-3.1,2.5-6.2,5.5-6.2,9.4c0.1,1.2,0.3,1.4,0.4,1.5l0.1,0.1c0.4,1.5,1.8,2.2,2.3,2.3
			c0,0,0,0,0-0.1c0,0,0,0,0,0c0-0.3-0.2-0.5-0.3-0.6c-0.1-0.1-0.3-0.2-0.4-0.4c-0.1-0.2-0.2-0.4-0.3-0.6c-0.2-0.3-0.4-0.6-0.4-1.1
			c0-0.1,0-0.2,0-0.3c0-0.1,0-0.2,0-0.2c0-0.2-0.1-0.4-0.2-0.5l0-0.1c0.3-0.5,0.5-1.6,0.5-2.2l0-0.1c0.1-0.1,0.2-0.2,0.3-0.2
			c0.1,0,0.1-0.1,0.1-0.2v-0.4l0-0.1c0.3-0.4,0.7-0.9,1.1-1.4c0.5-0.6,1.1-1.2,1.4-1.9l0.1-0.1h0.2c0.1-0.1,0.6-0.6,0.9-0.9
			c0.3-0.4,0.4-0.4,0.5-0.5c0.4-0.3,0.7-0.6,0.9-1.1l0.1-0.1c0.7-0.3,1.4-0.8,2-1.3c0.5-0.4,1-0.8,1.5-1.1c0.5-0.2,1-0.5,1.5-0.7
			c1.4-0.7,2.8-1.4,4.1-1.4c0.3,0,0.6,0.1,0.7,0.2c0.2,0.2,0.2,0.6,0.2,1.1v0.1c0,0.2,0,0.4,0,0.6c0,0.2,0,0.4,0,0.5
			c0,0.1,0,0.2,0,0.3c0,0.1,0,0.2,0,0.3l0,0.1c-0.4,0.4-0.5,1-0.6,1.7c0,0.2,0,0.3-0.1,0.5c-0.4,1.9-0.9,3.6-1.5,5.2L118,66
			c-0.5,1.6-1.1,3.3-1.6,5c-0.9,2.7-1.9,5.4-2.4,7.8c-0.1,0.3-0.2,0.7-0.3,1c-0.1,0.5-0.2,0.9-0.5,1.3c-0.3,0.9-0.5,1.7-0.8,2.4
			c-0.2,0.5-0.3,1-0.5,1.5c0,0.3-0.2,0.8-0.4,1.3c-0.2,0.4-0.3,0.9-0.3,1h0c0,0,0,0-0.1,0l0.1,0.2l-0.4,0.8c0,0,0,0,0,0.1
			c0,0.1,0.1,0.1,0.1,0.2c0,0.4-0.2,0.8-0.4,1.2c-0.2,0.4-0.4,0.9-0.5,1.4c-0.5,1.4-0.8,2.8-1.1,4c-0.2,0.8-0.4,1.5-0.6,2.2l0,0.1
			c0,0,0,0.1,0.1,0.1l0,0.1c0,0.2-0.1,0.4-0.2,0.5c-0.1,0.2-0.2,0.5-0.2,0.7c0,0.1,0,0.1,0,0.2c0,0,0,0.1,0,0.2c0,0.3,0,0.5-0.1,0.7
			c0,0.2-0.1,0.3-0.1,0.5c0,0.3,0,0.4,0.2,0.5l0,0l0,0c0,0.1,0,0.1,0,0.2c0,0.1-0.1,0.2-0.1,0.3c0,0,0,0,0,0c0,0,0,0,0,0
			c0,0,0.2,0,0.2,0.2l0,0.1c-0.1,0.1-0.1,0.1-0.1,0.2c0,0,0,0,0,0v0.1c0,0.4,0.5,1.1,0.6,1.1l-0.1,0.1c0,0,0,0,0,0h0.1c0,0,0,0,0,0
			h0c0,0,0,0,0,0l0.1,0.1c0.5,0.9,2.8,1.7,3.5,1.7c1.7,0,4.4-1.6,4.5-1.7c0.2-0.2,0.5-0.4,0.8-0.6c0.4-0.3,0.5-0.4,0.6-0.4
			c0,0,0.1,0,0.1,0c0,0,0-0.1,0.1-0.1c0.1-0.1,0.3-0.2,0.6-0.4c0.7-0.4,2.4-1.5,2.5-1.7c0,0,0-0.1,0-0.1c0-0.2,0.3-0.5,1.1-0.8
			c0,0,0.1,0,0.1,0l0.1,0c0.1,0,0.4-0.4,0.5-0.6c0.1-0.2,0.2-0.3,0.3-0.3c0,0,0,0,0.1,0c0.5-0.3,0.9-0.7,1.3-1.1
			c0.2-0.2,0.4-0.3,0.6-0.5c0.3-0.3,0.6-0.5,0.9-0.7c0.5-0.3,0.8-0.6,1.2-1.2l0,0c0.5-0.4,1-0.9,1-1l0.1,0.1l0,0c0,0,0,0,0,0v-0.1
			h0.1c0,0,0-0.1,0-0.1l0.1,0l0-0.1c0.2-0.1,1.9-1.7,2.2-1.9c0.9-0.7,1.7-1.6,2.5-2.5c0.7-0.7,1.2-1.3,1.6-1.6
			c0.1-0.1,0.1-0.2,0.1-0.3c0-0.1,0.1-0.2,0.1-0.3l0.1,0c0.1,0,0.1,0,0.2,0.1c0,0,0.1,0.1,0.1,0.1c0,0,0-0.1,0-0.1
			c0-0.1,0.1-0.3,0.2-0.4l0,0c0.1,0,0.2,0,0.2-0.1c0.1-0.1,0.1-0.1,0.3-0.1c0.1,0,0.1,0,0.2,0.1l0,0.1c-0.2,0.7-0.3,1.3-0.5,1.9
			c-0.4,1.6-0.9,3.1-0.9,4.8v1.7l0,0.1c0,0-0.1,0.1-0.1,0.2c0,0,0,0,0,0c0,0.1,0.1,0.2,0.1,0.4v0.7c0,0.1,0,0.2,0.1,0.3
			c0.1,0.2,0.1,0.4,0.1,0.6c0,0.1-0.1,0.2-0.1,0.2c0,0,0,0.1,0,0.1c0,0.3,0.3,0.8,0.6,1.2c0.2,0.2,0.3,0.4,0.4,0.6
			c1.6,2.3,3.5,2.6,5,2.6c0.6,0,1.5-0.3,1.9-0.5l0.1,0c0.5,0,2.2-0.5,3.2-1.5c0.1-0.1,0.3-0.1,0.4-0.1c0.1,0,0.2,0,0.3-0.1
			c0.4-0.2,0.9-0.7,1.4-1.2c0.8-0.7,1.2-1,1.3-1c0.1,0,0.1,0,0.2,0c0,0,0.1,0,0.1,0c0.3,0,0.8-0.8,0.9-1l0.1,0l-0.1-0.1
			c0.1-0.2,0.3-0.3,0.4-0.4c0.2-0.2,0.4-0.3,0.4-0.5v-0.1l0.1-0.1h0.2c0.2,0,1.4-1.1,2.8-2.6c0.9-0.9,1.8-2,2.7-2.9
			c0.5-0.6,1-1.3,1.5-1.7c0.1-0.3,0.7-0.9,1.2-1.4c0.1-0.1,0.1-0.1,0.2-0.2c0.3-0.8,0.6-1.1,1.4-1.8c0.1-0.1,0.2-0.5,0.4-0.7
			c0.2-0.4,0.2-0.6,0.3-0.6c0.1-0.1,0.3-0.2,0.4-0.3c0,0,0,0,0.1,0c0.5-0.9,1.1-1.9,1.8-2.9C166,78.3,167.1,76.7,167.8,75.1z"/>
		<path fill="#FFFFFF" d="M247.7,72L247.7,72c0-0.1-0.2-0.1-0.2-0.1c-0.1,0-0.1,0-0.1,0.1l-0.2,0.1c-0.1-0.1-0.3-0.1-0.3-0.2
			c-0.3-0.2-0.5-0.3-1.4-0.3c-0.7,0-1.2,0.1-1.6,0.2c-0.2,0-0.4,0.1-0.5,0.1c0,0,0,0,0,0c-0.2,0-0.3-0.1-0.5-0.1
			c-0.1,0-0.2-0.1-0.3-0.1c-0.3,0-0.6,0.1-0.9,0.1c-0.7,0.1-1.4,0.2-2.1,0.2h-0.8c-0.6,0-1.2,0.1-1.8,0.2c-0.7,0.1-1.3,0.2-2.2,0.2
			c-1,0-2,0.1-3.1,0.2c-1,0.1-2.1,0.2-3.2,0.2c-1.2,0-2-0.1-2.8-0.2l-0.1-0.2c0.7-1.5,0.8-1.8,0.8-1.9c0-0.1,0-0.1,0.1-0.2
			c0,0,0.1-0.1,0.2-0.3l0.1-0.1c0.5-0.8,0.7-1.2,0.8-2l0.1-0.1c0.3-0.2,0.4-0.5,0.5-0.8c0.1-0.2,0.1-0.3,0.2-0.5
			c0.4-0.8,0.9-1.4,1.3-2c0.5-0.7,1-1.4,1-1.8v-0.1c0,0-0.1-0.1-0.1-0.1c-0.1-0.1-0.2-0.2-0.4-0.2H230l-0.1-0.1
			c-0.1-0.2-0.2-0.4-0.5-0.4c-0.5,0-0.5,0.2-0.5,0.4c0,0.1,0,0.4-0.3,0.4h-0.2c-0.1,0.1-0.3,0.6-0.4,0.7c-0.1,0.2-0.1,0.2-0.1,0.2
			c-0.1,0.1-0.9,1.3-1.4,2c-0.4,0.6-0.5,0.7-0.5,0.7c-0.1,0.2-0.3,0.4-0.4,0.6c-0.6,0.9-1.3,1.9-1.3,2.4c0,0.1,0.1,0.2,0.2,0.4l0,0
			l-0.1,0.2c-0.1,0-0.3-0.1-0.3-0.1c-0.5,0-1,1-1.5,1.8c-0.4,0.8-0.7,1.2-0.9,1.3l-0.1,0c-0.4-0.1-0.9-0.1-1.5-0.1h-2
			c-0.8,0-1.5-0.1-2.2-0.2c-0.4-0.1-0.9-0.2-1.3-0.2c-0.3,0-0.6,0-0.9-0.1c-1,0-2-0.1-2.5-0.8l0-0.1c0.2-0.3,0.3-0.6,0.5-0.9
			c0.6-1.2,1.2-2.4,1.6-3.9c-0.1-0.1-0.2-0.2-0.2-0.3c-0.1-0.2-0.2-0.4-0.6-0.4c-0.2,0-0.4,0-0.5-0.1c-0.1,0.3-0.3,0.5-0.4,0.7
			c-0.2,0.2-0.3,0.4-0.4,0.6l-0.1,0.1c0,0-0.1,0-0.1,0c0,0,0,0,0.1,0.1c0.1,0.1,0.2,0.2,0.2,0.3c0,0.1,0,0.2-0.2,0.2
			c-0.1,0-0.2,0-0.2,0c0,0,0,0.1,0,0.2c0,0.1,0,0.3-0.1,0.4c-0.1,0.2-0.2,0.3-0.3,0.4c-0.2,0.1-0.3,0.2-0.3,0.6c0,0.1,0,0.3,0,0.4
			l0,0.1c-0.3,0.2-0.4,0.5-0.6,0.8c-0.2,0.4-0.5,0.9-1,1l-0.1,0c-0.8-0.2-1.7-0.3-2.5-0.4c-0.6-0.1-1.2-0.1-1.7-0.2l-0.1,0
			c-0.4-0.4-1.3-0.5-2-0.6c-0.3,0-0.6-0.1-0.8-0.1c-1.3-0.2-2.6-0.3-4.1-0.5c-0.6-0.1-1.3-0.1-2-0.2c0,0,0,0,0,0
			c-0.2,0-0.4-0.1-0.6-0.2c-0.1-0.1-0.3-0.1-0.4-0.1c-0.4,0-1.2,0.1-1.7,0.2c-0.3,0-0.4,0.1-0.4,0.1c-0.1,0-0.2-0.1-0.3-0.1
			c-3.6,0.1-8,0.8-9.2,2l-0.1,0c-0.1,0-0.1,0-0.2,0c-0.3,0-0.5,0.1-0.7,0.3c-0.1,0.1-0.2,0.1-0.4,0.2c-1,0.4-2.2,0.9-2.9,1.6
			c-0.2,0.2-0.4,0.4-0.6,0.5c-1.1,1-1.7,1.5-1.7,2.9c0,0.6,0.9,1.7,1.8,1.7c0.3,0,0.3-0.2,0.3-0.2c0-0.2-0.1-0.3-0.3-0.4
			c-0.2-0.2-0.4-0.4-0.4-0.8l0-0.1c0.8-1.3,1.8-2,2.9-2.7c0.3-0.2,0.6-0.4,0.9-0.6l0.1,0c0.4,0,0.7-0.2,1-0.4
			c0.3-0.2,0.6-0.4,1.2-0.4h0.1c0.7-0.5,2.1-1,2.7-1c0.1,0,0.2,0,0.2,0c0.2,0,0.3-0.1,0.5-0.2c0.2-0.1,0.3-0.2,0.6-0.2
			c2.1-0.4,4.3-0.6,6.4-0.6c4.1,0,8.8,0.7,14.3,2l0.1,0.2c-2.6,4.1-3.5,5.3-4.5,6.7c-0.4,0.6-0.9,1.2-1.5,2.1
			c-0.1,0.4-0.3,0.6-0.5,0.7c-0.2,0.2-0.3,0.3-0.4,0.6c-0.1,0.4-0.6,1-1.2,1.7c-0.2,0.3-0.4,0.5-0.6,0.7c0,0,0,0,0,0
			c0,0-0.1,0.1-0.2,0.1c-0.8,0.5-1.2,0.8-1.3,1l0,0v0l0,0.1c0,0-0.1,0.1-0.2,0.1h-0.2c0,0-0.1,0.2-0.1,0.2l0,0.1
			c-0.3,0.3-0.7,0.5-1.1,0.7c-0.2,0.1-0.4,0.4-0.6,0.5c-0.1,0.1-0.1,0.1-0.2,0.2c-0.4,0.4-0.7,0.5-1,0.6c-0.3,0.1-0.5,0.2-0.9,0.5
			c-1.6,1.3-3.2,2.2-4.7,2.8c-0.1,0.7-0.9,1-1.3,1h0c-0.2,0.8-2.2,1.5-3.4,1.5c-1.4,0-2-0.6-2-1.9c0-2.1,0.6-3.8,1.2-5.3
			c0.3-0.9,0.6-1.8,0.9-2.8c-0.1-0.1-0.3-0.2-0.4-0.3c-0.2-0.2-0.4-0.4-0.8-0.4c-0.1,0-0.2,0.1-0.4,0.1c-0.1,0.1-0.3,0.1-0.5,0.1
			c-0.1,0-0.3,0-0.4-0.2c-0.2,0.1-0.3,0.3-0.5,0.5c-0.3,0.4-0.7,0.9-1.4,1l-0.1-0.1c-0.1-1.5-0.8-2.2-1.5-2.9
			c-0.1-0.1-0.2-0.1-0.3-0.1c-0.1,0-0.3,0-0.4-0.1c-0.1-0.1-0.3-0.2-0.3-0.3c0,0-0.1-0.1-0.1-0.1c-0.6-0.2-1.2-0.2-1.5-0.2
			c-3.3,0-5.9,3.2-7.8,5.5c-0.4,0.4-0.7,0.9-1,1.2c0,0-0.1,0.1-0.1,0.1c0,0.2,0.1,0.3,0.1,0.5c0.1,0.1,0.1,0.2,0.1,0.3
			c0,0.2-0.1,0.2-0.2,0.3l-0.2-0.1c-0.1-0.1-0.1-0.2-0.2-0.2c0,0.1,0.1,0.1,0.1,0.1c0.1,0.1,0.1,0.2,0.1,0.3c0,0.3-0.1,0.5-0.3,0.5
			H166c-0.1,0-0.1,0-0.1,0.1c0,0,0,0.1,0,0.2l0,0.1c0,0,0.1,0,0.1,0c0.1,0,0.4,0,0.4,0.3c0,0.1,0,0.2-0.1,0.3l-0.1,0
			c-0.1,0-0.3,0-0.3,0c0,0-0.1,0-0.1,0c-0.2,0-0.3,0-0.5,0.1c-0.1,0-0.2,0.1-0.3,0.1c0,0.1,0.1,0.2,0.1,0.4c0,0.4-0.1,0.8-0.3,1.2
			c-0.2,0.5-0.4,1-0.4,1.7c0,1.4,1.6,2.2,2.8,2.2c0.9,0,1.3-0.3,1.9-0.7c0.1-0.1,0.2-0.2,0.4-0.3c0.3-0.1,0.5-0.2,0.7-0.3
			c0.1,0,0.1,0,0.2-0.1c0,0,0,0,0,0c0-0.1,0.1-0.2,0.2-0.2c0.4-0.3,0.8-0.6,1.2-0.8c1.5-1,2.4-1.6,3.2-2.7l0.1,0
			c0.4,0,0.8-0.4,1.1-0.7c0.1-0.1,0.1-0.1,0.2-0.2c0.5-0.5,1-0.9,1.5-1.3c0.7-0.6,1.3-1.1,1.9-1.8l0,0c0.4-0.2,0.7-0.5,1-0.7
			c0.3-0.2,0.5-0.5,0.9-0.7l0.2,0.2c-0.3,0.5-0.4,1.1-0.5,1.7c0,0.2-0.1,0.4-0.1,0.6c-0.1,0.3-0.2,0.6-0.3,0.9
			c-0.2,0.7-0.5,1.4-0.5,2.2c0,0.4,0.1,0.7,0.2,0.9c0.1,0.2,0.2,0.4,0.2,0.7c0,0.8,1.8,2.7,3.5,2.7c0.6,0,1-0.4,1.3-0.7
			c0.2-0.2,0.3-0.3,0.5-0.5l0.2,0.1c0,0.1,0,0.1,0,0.1c0,0,0.1,0,0.1,0h0.6c0.2-0.3,0.5-0.4,0.9-0.4c0.3-0.5,0.9-0.8,1.4-1.1
			c0.2-0.1,0.4-0.2,0.6-0.3c0,0,0.1-0.1,0.1-0.1c0.1-0.1,0.1-0.2,0.3-0.3c0.3-0.2,0.7-0.3,1-0.4c0.4-0.1,0.8-0.2,1.1-0.5
			c0.2-0.2,0.4-0.3,0.5-0.5c0.5-0.4,0.9-0.7,0.9-1.1l0.1-0.1c0.7,0,0.7-0.1,0.8-0.3c0.1-0.2,0.2-0.4,0.7-0.5c0-0.2,0.2-0.4,0.3-0.6
			c0.1-0.2,0.3-0.5,0.3-0.6l0.1-0.1c0.6,0,1.3-0.2,1.6-0.5c0,0.1,0,0.2,0.1,0.3l0-0.1c0.4-0.5,0.4-0.5,0.8-0.8l0.1-0.1
			c0,0,0.1-0.1,0.2-0.1c0.4-0.4,1-0.9,2.5-3.1c0.3-0.3,0.6-0.7,0.9-1.1c0.7-0.8,0.8-1,1-1c0.1,0,0.1,0,0.1,0l0.1,0.2
			c-0.3,0.9-0.8,2-1.2,3c-0.7,1.7-1.5,3.5-2,5.1c-0.1,0.4-0.2,0.8-0.3,1.2c0,0.1,0,0.3-0.1,0.4c-0.1,0.4-0.2,0.7-0.3,1
			c-0.2,0.6-0.4,1.2-0.4,2c0,0.2,0,0.3,0,0.3c0,0,0,0,0,0.1c0,0.1-0.1,0.2-0.2,0.2c0,0.3-0.1,0.6-0.1,0.8c0,1.7,0.6,3.4,1.3,3.9
			c0.2,0.1,0.4,0.3,0.6,0.4c0.4,0.3,0.8,0.6,1.4,0.6c0.5,0,3.1-1.4,3.1-1.7c0,0,0-0.1,0-0.1c0,0,0-0.1,0-0.1l0.1-0.1
			c0.2,0,0.7-0.3,0.8-0.4c0,0,0-0.1,0-0.1c0-0.1,0-0.1,0-0.1c0-0.2,0.2-0.2,0.4-0.3c0,0,0.1,0,0.1,0c1.3-1.3,3-3,4.2-4.3
			c0,0,0,0,0,0c0,0,0-0.1,0-0.1c0-0.1,0.1-0.2,0.2-0.2c0,0,0.1,0,0.1,0c0,0,0,0,0.1,0c0.1,0,0.6-0.7,0.9-1.2
			c0.3-0.4,0.6-0.9,0.8-1.1c0.1-0.1,0.2-0.2,0.3-0.3c0.2-0.3,0.4-0.6,0.8-0.6c0,0,0,0,0,0c0.1,0,0.1,0,0.2,0.1
			c0.1,0.1,0.1,0.3,0.1,0.4c0,0,0,0.1,0,0.1v1.7c0,0.5,0.1,2.7,0.4,3.3c0.1,0.2,0.2,0.4,0.2,0.6c0.3,0.7,0.6,1.4,0.7,2
			c0.4,0,0.6,0.3,0.8,0.6c0.2,0.2,0.3,0.4,0.4,0.4c0.1,0,0.2,0,0.2-0.2c0-0.1,0-0.2-0.1-0.3c-0.1-0.1-0.1-0.3-0.1-0.5
			c0-0.1,0-0.2,0.1-0.3c-1-1.2-1-3.4-1-5.2c0-2.4,0.3-4.2,0.9-5.4v-0.1c0,0,0-0.1,0-0.1c0-0.1,0-0.2,0-0.3c0-0.5,0.6-1.3,0.9-1.7
			c0.1-0.1,0.1-0.1,0.1-0.2c0,0-0.1-0.1-0.1-0.2c0-0.2,0.1-0.3,0.3-0.4c0.1-0.1,0.3-0.2,0.3-0.3c0,0,0-0.1,0-0.2l0.2-0.1
			c0,0,0,0,0,0c0-0.1,0.1-0.3,0.1-0.4c0-0.2,0.1-0.4,0.2-0.5c0.4-0.4,0.5-0.9,0.7-1.5c0.1-0.4,0.3-0.9,0.5-1.4l0,0
			c0.1-0.1,0.1-0.1,0.2-0.2c0.1-0.1,0.2-0.2,0.2-0.2l0,0c0.1-0.1,0.1-0.2,0.1-0.3c0-0.1,0.1-0.3,0.2-0.4c0.1-0.1,0.1-0.1,0.2-0.1
			c0.1,0,0.1,0,0.1-0.1c0-0.1,0-0.2,0.3-0.9c0.1-0.3,0.3-0.8,0.3-0.8c0-0.1,0.1-0.2,0.2-0.2c0.1-0.1,0.2-0.2,0.2-0.5l0-0.1
			c0.1-0.2,0.2-0.3,0.3-0.5c0.7-1.1,0.9-1.3,2.4-1.3c0.2,0,0.5,0,0.7,0.1c0.2,0,0.4,0.1,0.6,0.1c0.3,0,0.6-0.1,0.9-0.1
			c0.4-0.1,0.8-0.1,1.2-0.1c0.1,0,0.2,0,0.3,0.1c0.1,0,0.2,0,0.2,0c0.7,0,1.3-0.1,1.9-0.2c0.4-0.1,0.9-0.2,1.3-0.2
			c0.9-0.1,1.8-0.1,2.6-0.1c0.9,0,1.7,0,2.6-0.1c0.2,0,0.4-0.1,0.7-0.2c0.3-0.1,0.6-0.3,1-0.2c0,0,0,0,0,0c0.1,0,0.3,0,0.4,0.1
			c0.2,0,0.4,0.1,0.6,0.1c0.6,0,1.4-0.2,2.1-0.3c0.5-0.1,1.1-0.2,1.6-0.3l0.4,0c1.1-0.1,2.7-0.3,2.7-0.6
			C247.7,72.2,247.7,72.1,247.7,72z M175.8,89.7c-0.6,0.5-1.4,1.1-2.3,1.9c0,0,0,0.1-0.1,0.2c-0.1,0.1-0.1,0.2-0.1,0.3
			c-0.1,0.1-0.3,0.1-0.4,0.1c-0.1,0-0.2,0-0.3,0.1c-0.2,0.2-0.4,0.3-0.5,0.5c-0.1,0.1-0.2,0.2-0.3,0.3c-0.4,0.3-0.8,0.6-1.2,0.8
			c-0.6,0.4-1.3,0.7-1.8,1.5l-0.1,0.1h-0.1c-0.3,0-0.6,0.1-0.9,0.2c-0.3,0.1-0.6,0.2-1.1,0.2c-0.2,0-0.8,0-0.8-0.5
			c0-0.2,0-0.4,0.1-0.5h0c-0.1-0.1-0.1-0.2-0.1-0.3c0-0.4,0.3-0.8,0.6-1.2c0.4-0.6,1-1.4,1-2.5l0.1-0.1c0.7-0.4,1.1-1.1,1.6-1.8
			c0.5-0.8,0.9-1.6,1.8-2l0.1,0c0.1,0,0.1,0,0.2,0c0,0,0,0,0,0c0,0,0-0.1,0.1-0.2c0-0.1,0-0.2,0.1-0.3l0,0c0.2-0.1,0.4-0.3,0.6-0.5
			c0.6-0.6,1.4-1.3,2.5-1.5c0-0.1,0-0.1,0-0.1c0,0,0-0.1,0-0.1c0-0.2,0.2-0.2,0.3-0.2c0.3,0,0.4-0.1,0.4-0.2v0l0.2-0.1
			c0,0,0.2,0,0.2,0c0.2,0,0.3,0,0.5,0c0.2,0,0.5-0.1,0.8-0.1c0.6,0,1.6,0.5,1.6,1.9C178.3,87.8,177.6,88.4,175.8,89.7z M219.5,77.9
			c-0.3,0.6-0.7,1.3-1,2c-0.3,0.6-0.6,1.3-0.8,1.9c-0.1,0.3-0.2,0.6-0.3,0.8c-0.1,0.2-0.1,0.3-0.2,0.4c-0.4,0.7-0.7,1.5-0.8,2.3
			l0,0.1c-0.5,0.4-0.8,0.9-1,1.5l-0.1,0.1c-0.4,0-0.8,0.6-1.1,1c-0.1,0.2-0.2,0.3-0.3,0.4c-0.5,0.7-1,1.3-1.6,2l-0.3,0.3
			c0,0-0.1,0.1-0.1,0.1c-0.1,0-0.2,0.1-0.3,0.2c-0.4,0.9-1.2,1.6-1.9,2.4c-0.3,0.3-0.7,0.6-1,1c-0.1,0.1-0.2,0.3-0.3,0.4
			c-0.1,0.2-0.2,0.3-0.3,0.5c-0.1,0.1-1,1.1-1.2,1.3l-0.1,0h-0.2c0,0,0,0.1-0.1,0.1c-0.1,0.1-0.1,0.2-0.2,0.3
			c-0.2,0.2-2.5,2.6-4.3,2.6c-0.6,0-0.7-3-0.7-3c0-0.1,0-0.1,0.1-0.2c0-0.1,0.1-0.1,0.1-0.2V96c0-0.6,0.1-1.2,0.2-1.7
			c0.1-0.4,0.2-0.7,0.2-0.9c0.2-1.2,0.5-1.8,0.8-2.7c0.2-0.5,0.4-1.1,0.6-1.8c0.4-1.2,1.5-4.4,2.6-6.6c0,0,0-0.1,0-0.2
			c0-0.2,0-0.4,0.1-0.5c0-0.1,0.2-0.2,0.3-0.4c0.2-0.2,0.3-0.3,0.5-0.5c0.1-0.5,0.2-0.8,0.4-1.2c0.1-0.2,0.2-0.4,0.3-0.7
			c0.1-0.1,0.1-0.3,0.2-0.4c0.1-0.2,0.2-0.5,0.3-0.7c0-0.1,0.2-0.1,0.2-0.1c0,0,0,0,0,0c0,0,0-0.1,0-0.1c0-0.1,0-0.1,0-0.1
			c0-0.3,0.2-0.4,0.4-0.5c0,0,0.1-0.1,0.1-0.1c0.5-1.3,0.9-2.1,1.5-3.1l0.1-0.1c0.9,0.1,1.8,0.2,2.6,0.3c2.6,0.3,5,0.6,8,0.6
			l0.1,0.2C220.7,75.7,220.1,76.8,219.5,77.9z"/>
	</g>
</g>
<g id="MH">
</g>
</svg>
