<?xml version="1.0" encoding="utf-8"?>
<!-- Generator: Adobe Illustrator 18.1.1, SVG Export Plug-In . SVG Version: 6.00 Build 0)  -->
<svg version="1.1" xmlns="http://www.w3.org/2000/svg" xmlns:xlink="http://www.w3.org/1999/xlink" x="0px" y="0px"
	 viewBox="0 0 225.3 109.3" enable-background="new 0 0 225.3 109.3" xml:space="preserve">
<g id="BG" display="none">
	<rect x="-12.3" y="-5.4" display="inline" width="250" height="120"/>
</g>
<g id="Working" display="none">
	<text transform="matrix(1 0 0 1 34.7512 42.4162)" display="inline"><tspan x="0" y="0" fill="#FFFFFF" stroke="#000000" stroke-width="0.25" stroke-miterlimit="1" font-family="'Quickpen'" font-size="45.4134">About </tspan><tspan x="-34.1" y="54.5" fill="#FFFFFF" stroke="#000000" stroke-width="0.25" stroke-miterlimit="1" font-family="'Quickpen'" font-size="45.4134">Nic</tspan><tspan x="52.3" y="54.5" fill="#FFFFFF" stroke="#000000" stroke-width="0.25" stroke-miterlimit="1" font-family="'Quickpen'" font-size="45.4134" letter-spacing="-9"> </tspan><tspan x="61.2" y="54.5" fill="#FFFFFF" stroke="#000000" stroke-width="0.25" stroke-miterlimit="1" font-family="'Quickpen'" font-size="45.4134">Watt</tspan></text>
</g>
<g id="NW">
</g>
<g id="MH">
	<g>
		<path fill="#FFFFFF" d="M42.7,11.4c0.2-0.2,0.5-0.4,0.7-0.5c1.4-1.1,2.2-1.6,3.5-1.6c0.3,0,0.5,0.1,0.6,0.2
			c0.3,0.3,0.3,0.8,0.3,1.2l0,0.2c0,1.4-0.4,2.5-0.8,3.8c-0.1,0.4-0.2,0.8-0.3,1.1l-0.1,0.5C46.3,17,46,18,45.9,18.5
			c0.1,0.1,0.1,0.1,0.1,0.3l-0.1,0.1c-0.4,0.2-0.4,0.6-0.5,1c0,0.3-0.1,0.6-0.2,0.8c-0.8,2-1.5,4.3-1.8,5.9c0,0.2-0.1,0.3-0.2,0.3
			c-0.1,0.1-0.1,0.2-0.2,0.3c-0.1,0.4-0.2,0.8-0.3,1.3c-0.1,0.7-0.3,1.3-0.5,1.8c-0.1,0.1-0.1,0.2-0.2,0.3c-0.1,0.1-0.2,0.2-0.2,0.3
			c-0.2,0.4-0.2,0.9-0.3,1.4c0,0.4-0.1,0.8-0.2,1.1c-0.1,0.3-0.3,0.7-0.4,1c-0.2,0.3-0.3,0.7-0.4,1c0,0.2-0.1,0.4-0.1,0.6
			c-0.1,0.6-0.3,1.2-0.5,1.5c0,0,0.1,0,0.1,0l0.1,0.2c-0.6,2.1-0.9,3.1-0.9,4.9c0.2,0.1,0.3,0.3,0.4,0.4c0.4,0.4,0.6,0.6,1.3,0.6
			c1.3,0,2.4-1.2,3.3-2.2c0.2-0.2,0.4-0.5,0.6-0.7c0.1-0.1,0.3-0.3,0.5-0.5c0.8-1,1.2-1.4,1.4-1.4h0.2c0,0,0.1-0.2,0.1-0.3
			c0.1-0.3,0.2-0.7,0.5-0.7h0.2c0,0,0.1-0.3,0.2-0.4c0.1-0.2,0.2-0.4,0.3-0.5c1.1-1,2.9-3.2,3.7-4.5c0.2-0.3,0.4-0.5,0.6-0.7
			c0.1-0.1,0.2-0.2,0.3-0.2c0.1-0.1,0.2-0.2,0.2-0.4c0-0.1,0.1-0.2,0.1-0.3c0.2-0.2,0.4-0.5,0.6-0.7c1.2-1.4,2.4-2.9,2.7-3.7
			c0-0.1,0.1-0.1,0.2-0.2c0.1,0,0.2-0.1,0.2-0.1c0.2-0.3,0.4-0.6,0.5-0.9c0.1-0.3,0.3-0.6,0.5-0.8c0.1-0.2,0.3-0.4,0.5-0.5
			c0.1-0.1,0.3-0.2,0.4-0.4c0.1-0.1,0.2-0.3,0.2-0.5c0.1-0.2,0.3-0.5,0.4-0.7c0.1-0.1,0.2-0.2,0.3-0.2c0.1-0.1,0.2-0.1,0.2-0.2l0,0
			c2.7-4,5-6.8,6.8-8.1c0.1-0.1,0.3-0.2,0.4-0.3c0.3-0.3,0.7-0.6,1.2-0.6c0.1,0,0.2,0,0.3,0.1l0.1,0.1c-0.1,1.2-0.6,2.5-1,3.6
			c-0.2,0.4-0.3,0.8-0.4,1.1c0,0.1-0.1,0.3-0.1,0.4c0,0.1,0,0.3-0.1,0.5c0,0.1-0.1,0.1-0.1,0.2c-0.1,0.1-0.2,0.2-0.2,0.4
			c0,0.1,0,0.2,0,0.3c0,0.1,0,0.2,0,0.2c0,0.6-0.5,1.4-0.7,1.9c-0.1,0.2-0.2,0.3-0.2,0.4c0,0,0,0,0,0c0,0,0,0.1,0,0.2
			c0,0.2-0.2,0.2-0.3,0.3c0,0-0.1,0-0.1,0c-0.1,0.1-0.1,0.3-0.2,0.4c-0.1,0.3-0.2,0.6-0.5,0.8l0,0.2c-0.1,0.4-0.2,0.9-0.3,1.3
			c-0.1,0.3-0.3,0.5-0.5,0.8c-0.1,0.2-0.2,0.3-0.3,0.5c0,0.1,0,0.4,0,0.6c0,0.3,0,0.6-0.1,0.9c-0.1,0.2-0.2,0.5-0.4,0.7
			c-0.1,0.2-0.2,0.3-0.3,0.5c-0.3,0.6-0.6,1.4-0.8,2.1c-0.4,1-0.7,1.9-1.1,2.6c-2.2,3.7-3.8,10-4.1,11.4c-0.1,0.4-0.3,0.7-0.4,1
			c-0.2,0.3-0.4,0.7-0.4,1c-0.1,0.3-0.1,0.5-0.1,0.8c0,0.3,0,0.6-0.1,0.9c-0.2,1.1-0.4,2.4-0.4,3.6c0,2.2,1.3,4.4,2.4,4.9
			c0.1,0.1,0.2,0.2,0.2,0.3c0,0,0,0,0,0.1c0.8,0.5,1.7,0.6,2,0.6c0.2,0,0.3-0.1,0.5-0.1c0.2-0.1,0.4-0.2,0.8-0.2c0.1,0,0.1,0,0.2,0
			c0.1,0,0.1,0,0.2,0c0.1,0,0.5-0.2,0.9-0.4c0.6-0.3,1.2-0.6,1.6-0.6h0.1c0.1-0.1,0.1-0.1,0.1-0.2c0.2-0.3,0.3-0.5,0.5-0.6
			c0.1-0.2,0.5-0.4,1.2-0.7c0.3-0.1,0.7-0.3,0.8-0.4c0.1,0,0.1-0.2,0.2-0.3c0.1-0.2,0.2-0.3,0.3-0.4c0.2-0.1,0.4-0.1,0.6-0.2
			c0.1,0,0.2-0.1,0.3-0.1c0-0.1,0.1-0.2,0.2-0.3c0.2-0.3,0.6-0.8,0.7-1c0,0-0.1,0-0.1,0c-0.4,0-0.8,0.3-1.3,0.5
			c-0.6,0.3-1.2,0.7-1.9,0.7c-0.2,0.1-0.3,0.3-0.4,0.5c-0.1,0.2-0.3,0.5-0.6,0.5c-0.7,0.2-1.4,0.6-2,0.9c-1,0.5-2.1,1.1-3.6,1.2
			l-0.1,0c-1.5-1.3-2.1-2.9-2.1-5.5c0-0.6,0.1-1.3,0.3-1.9c0.1-0.3,0.1-0.6,0.2-0.9c0.1-0.4,0.1-0.8,0.2-1.1
			c0.1-0.6,0.1-1.2,0.3-1.8c1.2-3.8,2.5-7,3.8-10.3c0.6-1.4,1.2-2.9,1.8-4.4c0.6-1.5,1.3-3.3,1.9-5c0.2-0.6,0.4-1.1,0.6-1.6
			c0.1-0.1,0.1-0.2,0.2-0.3c0.1-0.1,0.1-0.1,0.1-0.2c0.1-0.2,0.1-0.5,0.2-0.7c0-0.2,0.1-0.5,0.2-0.7c0-0.1,0.1-0.1,0.2-0.2
			c0.1-0.1,0.2-0.2,0.2-0.3v-0.2c0-0.2,0.1-0.3,0.2-0.3c0,0,0.1,0,0.1-0.1c0.1-0.2,0.2-0.4,0.2-0.6c0.1-0.2,0.1-0.4,0.2-0.6
			c0.2-0.6,0.5-1.3,0.8-1.9c0.9-2,1.7-3.9,1.7-6.1c0-1.3-0.6-1.4-1.4-1.6c-0.3-0.1-0.6-0.1-0.9-0.2c-3.8,2.3-6.6,5.9-8.5,8.7
			c0,0,0,0,0,0c0,0,0,0,0,0c0,0,0,0.1,0,0.1c0,0.1,0,0.2-0.2,0.2h-0.3c-0.4,0.1-2.4,3.6-2.6,3.9l-0.1,0l-0.1,0.1h-0.2
			c-0.1,0.1-0.3,0.4-0.5,0.7c-0.3,0.5-0.7,1.1-1,1.3c-0.1,0.1-0.3,0.3-0.4,0.5c-0.2,0.2-0.4,0.5-0.6,0.7c-0.1,0.1-0.1,0.1-0.1,0.2
			c0,0.1,0,0.2-0.1,0.3c-0.1,0.1-0.2,0.2-0.3,0.2c-0.1,0-0.2,0.1-0.2,0.2c-2.4,3-2.9,3.9-3.2,4.4c-0.1,0.2-0.2,0.3-0.3,0.4
			c-0.3,0.4-0.6,0.7-1,1c-0.3,0.2-0.5,0.5-0.8,0.8c0,0-0.1,0.1-0.1,0.2c0,0.1,0,0.2-0.1,0.3c-0.1,0.2-0.3,0.2-0.4,0.3
			c-0.1,0-0.1,0.1-0.2,0.1c-0.1,0.1-0.2,0.3-0.3,0.4c-0.1,0.2-0.3,0.4-0.4,0.6c-0.1,0.2-0.3,0.3-0.5,0.4c-0.1,0.1-0.2,0.2-0.3,0.3
			c-0.1,0.1-0.2,0.3-0.3,0.5c-0.1,0.2-0.3,0.4-0.4,0.6c-0.1,0.2-0.3,0.3-0.5,0.4c-0.1,0.1-0.3,0.2-0.4,0.3c-0.1,0.1-0.2,0.3-0.3,0.4
			c-0.2,0.4-0.4,0.7-0.6,0.7c-0.1,0-0.1,0-0.2,0c0,0,0,0,0,0c0,0,0,0.1,0,0.1c0,0.1-0.1,0.2-0.1,0.2c-0.6,0.5-1.2,0.8-1.8,0.9
			l-0.1-0.1c0.2-1.8,0.8-3.8,1.3-5.4c0.2-0.8,0.5-1.5,0.6-2c0.2-0.5,0.4-1.1,0.6-1.6c0.2-0.6,0.5-1.2,0.6-1.8
			c0.9-3.1,1.9-6.4,2.8-8.9c0.1-0.3,0.2-0.6,0.3-0.9c0.1-0.3,0.2-0.6,0.3-0.9c0.1-0.3,0.1-0.6,0.2-0.9c0-0.3,0.1-0.6,0.2-0.9
			c0.1-0.3,0.2-0.6,0.4-0.9c0.1-0.3,0.3-0.5,0.3-0.8c0.1-0.3,0.1-0.6,0.1-0.9c0-0.4,0.1-0.7,0.2-1c0.1-0.2,0.1-0.5,0.2-0.7
			c0.2-0.7,0.5-1.6,0.5-2.6c0-0.8-0.2-1-0.3-1.1c-0.1,0-0.2-0.1-0.2-0.3c0-0.1,0-0.2,0-0.3c0,0,0,0,0,0c-0.6-1.1-2-1.2-2.6-1.2
			c-1.3,0-2,0.5-2.7,1c-0.2,0.2-0.5,0.4-0.7,0.5c-0.1,0.1-0.2,0.1-0.3,0.2c-0.3,0.2-0.9,0.5-1,0.7c0,0,0,0,0,0c0,0,0,0.1,0,0.2
			c0,0.2-0.3,0.4-1,0.8c-0.3,0.2-0.5,0.3-0.6,0.4c-0.2,0.2-0.4,0.4-0.6,0.7c-0.2,0.3-0.4,0.5-0.7,0.7c-1.1,0.4-1.8,1.2-2.3,1.7
			c-0.1,0.1-0.3,0.2-0.4,0.3c-0.5,0.4-1,0.7-1,1.3l-0.1,0.1c-1,0.4-1.8,1.4-2.5,2.4c-0.4,0.5-0.7,0.9-1.1,1.3l-0.1,0h-0.3
			c0,0,0,0,0,0c0,0.1-0.1,0.2-0.2,0.3c-0.5,0.6-0.7,0.8-0.8,1.1c-0.1,0.2-0.2,0.3-0.3,0.5c-0.6,0.7-1.3,1.3-1.9,1.7
			c-0.8,1.3-1.7,2.5-2.7,3.3c-0.1,0.1-0.2,0.2-0.4,0.3c-0.2,0.1-0.5,0.3-0.6,0.4l0,0.2c0,0.2-0.2,0.2-0.3,0.3c0,0,0,0,0,0
			c-0.1,0.2-0.2,0.4-0.3,0.6c-0.2,0.5-0.4,0.9-0.9,1.1c0,0.6-0.5,1-0.8,1.3c-0.1,0.1-0.2,0.2-0.3,0.3c-0.3,1-1.1,1.9-1.7,2.5
			L20,34.4c-0.2,0.3-0.4,0.6-0.7,1c-0.5,0.8-0.8,1.3-1.1,1.3H18l-0.1-0.1c0.3-1.7,0.8-3.4,1.4-5.2c0.2-0.8,0.5-1.5,0.7-2.3
			c0.1-0.4,0.3-0.9,0.5-1.4c0.4-1,0.8-2.2,0.9-3c0.3-1.4,0.7-2.8,1-4.2c1.1-4.5,2.3-9.1,2.3-13.5c0-3.1-0.7-4-1.4-4.8L23.1,2l0-0.1
			c0-0.1,0-0.1,0-0.2c0,0,0,0,0,0c0,0-0.1,0-0.1,0c-0.1,0-0.2-0.1-0.3-0.1l0,0c-0.7-1.2-2.4-1.3-3.4-1.3h-0.5L18.8,0c0,0,0,0,0,0
			c0,0.1-0.1,0.2-0.2,0.2c-0.3,0.1-0.6,0.1-1,0.2c-0.4,0-0.8,0.1-1.1,0.2c0,0-0.1,0.1-0.1,0.1c-0.1,0.1-0.2,0.2-0.2,0.2
			c-0.4,0.2-1.1,0.5-1.7,0.8c-0.7,0.3-1.4,0.7-1.5,0.7l0,0c-0.2,0.2-0.4,0.4-0.6,0.6c-0.2,0.2-0.4,0.5-0.6,0.6
			c-0.1,0.1-0.3,0.1-0.5,0.2c-0.1,0-0.3,0.1-0.4,0.1c-0.1,0.1-0.2,0.2-0.4,0.3c-0.1,0.1-0.2,0.2-0.3,0.3C9.9,4.9,9.7,5.1,9.4,5.3
			C8.7,5.8,7.9,6.3,7.6,7.1L7.5,7.2c-0.1,0-0.1,0-0.2,0c0,0,0,0,0,0C6.9,7.1,5.8,8.5,5,9.4c-0.4,0.4-0.7,0.8-0.9,1
			c-0.1,0.1-0.3,0.2-0.4,0.4c-0.2,0.2-0.4,0.3-0.5,0.5c-0.1,0.1-0.1,0.1-0.1,0.2c0,0.1-0.1,0.3-0.2,0.4c-0.1,0.1-0.3,0.2-0.4,0.2
			c-0.1,0-0.2,0.1-0.2,0.1c-0.1,0.1-0.2,0.2-0.2,0.3c0,0.1-0.1,0.2-0.2,0.3c0,0-0.1,0.1-0.2,0.3C1.2,13.8,0,15.4,0,16.4
			c0,1.1,2.1,2.5,3.3,2.5c0.2,0,0.4,0,0.6-0.1c-0.1-0.5-0.4-0.6-0.8-0.8c-0.4-0.2-0.9-0.5-0.9-1.2l0-0.1c0.2-0.5,0.6-1,0.9-1.4
			c0.1-0.2,0.2-0.3,0.3-0.5c0-0.1,0.2-0.1,0.3-0.2c0,0,0.1,0,0.1,0c0.1-0.3,0.1-0.4,0.1-0.6c0-0.2,0-0.3,0.2-0.6
			c2.1-2.9,5.3-6.5,8-7.8c0.2-0.2,0.4-0.4,0.6-0.5c0.3-0.3,0.6-0.6,1.2-0.9C14.2,4,14.6,3.7,15,3.5c1.4-0.9,3.2-1.9,5.4-1.9
			c2.3,0,2.5,3.7,2.5,4.8c0,5-1.4,11.9-2.9,16.2c-0.1,0.4-0.2,0.9-0.3,1.3c-0.1,0.4-0.1,0.7-0.2,1.1c-0.5,1.4-1,2.9-1.5,4.2
			c-0.4,1-0.8,2-1.1,2.9c-0.2,0.5-0.3,0.9-0.4,1.4c-0.1,0.4-0.2,0.8-0.3,1c-0.1,0.3-0.3,0.6-0.5,0.8c-0.2,0.2-0.3,0.4-0.4,0.6
			c-0.2,0.4-0.3,0.8-0.4,1.4c-0.2,0.6-0.4,1.5-0.8,2.6c0,0.1-0.1,0.1-0.2,0.2c0,0-0.1,0.1-0.2,0.1c-0.4,1-0.8,2-1.2,3.3
			c-0.1,0.2-0.2,0.5-0.3,0.7c-0.3,0.8-0.7,1.6-0.7,2.5c0,0.6,0.8,1.3,1.8,1.3c0.6,0,0.6-0.2,0.7-0.4c0.1-0.2,0.1-0.4,0.5-0.5
			c0.3-0.1,0.3-0.2,0.4-0.4c0-0.1,0-0.1,0.1-0.2c0-0.1,0.1-0.1,0.2-0.2c0,0,0.1,0,0.1,0c0.2-0.3,0.2-0.5,0.3-0.8
			c0.1-0.2,0.1-0.5,0.2-0.8c0.6-1.5,2.1-4.5,3.3-6.1c0.1-0.1,0.2-0.2,0.2-0.4c0-0.1,0.1-0.2,0.1-0.3c0.1-0.2,0.3-0.4,0.4-0.6
			c0.1-0.1,0.2-0.3,0.2-0.3c0,0,0-0.1,0-0.1c0,0,0-0.1,0-0.2c0-0.6,0.6-1.3,1.1-1.8c0.2-0.2,0.3-0.3,0.3-0.4c0-0.1,0.1-0.1,0.1-0.2
			c0-0.1,0-0.2,0.1-0.3c0.1-0.1,0.2-0.2,0.3-0.2c0.1,0,0.2-0.1,0.2-0.1c0.2-0.3,0.4-0.7,0.5-1c0.2-0.4,0.3-0.7,0.5-1
			c1.6-2.6,3.6-5,5-6.8c0.3-0.4,0.7-0.8,0.9-1.2c0.2-0.3,0.5-0.6,0.8-0.8c0.6-0.5,1.1-1,1.3-1.7l0.1-0.1h0.1c0.4,0,2.1-1.8,2.6-2.7
			l0.1-0.1c0.1,0,0.2-0.1,0.3-0.1l0,0l0,0c0.3-0.3,0.6-0.6,0.8-0.9c0.4-0.5,0.8-0.9,1.5-1.2c0.1-0.1,0.2-0.2,0.2-0.3
			c0.2-0.3,0.5-0.6,0.7-0.6H38c0,0,0-0.1,0-0.1c0-0.1,0-0.2,0.1-0.2c0.8-0.5,1.5-1.1,2.2-1.6C41.1,12.5,41.9,12,42.7,11.4z"/>
		<path fill="#FFFFFF" d="M225.3,34.5c-0.1,0.1-0.4,0.3-0.7,0.5c-0.5,0.4-1.1,0.9-1.5,1.2l0,0c-0.7,0.2-0.8,0.2-0.9,0.4
			c-0.1,0.1-0.2,0.2-0.5,0.5c-0.3,0.2-0.6,0.3-1,0.6c-0.6,0.4-1.1,0.7-1.9,0.9c0,0.4-0.8,0.8-2,1.3c-0.2,0.1-0.4,0.2-0.5,0.3
			c-1.1,0.6-1.5,0.8-1.8,1c-0.4,0.2-0.6,0.4-1.6,0.9l-0.1,0h-0.4c-0.1,0-0.3,0.1-0.5,0.2c-0.4,0.2-0.9,0.4-1.6,0.4
			c-0.1,0-0.1,0-0.2,0c0,0-0.1,0-0.1,0c-0.9,0.4-2.7,1.2-4.2,1.2c-1.6,0-2.7-1.2-2.7-3c0-0.7,0.2-1.6,0.6-2.6l0.1-0.1h0.1
			c0.1,0,0.2-0.1,0.5-0.1c0.3-0.1,0.9-0.2,1.5-0.4c-0.2,0-0.3,0-0.4,0l-1,0l0-0.2l2.1-0.5l0.3-0.4l2.3-1.1c0.2-0.1,0.4-0.2,0.7-0.3
			c0.6-0.3,0.9-0.5,1.1-0.5l0.1,0.2c-0.1,0.1-0.6,0.4-1.5,1c-0.3,0.2-0.7,0.4-1,0.6c0.2-0.1,0.3-0.2,0.5-0.3
			c0.2-0.1,0.3-0.2,0.5-0.3c0.8-0.3,1.7-1.1,2-1.4l0,0c0.7-0.5,1.2-1.1,1.2-1.2c0,0,0,0,0,0l0-0.1c0,0,0.1-0.1,0.2-0.2
			c0.4-0.5,0.5-0.7,0.5-0.8c0-0.6-1-2-2.4-2c-1.4,0-2.4,0.8-3.2,1.5l-0.2,0.2c-0.1,0.1-0.2,0.1-0.3,0.1c-0.1,0-0.3,0.1-0.4,0.1
			c-0.3,0.5-1.5,1.7-2.1,2.1c-0.1,0.3-0.3,0.5-0.4,0.7l0,0c-0.2,0.1-0.3,0.2-0.5,0.4c-0.3,0.2-0.4,0.3-0.4,0.3
			c-0.3,0.5-1,1.2-1.6,1.4c0,0.3-0.3,0.4-0.6,0.6c-0.2,0.1-0.3,0.2-0.4,0.3l0,0c-0.5,0.5-1,1.2-1.2,1.7c-0.2,0.4-0.3,0.5-0.4,0.5
			c-0.2,0-0.7,0.4-0.9,0.6l-0.1,0.1l-0.1,0c-0.3,0-0.7,0.4-1,0.8c-0.1,0.2-0.2,0.3-0.4,0.4c-1,1.1-2,1.7-2.9,2.3
			c-0.5,0.3-0.9,0.6-1.2,0.8c-1.1,1.1-2.6,1.6-3.3,1.6c-1.8,0-2.1-0.5-2.3-0.8c-0.1-0.1-0.1-0.1-0.1-0.1l-0.1,0
			c-0.1-0.1-0.1-0.4-0.2-0.9c0-0.2-0.1-0.4-0.1-0.5c-0.2-0.2-0.2-0.4-0.2-0.6c0-0.3,0.1-0.7,0.2-1c0.1-0.4,0.2-0.7,0.2-1.1
			c0-0.3-0.1-0.5-0.2-0.8l0-0.1c0.3-0.4,0.5-1,0.7-1.8c0.1-0.3,0.2-0.6,0.2-0.8c0-0.2,0.1-0.3,0.1-0.5c0.2-0.9,0.5-1.7,0.5-2.4
			l0-0.1c0.5-0.5,0.7-1.8,0.7-2.8c0-1.8-0.9-2.5-1.7-2.5c-0.9,0-2.3,1.2-3.5,2.3c-0.5,0.5-1,0.9-1.4,1.2c-0.4,0.4-0.9,0.7-1.3,1
			c-0.6,0.4-1.1,0.8-1.6,1.3c-0.1,0.1-0.1,0.2-0.1,0.3c0,0.1-0.1,0.3-0.2,0.4c-0.1,0.1-0.3,0.2-0.4,0.2c-0.1,0.1-0.3,0.1-0.4,0.2
			c-0.7,0.7-1.4,1.3-2.2,1.8c-0.4,0.4-1,1.1-1.8,1.1c-0.1,0-0.2,0-0.3-0.1l-0.1-0.1c0.2-1.2,0.6-2.3,1-3.4c0.5-1.4,1-2.8,1-4.4
			c0-0.7-0.6-1.1-1.2-1.1c-1.1,0-2.4,1.2-3.5,2.1c-0.4,0.3-0.7,0.6-1.1,0.9c-1.1,0.9-2,1.8-2.8,2.7c-1.2,1.2-2.1,2.2-3.1,2.3
			l-0.1-0.1c0.2-1.3,0.6-2.3,1-3.4c0.2-0.6,0.5-1.3,0.7-2c-0.1-0.4-0.6-0.6-1.1-0.8c-0.1,0-0.3-0.1-0.4-0.2l-0.6,2.6l0,0.1
			c-0.6,0.4-0.7,0.6-0.8,0.7l0,0v0l0,0.1c0,0-0.1,0.1-0.2,0.1h-0.2c0,0-0.1,0.2-0.1,0.2l0,0.1c-0.3,0.3-0.7,0.5-1.1,0.7
			c-0.2,0.1-0.4,0.4-0.6,0.5c-0.1,0.1-0.1,0.1-0.2,0.2c-0.4,0.4-0.7,0.5-1,0.6c-0.3,0.1-0.5,0.2-0.9,0.5c-1.6,1.3-3.2,2.2-4.7,2.8
			c-0.1,0.7-0.9,1-1.3,1h0c-0.2,0.8-2.2,1.5-3.4,1.5c-1.4,0-2-0.6-2-1.9c0-2.1,0.6-3.8,1.2-5.3c0.3-0.9,0.6-1.8,0.9-2.8
			c-0.1-0.1-0.3-0.2-0.4-0.3c-0.2-0.2-0.4-0.4-0.8-0.4c-0.1,0-0.2,0.1-0.4,0.1c-0.1,0.1-0.3,0.1-0.5,0.1c-0.1,0-0.3,0-0.4-0.2
			c-0.2,0.1-0.3,0.3-0.5,0.5c-0.3,0.4-0.7,0.9-1.4,1l-0.1-0.1c-0.1-1.5-0.8-2.2-1.5-2.9c-0.1-0.1-0.2-0.1-0.3-0.1
			c-0.1,0-0.3,0-0.4-0.1c-0.1-0.1-0.3-0.2-0.3-0.3c0,0-0.1-0.1-0.1-0.1c-0.5-0.2-1.2-0.2-1.5-0.2c-2.6,0-4.8,2.1-6.2,3.6l0,0l0,0
			c-0.2,0.2-0.4,0.5-0.6,0.7c-0.1,0.1-0.2,0.2-0.4,0.4c-0.5,0.3-0.6,0.4-0.6,0.4l0,0c-0.1,0.1-0.2,0.1-0.5,0.3c0,0.1,0,0.1,0,0.2
			c0,0.4-0.1,0.4-0.5,0.6c-0.6,0.3-1.2,0.8-1.3,0.9l0,0l0,0c-0.4,0.5-2.2,1.8-2.9,2.3l-0.2,0.1l-0.7,0.6c-2.9,2.5-6.2,5.3-8.7,5.3
			c-0.7,0-1.2-0.2-1.6-0.7c-1.4-1.4-1.8-4.8-1.8-6.4c0-3.9,1.8-8.6,3.3-12.8c0.2-0.6,0.4-1.1,0.6-1.7c0.9-2.5,2-4.9,3.1-7.1
			c0.1-0.1,0.1-0.3,0.2-0.4c0.3-0.8,0.6-1.6,1.1-2.1c0.1-0.1,0.1-0.3,0.1-0.5c0-0.2,0.1-0.4,0.1-0.6c0.2-0.4,0.4-0.9,0.7-1.3
			c0.5-0.8,1-1.7,1-2.3c0-0.2,0-0.8-1.5-0.9c0,0.1-0.1,0.1-0.1,0.2c0,0.1-0.1,0.1-0.1,0.1l0,0.1c-0.1,0.2-0.2,0.5-0.4,0.7
			c-0.1,0.2-0.2,0.3-0.3,0.5c0,0.1,0,0.2-0.1,0.4c0,0.2,0,0.3-0.1,0.5l0,0c-0.1,0.1-0.2,0.2-0.2,0.2c-0.1,0.1-0.2,0.1-0.2,0.2
			c-0.1,0.2-0.2,0.5-0.3,0.8c0,0.2-0.1,0.4-0.2,0.6c-0.2,0.5-0.5,1-0.8,1.4c-0.3,0.6-0.6,1.1-0.8,1.6c-0.1,0.1-0.1,0.2-0.1,0.4
			c0,0.2,0,0.3-0.1,0.5c0,0.1-0.1,0.1-0.2,0.1c-0.1,0-0.1,0-0.1,0.1c0,0,0,0.1,0,0.2c0,0.1,0,0.1,0,0.1c0,0.2-0.2,0.4-0.4,0.5
			c-0.1,0-0.1,0.1-0.2,0.1c-0.1,0.2-0.2,0.4-0.3,0.6c-0.4,0.7-0.8,1.3-0.9,2.2l-0.1,0.1c-0.3,0.1-0.6,0.7-0.9,1.3
			c-0.3,0.6-0.6,1.2-1,1.4c-0.6,0.8-1,1.7-1.1,2.2c-0.1,0.3-0.1,0.3-0.2,0.3h-0.2c0,0.1-0.1,0.3-0.1,0.4c0,0.1-0.1,0.3-0.1,0.3
			c-0.8,1-1.3,1.9-1.7,2.6c-0.1,0.2-0.2,0.4-0.3,0.5c-0.3,0.6-0.6,1.2-1.3,1.4l-0.1,0c-1.1-0.4-1.9-0.6-2.9-0.6c-1.2,0-2,0.5-2.6,1
			c-0.3,0.2-0.5,0.3-0.7,0.4c-0.5,0.3-0.9,0.5-1.4,0.6c-0.2,0.4-0.5,0.7-0.8,1.1c-0.3,0.4-0.5,0.7-0.8,1.2l-0.1,0.1h-0.2
			c0,0-0.1,0.2-0.1,0.2l0,0.1c-0.3,0.3-0.7,0.5-1.1,0.7c-0.2,0.1-0.4,0.4-0.6,0.5c-0.1,0.1-0.1,0.1-0.2,0.2c-0.4,0.4-0.7,0.5-1,0.6
			c-0.3,0.1-0.5,0.2-0.9,0.5c-1.6,1.3-3.2,2.2-4.7,2.8c-0.1,0.7-0.9,1-1.3,1h0c-0.2,0.8-2.2,1.5-3.4,1.5c-1.4,0-2-0.6-2-1.9
			c0-2.1,0.6-3.8,1.2-5.3c0.3-0.9,0.6-1.8,0.9-2.8c-0.1-0.1-0.3-0.2-0.4-0.3c-0.2-0.2-0.4-0.4-0.8-0.4c-0.1,0-0.2,0.1-0.4,0.1
			c-0.1,0.1-0.3,0.1-0.5,0.1c-0.1,0-0.3,0-0.4-0.2c-0.2,0.1-0.3,0.3-0.5,0.5c-0.3,0.4-0.7,0.9-1.4,1l-0.1-0.1
			c-0.1-1.5-0.8-2.2-1.5-2.9c-0.1-0.1-0.2-0.1-0.3-0.1c-0.1,0-0.3,0-0.4-0.1c-0.1-0.1-0.3-0.2-0.3-0.3c0,0-0.1-0.1-0.1-0.1
			c-0.6-0.2-1.2-0.2-1.5-0.2c-3.3,0-5.9,3.2-7.8,5.5c-0.4,0.4-0.7,0.9-1,1.2c0,0.1-0.1,0.1-0.1,0.2c0,0.2,0.1,0.3,0.1,0.5
			c0.1,0.1,0.1,0.2,0.1,0.3c0,0.2-0.1,0.2-0.2,0.3l-0.2-0.1c-0.1-0.1-0.1-0.2-0.2-0.2c0,0.1,0.1,0.1,0.1,0.1
			c0.1,0.1,0.1,0.2,0.1,0.3c0,0.3-0.1,0.5-0.3,0.5H69c-0.1,0-0.1,0-0.1,0.1c0,0,0,0.1,0,0.2l0,0.1c0,0,0.1,0,0.1,0
			c0.1,0,0.4,0,0.4,0.3c0,0.1,0,0.2-0.1,0.3l-0.1,0c-0.1,0-0.3,0-0.3,0c0,0-0.1,0-0.1,0c-0.2,0-0.3,0-0.5,0.1
			c-0.1,0-0.2,0.1-0.3,0.1c0,0.1,0.1,0.2,0.1,0.4c0,0.4-0.1,0.8-0.3,1.2c-0.2,0.5-0.4,1-0.4,1.7c0,1.4,1.6,2.2,2.8,2.2
			c0.9,0,1.3-0.3,1.9-0.7c0.1-0.1,0.2-0.2,0.4-0.3c0.3-0.1,0.5-0.2,0.7-0.3c0.1,0,0.1,0,0.2-0.1c0,0,0,0,0,0c0-0.1,0.1-0.2,0.2-0.2
			c0.4-0.3,0.8-0.6,1.2-0.8c1.5-1,2.4-1.6,3.2-2.7l0.1,0c0.4,0,0.8-0.4,1.1-0.7c0.1-0.1,0.1-0.1,0.2-0.2c0.5-0.5,1-0.9,1.5-1.3
			c0.7-0.6,1.3-1.1,1.9-1.8l0,0c0.4-0.2,0.7-0.5,1-0.7c0.3-0.2,0.5-0.5,0.9-0.7l0.2,0.2c-0.3,0.5-0.4,1.1-0.5,1.7
			c0,0.2-0.1,0.4-0.1,0.6c-0.1,0.3-0.2,0.6-0.3,0.8c-0.2,0.7-0.5,1.4-0.5,2.2c0,0.4,0.1,0.7,0.2,0.9c0.1,0.2,0.2,0.4,0.2,0.7
			c0,0.8,1.8,2.7,3.5,2.7c0.6,0,1-0.4,1.3-0.7c0.2-0.2,0.3-0.3,0.5-0.5l0.2,0.1c0,0.1,0,0.1,0,0.1c0,0,0.1,0,0.1,0h0.6
			c0.2-0.3,0.5-0.4,0.9-0.4c0.3-0.5,0.9-0.8,1.4-1.1c0.2-0.1,0.4-0.2,0.6-0.3c0,0,0.1-0.1,0.1-0.1c0.1-0.1,0.1-0.2,0.3-0.3
			c0.3-0.2,0.7-0.3,1-0.4c0.4-0.1,0.8-0.2,1.1-0.5c0.2-0.2,0.4-0.3,0.5-0.5c0.5-0.4,0.9-0.7,0.9-1.1l0.1-0.1c0.7,0,0.7-0.1,0.8-0.3
			c0.1-0.2,0.2-0.4,0.7-0.5c0-0.2,0.2-0.4,0.3-0.6c0.1-0.2,0.3-0.5,0.3-0.6l0.1-0.1c0.1,0,0.2,0,0.4,0l0.1,0.2l0,0.1
			c-0.1,0.1-0.1,0.3-0.2,0.4c-0.1,0.2-0.2,0.3-0.3,0.5c-0.2,0.4-0.5,0.8-0.6,1.2c-0.1,0.3-0.2,1-0.2,1.4c0,0.1,0,0.3,0,0.3
			c0,2,0.7,2.8,2.5,2.8c1.7,0,2.2-0.7,2.6-1.4c0.3-0.5,0.6-0.9,1.3-0.9c0.5-0.9,1-1.3,1.4-1.6c0.2-0.1,0.3-0.2,0.4-0.4l0,0
			c0.1-0.1,0.4-0.5,0.6-0.7c0.1-0.1,0.2-0.3,0.2-0.3c0.3-0.4,0.7-0.8,1-1.2c1.2-1.4,2.4-2.8,3.2-4.4c0.1-0.2,0.2-0.3,0.3-0.4
			c0.3-0.3,0.5-0.7,0.6-1.2l0,0c0.1-0.2,0.2-0.3,0.4-0.4c0.1-0.1,0.2-0.1,0.3-0.3c0,0,0-0.1,0-0.2c0-0.2,0.1-0.6,0.4-0.6
			c0.1,0,0.1,0,0.2,0.1c0,0,0.1,0,0.1,0l0.1,0.1c-0.1,0.5-0.2,0.9-0.3,1.4c-0.5,2.2-1,4.6-1,6.8c0,0.3,0,0.6,0,0.8
			c0,0.3,0,0.5,0,0.8c0,0.1,0,0.3,0,0.4c0,0.2,0,0.3,0,0.5c0,0.9,0.2,2.1,0.7,2.6c0.1,0.1,0.2,0.4,0.2,1.1c0,0.1,0,0.3,0,0.3
			c0.2,0.2,0.3,0.4,0.4,0.7c0.1,0.2,0.2,0.5,0.4,0.6l0.1,0.1c0.9,0.8,0.9,0.8,1.4,0.9c0.2,0,0.6,0,1.2,0.1l0.1,0
			c0.5,0,1.1-0.2,1.7-0.4c0.4-0.1,0.7-0.3,1-0.3c1.1-0.5,2.5-1.2,3.1-1.6c0.3-0.2,0.5-0.5,0.8-0.7c0.4-0.5,0.8-0.9,1.4-1.1
			c0.4-0.4,0.9-0.8,1.5-1.3c0.9-0.7,2-1.5,2.4-2.3l0,0c0.1-0.1,0.3-0.2,0.5-0.4c0.3-0.2,0.6-0.5,1-0.7l0.2,0l0,0
			c0.1,0.1,0.1,0.2,0.1,0.3c0,0.3-0.1,0.5-0.3,0.5h-0.3c-0.1,0-0.1,0-0.1,0.1c0,0,0,0.1,0,0.2l0,0.1c0,0,0.1,0,0.1,0
			c0.1,0,0.4,0,0.4,0.3c0,0.1,0,0.2-0.1,0.3l-0.1,0c-0.1,0-0.3,0-0.3,0c0,0-0.1,0-0.1,0c-0.2,0-0.3,0-0.5,0.1
			c-0.1,0-0.2,0.1-0.3,0.1c0,0.1,0.1,0.2,0.1,0.4c0,0.4-0.1,0.8-0.3,1.2c-0.2,0.5-0.4,1-0.4,1.7c0,1.4,1.6,2.2,2.8,2.2
			c0.9,0,1.3-0.3,1.9-0.7c0.1-0.1,0.2-0.2,0.4-0.2c0.3-0.1,0.5-0.2,0.7-0.3c0.1,0,0.1,0,0.2-0.1c0,0,0,0,0,0c0-0.1,0.1-0.2,0.2-0.2
			c0.4-0.3,0.8-0.6,1.2-0.8c1.5-1,2.4-1.6,3.2-2.7l0.1,0c0.4,0,0.8-0.4,1.1-0.7c0.1-0.1,0.1-0.1,0.2-0.2c0.5-0.5,1-0.9,1.5-1.3
			c0.7-0.6,1.3-1.1,1.9-1.8l0,0c0.4-0.2,0.7-0.5,1-0.7c0.3-0.2,0.5-0.5,0.9-0.7l0.2,0.2c-0.3,0.5-0.4,1.1-0.5,1.7
			c0,0.2-0.1,0.4-0.1,0.6c-0.1,0.3-0.2,0.6-0.3,0.9c-0.2,0.7-0.5,1.4-0.5,2.2c0,0.4,0.1,0.7,0.2,0.9c0.1,0.2,0.2,0.4,0.2,0.7
			c0,0.8,1.8,2.7,3.5,2.7c0.6,0,1-0.4,1.3-0.7c0.2-0.2,0.3-0.3,0.5-0.5l0.2,0.1c0,0.1,0,0.1,0,0.1c0,0,0.1,0,0.1,0h0.6
			c0.2-0.3,0.5-0.4,0.9-0.4c0.3-0.5,0.9-0.8,1.4-1.1c0.2-0.1,0.4-0.2,0.6-0.3c0,0,0.1-0.1,0.1-0.1c0.1-0.1,0.1-0.2,0.3-0.3
			c0.3-0.2,0.7-0.3,1-0.4c0.4-0.1,0.8-0.2,1.1-0.5c0.2-0.2,0.4-0.3,0.5-0.5c0.5-0.4,0.9-0.7,0.9-1.1l0.1-0.1c0.7,0,0.7-0.1,0.8-0.3
			c0.1-0.2,0.2-0.4,0.7-0.5c0-0.2,0.2-0.4,0.3-0.6c0.1-0.2,0.3-0.5,0.3-0.6L161,37c0.6,0,1.3-0.2,1.7-0.5l0.2,0.1l-1,4.1
			c0.4,0.7,1.2,1.2,1.7,1.2c0.5,0,0.9-0.6,1.3-1.2c0.2-0.4,0.5-0.8,0.8-1.2l0.1,0c0,0,0.2,0,0.2-0.1c0,0,0,0,0.1-0.1
			c0-0.1,0-0.2,0.2-0.3c0.1-0.1,0.2-0.2,0.4-0.4c0.4-0.4,0.7-0.7,1-0.8c0.1-0.1,0.2-0.2,0.3-0.4c0.1-0.1,0.1-0.2,0.3-0.4
			c0.6-0.6,1.2-1.1,1.9-1.6c0.2-0.2,0.5-0.4,0.7-0.6c0.2-0.2,0.4-0.4,0.6-0.6c0.7-0.7,1.4-1.4,2.3-1.4l0.1,0.1
			c-0.2,2-0.4,2.8-1.3,4.1c0,0.1,0,0.1,0,0.1c0,0,0,0.1,0,0.1c0,0.5-0.2,0.9-0.3,1.4c-0.1,0.4-0.3,0.8-0.3,1.2
			c0,0.1,0.1,0.2,0.1,0.4c0.1,0.1,0.2,0.2,0.2,0.4c0.2,0.3,0.3,0.6,0.3,0.9c0.1,0.5,0.2,0.7,0.8,0.8c1.3,0,3.4-2.4,4.2-3.3
			c0.1-0.1,0.2-0.2,0.3-0.3c0,0,0.1-0.1,0.1-0.1c0.1-0.1,0.2-0.1,0.2-0.2c0.5-0.5,1-0.9,1.5-1.4c2.6-2.5,5.1-4.8,6.5-4.9l0.1,0.1
			c0,0.1,0,0.2,0,0.3c0,0.1,0,0.3,0,0.4c0,0.1,0,0.2,0,0.3c0,0,0,0.1,0,0.1l0.1,0.1c-0.1,0.3-0.2,0.6-0.3,0.9
			c-0.2,0.5-0.3,0.9-0.3,1.2c0,0.1,0,0.1,0.1,0.2c0,0.1,0.1,0.1,0.1,0.2c0,0.3-0.1,0.4-0.2,0.5c-0.1,0.1-0.1,0.1-0.1,0.3
			c0,0.1,0,0.2,0,0.3c0,0.1,0,0.2,0,0.3c0,0.2-0.1,0.5-0.3,0.7c-0.1,0.2-0.2,0.4-0.2,0.5c0,0.1,0,0.2,0,0.3c0,0.1,0,0.3,0,0.4
			c0,0.4-0.1,0.6-0.3,0.9c-0.1,0.2-0.2,0.5-0.2,0.7c0,0.2,0,0.4,0.1,0.7c0,0.3,0.1,0.7,0.1,1v1c0,1.4,1.3,2.6,1.9,3.2l0.1,0.1
			c0.2,0.2,1.2,0.4,1.6,0.4c0.4,0,0.7-0.1,1.1-0.2l0,0c0.1,0,1-0.4,1.5-0.6c0.7-0.3,0.8-0.3,0.9-0.4c0.7-0.2,1.8-1.1,2.3-1.7l0,0
			c0.5-0.3,0.9-0.5,1.2-0.7c0.4-0.2,0.6-0.3,0.8-0.5c0.1-0.1,0.4-0.4,0.6-0.7c0.6-0.7,1.1-1.3,1.5-1.4c0.1-0.5,1.1-1.3,2.2-2.3
			c0.3-0.3,0.5-0.5,0.6-0.6c0.1-0.1,0.1-0.1,0.2-0.2l0.1-0.1l0.2,0.1c-0.1,0.4-0.2,0.7-0.2,0.8c0,0.1,0,0.2,0,0.3c0,0.1,0,0.2,0,0.3
			c0,0.2,0,0.5-0.1,0.7c0,0.2-0.1,0.3-0.1,0.4c0,0.3,0.1,0.4,0.1,0.7c0.1,0.3,0.2,0.6,0.3,1.2c0.2,0.1,0.3,0.3,0.4,0.5
			c0.2,0.3,0.4,0.7,0.8,0.8c0,0,0,0,0.1,0.1c1.4,0.9,2.3,1,2.8,1h0.1c0.2,0,0.4,0,0.5,0.1c0.1,0,0.1,0,0.2,0
			c0.8-0.1,1.6-0.4,2.3-0.6c0.2-0.1,0.3-0.1,0.5-0.1c0.2,0,0.3-0.1,0.5-0.1c0.2,0,0.5,0,0.6-0.1c0,0,0,0,0,0c0-0.1,0.1-0.3,0.3-0.3
			h0.2c0.2,0,0.5-0.2,0.7-0.3c0.3-0.2,0.6-0.4,0.9-0.4c0.1,0,0.1,0.1,0.2,0.1c0,0,0,0.1,0.1,0.1c0.1,0,0.5-0.4,0.7-0.6
			c0.3-0.3,0.5-0.4,0.6-0.5c0.1,0,0.3-0.1,0.4-0.1c0.1,0,0.3,0,0.4-0.1c0,0,0,0,0-0.1c0-0.1,0.1-0.3,0.2-0.3c0.1,0,0.2,0,0.2,0
			c0,0,0.1,0,0.1,0c0.3,0,1.1-0.7,1.2-0.8l0.1,0.1l0,0c0,0,0,0,0,0l-0.1-0.1c0.5-0.2,0.9-0.6,1.3-0.9c0.6-0.5,1.3-1,1.9-1.1
			c0.6-0.7,1-0.9,1.5-1.2c0.4-0.2,0.7-0.4,1.3-0.9c0.1-0.1,0.3-0.2,0.4-0.3c0.7-0.6,1.6-1.3,1.6-1.8
			C225.3,34.6,225.3,34.5,225.3,34.5z M206.9,33.9c1.1-1.1,2.6-2.4,4.1-2.4c0.4,0,1,0.2,1.1,0.7l0,0.1c-0.2,0.3-0.7,0.7-1,1
			c-0.1,0.1-0.3,0.2-0.3,0.2l0,0l0,0.1c0,0,0,0,0,0c0,0,0,0,0,0c0,0.1,0,0.2-0.1,0.3c-0.1,0.1-0.2,0.1-0.3,0.1
			c-0.1,0-0.3,0.1-0.4,0.1c-0.1,0.1-0.3,0.2-0.4,0.4c-0.6,0.5-1.3,1.2-2,1.2c-0.1,0-0.1,0-0.1,0c-0.2,0.1-0.4,0.3-0.4,0.3l-0.1,0.1
			l-1.1,0.5l-0.1-0.1c-0.2,0.1-0.4,0.2-0.5,0.3c-0.2,0.1-0.4,0.2-0.6,0.3l-0.2-0.2C205.2,35.7,206.1,34.6,206.9,33.9z M78.8,38.2
			c-0.6,0.5-1.4,1.1-2.3,1.9c0,0,0,0.1-0.1,0.2c-0.1,0.1-0.1,0.2-0.1,0.2c-0.1,0.1-0.3,0.1-0.4,0.1c-0.1,0-0.2,0-0.3,0.1
			c-0.2,0.2-0.4,0.3-0.5,0.5c-0.1,0.1-0.2,0.2-0.3,0.3c-0.4,0.3-0.8,0.6-1.2,0.8c-0.6,0.4-1.3,0.7-1.8,1.5l-0.1,0.1h-0.1
			c-0.3,0-0.6,0.1-0.9,0.2c-0.3,0.1-0.6,0.2-1.1,0.2c-0.2,0-0.8,0-0.8-0.5c0-0.2,0-0.4,0.1-0.5h0c-0.1-0.1-0.1-0.2-0.1-0.3
			c0-0.4,0.3-0.8,0.6-1.2c0.4-0.6,1-1.4,1-2.5l0.1-0.1c0.7-0.4,1.1-1.1,1.6-1.8c0.5-0.8,0.9-1.6,1.8-2l0.1,0c0.1,0,0.1,0,0.2,0
			c0,0,0,0,0,0c0,0,0-0.1,0.1-0.2c0-0.1,0-0.2,0.1-0.3l0,0c0.2-0.1,0.4-0.3,0.6-0.5c0.6-0.6,1.4-1.3,2.5-1.5c0-0.1,0-0.1,0-0.1
			c0,0,0-0.1,0-0.1c0-0.2,0.2-0.2,0.3-0.2c0.3,0,0.4-0.1,0.4-0.2v0l0.2-0.1c0,0,0.2,0,0.2,0c0.2,0,0.3,0,0.5,0
			c0.2,0,0.5-0.1,0.8-0.1c0.6,0,1.6,0.5,1.6,1.9C81.3,36.3,80.6,36.9,78.8,38.2z M107,36.8c-0.3,0.2-0.5,0.4-0.6,0.6l-0.4,0.4
			c-1,1-1.9,2-2.9,2.8c-0.2,0.2-0.4,0.4-0.6,0.6c-0.4,0.5-0.8,0.9-1.5,0.9c-1,0-1-0.8-1-1.4c0-2,1.8-4.1,3.5-6
			c0.1-0.1,0.3-0.3,0.4-0.4c0.3-0.2,0.6-0.4,0.6-0.8l0.1-0.1c0.4-0.1,0.8-0.2,1.2-0.4c0.7-0.3,1.3-0.5,1.9-0.5l0,0
			c0.5,0,1.3,0.4,1.6,1l0,0.1C108.8,35.2,107.7,36.1,107,36.8z M131.2,38.4l0-0.2l0.2-0.2l0.2,0.1c0,0.1,0.1,0.2,0.1,0.3
			c0,0.2-0.1,0.2-0.2,0.3l-0.2-0.1C131.2,38.5,131.2,38.4,131.2,38.4z M140.4,38.2c-0.6,0.5-1.4,1.1-2.3,1.9c0,0,0,0.1-0.1,0.2
			c-0.1,0.1-0.1,0.2-0.1,0.3c-0.1,0.1-0.3,0.1-0.4,0.1c-0.1,0-0.2,0-0.3,0.1c-0.2,0.2-0.4,0.3-0.5,0.5c-0.1,0.1-0.2,0.2-0.3,0.3
			c-0.4,0.3-0.8,0.6-1.2,0.8c-0.6,0.4-1.3,0.7-1.8,1.5l-0.1,0.1h-0.1c-0.3,0-0.6,0.1-0.9,0.2c-0.3,0.1-0.6,0.2-1.1,0.2
			c-0.2,0-0.8,0-0.8-0.5c0-0.2,0-0.4,0.1-0.5h0c-0.1-0.1-0.1-0.2-0.1-0.3c0-0.4,0.3-0.8,0.6-1.2c0.4-0.6,1-1.4,1-2.5l0.1-0.1
			c0.7-0.4,1.1-1.1,1.6-1.8c0.5-0.8,0.9-1.6,1.8-2l0.1,0c0.1,0,0.1,0,0.2,0c0,0,0,0,0,0c0,0,0-0.1,0.1-0.2c0-0.1,0-0.2,0.1-0.3l0,0
			c0.2-0.1,0.4-0.3,0.6-0.5c0.6-0.6,1.4-1.3,2.5-1.5c0-0.1,0-0.1,0-0.1c0,0,0-0.1,0-0.1c0-0.2,0.2-0.2,0.3-0.2
			c0.3,0,0.4-0.1,0.4-0.2v0l0.2-0.1c0,0,0.2,0,0.2,0c0.2,0,0.3,0,0.5,0c0.2,0,0.5-0.1,0.8-0.1c0.6,0,1.6,0.5,1.6,1.9
			C142.9,36.3,142.1,36.9,140.4,38.2z"/>
		<path fill="#FFFFFF" d="M92.1,66.5c0.3-0.6,0.6-1.1,0.9-1.8l0,0c-0.4-0.6-0.8-1.2-1.6-1.2c-0.5,0-0.5,0.4-0.6,1.1
			c0,0.2,0,0.4-0.1,0.7l0,0c-0.6,0.9-1,1.8-1.3,2.8c-0.3,0.8-0.7,1.7-1.1,2.5c-0.3,0.6-0.6,1.1-0.8,1.6c-0.6,1.4-1.2,2.6-1.7,3.6
			c-0.6,1.3-1.2,2.4-1.7,3.9c-0.5,1.3-0.9,2.1-1.4,3.1c-0.1,0.2-0.2,0.4-0.3,0.6c-0.9,2.2-1.6,4.4-2.3,6.6c-0.3,0.9-0.6,1.8-0.9,2.8
			L79,92.8c-1.1,0-2.1-0.1-3.2-0.3c-0.8-0.1-1.5-0.2-2.2-0.2c-0.1,0-0.3,0.1-0.5,0.1c-0.2,0-0.4,0.1-0.6,0.1c-0.3,0-0.6,0-0.9-0.1
			c-0.3,0-0.6-0.1-0.8-0.1c-1.1,0-2.2,0.1-3.1,0.2c-0.3,0-0.6,0.1-0.9,0.1c0,0,0,0,0,0c-0.1,0-0.3,0-0.4,0c-0.1,0-0.2,0-0.4,0
			c-1.9,0-3.9,0.2-6.2,0.5c-0.4,0-0.9,0.1-1.3,0.1c-0.6,0.1-1.1,0.1-1.7,0.1c-0.4,0-1,0-1.5-0.2L55.2,93c2.4-6.4,5-12.5,7.2-17.5
			c0.4-0.9,0.8-1.8,1.2-2.7c0.8-1.9,1.7-3.9,2.7-5.8c0.4-0.9,0.9-1.8,1.3-2.7c1-2.1,2-4,2.4-6c-0.2-0.5-0.5-0.8-0.9-0.8
			c-0.7,0-1.4,0.8-1.7,1.5l-0.2,0.1c0,0-0.1,0-0.1,0c-0.2,0-0.3,0.1-0.4,0.3c-0.1,0.1-0.2,0.3-0.4,0.4c-1.4,0.7-2.2,1.3-2.9,1.9
			c-0.8,0.6-1.6,1.1-2.9,1.7c-0.1,0.1-0.2,0.1-0.3,0.2c-0.5,0.3-0.9,0.5-1.2,0.9l-0.1,0c-1,0.2-1.8,0.8-2.6,1.3
			c-0.2,0.2-0.4,0.3-0.7,0.4l-0.2,0.1c-0.3,0.1-0.7,0.3-0.9,0.6l-0.2,0c0,0,0,0-0.1,0c-0.1,0-0.1,0-0.2,0.1c-0.1,0-0.2,0.1-0.3,0.1
			c0,0-0.1,0-0.2,0c-1.2,0.8-2.2,1.3-3.2,1.8c-1,0.5-1.9,0.9-2.7,1.6l-0.1,0c-0.5,0-0.8,0.2-1.2,0.5c-0.2,0.1-0.3,0.2-0.5,0.4
			l-0.1,0c0,0-0.1,0-0.1,0c0,0,0,0,0,0v0.1l-0.1,0.1c0,0-0.1,0-0.1,0c0,0-0.1,0-0.1,0c-0.2,0-0.4,0.3-0.6,0.5
			c-0.2,0.2-0.3,0.4-0.5,0.4l-0.2,0c0,0-0.1-0.1-0.1-0.1c-0.2,0-0.5,0.2-0.6,0.3c-0.1,0.1-0.1,0.1-0.1,0.1c-0.1,0.1-0.2,0.1-0.2,0.1
			c-0.1,0-0.1,0-0.2,0.1c-3.5,2.1-3.8,3.7-3.8,4.3c0,1,1.4,1.8,1.8,1.8c0.2,0,0.4,0,0.4,0h0c0.1,0,0.2,0.1,0.4,0.1
			c0.2,0.1,0.4,0.2,0.6,0.2c0.2,0,0.3-0.1,0.3-0.2c0-0.5-0.4-0.6-0.8-0.8c-0.4-0.2-0.9-0.4-1-0.9l0-0.1c0.2-0.4,0.6-0.8,1.1-1.3l0,0
			c0.1-0.1,0.2-0.1,0.4-0.1c0,0,0.1,0,0.1,0c0,0,0-0.1,0.1-0.2c0-0.2,0.1-0.3,0.3-0.3c0,0,0.1,0,0.1,0c0,0,0,0,0.1,0
			c0.3,0,0.5-0.3,0.7-0.6c0.3-0.4,0.8-1,1.5-1c0.1-0.4,0.5-0.5,0.8-0.6c0.1,0,0.3-0.1,0.3-0.1c0-0.4,0.5-0.6,0.9-0.7
			c0.1,0,0.2-0.1,0.3-0.1c0,0,0,0,0,0c0,0,0-0.1,0-0.1c0-0.1,0-0.1,1.9-1.1c1.3-0.7,2.9-1.5,3.7-2c0.2-0.1,0.5-0.3,0.7-0.4
			c0.7-0.4,1.5-0.9,2.1-1c0.4-0.4,2.5-1.8,3-1.8c0.1,0,0.1,0,0.2,0c0-0.2,0.1-0.4,0.6-0.4c0.3-0.2,0.6-0.4,0.9-0.6
			c0.2-0.2,0.4-0.3,0.7-0.5c0.2-0.1,0.5-0.2,0.7-0.3c0.2-0.1,0.5-0.2,0.7-0.3c0.1-0.1,2.3-1.4,2.7-1.6l0,0c0.1-0.1,0.2-0.2,0.3-0.3
			c0.2-0.3,0.5-0.6,1-0.6h0.1l0.1,0.1c0,1.3-0.6,2.4-1.1,3.5c-0.1,0.2-0.2,0.4-0.3,0.6c-0.3,0.8-0.7,1.5-1,2.3
			c-1,2.2-1.9,4.3-2.8,6.3c-0.1,0.4-0.3,0.7-0.5,1c-0.2,0.3-0.4,0.7-0.5,1c-0.2,0.4-0.3,0.8-0.5,1.3c-0.2,0.6-0.4,1.1-0.6,1.4
			c-0.3,0.6-0.6,1.1-0.8,1.8c-0.1,0.4-0.3,0.7-0.4,1.1c-0.2,0.4-0.4,0.8-0.6,1.2c-0.3,0.7-0.7,1.4-0.9,2c-0.1,0.2-0.1,0.4-0.2,0.6
			c-0.1,0.4-0.1,0.8-0.4,1.4c0,0.2-0.2,0.3-0.3,0.5c-0.1,0.1-0.2,0.2-0.2,0.3c-0.2,0.5-0.3,0.9-0.4,1.3c-0.1,0.5-0.2,0.9-0.4,1.3
			c-0.1,0.2-0.2,0.4-0.4,0.7c-0.1,0.2-0.3,0.5-0.4,0.7c-0.1,0.2-0.1,0.4-0.2,0.6c-0.1,0.5-0.3,1-0.6,1.4l-0.1,0
			c-0.9,0-1.8,0.1-2.7,0.1c-2,0.1-3.8,0.2-5.7,0.2c-0.2,0-0.4,0-0.6,0c-0.2,0-0.4,0-0.5,0c-0.7,0-0.9,0.1-1,0.2c0,0,0.1,0.1,0.1,0.2
			c0.1,0.2,0.4,0.9,0.5,0.9c0.4,0.3,0.7,0.4,1.1,0.4c1.2,0,2.8-0.2,4.3-0.3c1.5-0.1,3-0.3,4-0.3l0.1,0.2c-0.2,0.4-0.3,0.8-0.5,1.2
			c-0.1,0.3-0.2,0.6-0.3,0.9c0,0.2-0.1,0.3-0.2,0.3c-0.1,0-0.1,0.1-0.1,0.2c-0.2,0.5-0.3,1-0.4,1.6c-0.1,0.5-0.2,1-0.4,1.6
			c-0.1,0.2-0.2,0.3-0.3,0.4c-0.1,0.1-0.2,0.3-0.2,0.4l0,0.1c0,0.1-0.1,0.2-0.1,0.3c0,0.1,0,0.3-0.1,0.4c0,0.1-0.1,0.2-0.3,0.4l0,0
			c-0.1,0.2-0.1,0.4-0.2,0.6c-0.2,0.8-0.4,1.4-0.8,2.2c0,0.2,0,0.3,0,0.6c0,0.2,0,0.4,0,0.6c-0.1,0.3-0.2,0.5-0.3,0.7
			c-0.2,0.3-0.4,0.6-0.4,1.1c0,0.2,0.1,0.4,0.4,0.5c0.6-0.1,0.8-0.6,0.9-1.2c0-0.1,0.1-0.2,0.1-0.4c0.1-0.2,0.2-0.4,0.3-0.5
			c0.1-0.1,0.2-0.3,0.2-0.5c0.1-0.2,0.1-0.4,0.1-0.6c0-0.2,0.1-0.5,0.1-0.7c0.3-0.8,0.7-1.7,1.1-2.8c0.5-1.4,1.2-3.1,2.1-5.3
			c0.1-0.2,0.1-0.4,0.2-0.6c0.2-0.6,0.4-1.1,0.6-1.6l0.1-0.1c2.6-0.5,5.4-0.7,7.9-0.9l0.8-0.1c3.6-0.3,7.1-0.5,11.8-0.5
			c1.3,0,2.6,0.1,3.7,0.3l0.1,0.2c-0.1,0.6-0.3,1.1-0.5,1.7c-0.4,1.2-0.7,2.5-1,4.1l0,0.1c0,0.1,0,0.3,0.1,0.4c0,0.1,0,0.2,0,0.3
			c0,0.2-0.1,0.4-0.1,0.6c-0.3,1.2-0.6,2.4-0.6,3.7c0,0.8,0.2,1.1,0.8,1.1c0.5-0.4,0.6-1.2,0.7-2c0-0.2,0-0.5,0.1-0.7
			c0.6-3.4,1.2-6.4,2-8.8c0.1-0.2,0.2-0.3,0.3-0.4c0.2-0.4,0.5-0.7,0.5-1.1c0-0.1,0-0.2,0-0.3c0-0.1,0-0.2,0-0.4
			c0-0.5,0.3-1.1,0.5-1.6c0.1-0.2,0.2-0.4,0.3-0.6l0.1-0.3c0.3-0.9,0.5-1.9,0.9-2.4c0-0.1,0.1-0.2,0.2-0.3c0.1-0.1,0.2-0.3,0.3-0.4
			c0.1-0.3,0.2-0.6,0.2-1c0-0.3,0.1-0.6,0.2-0.8c0.2-0.7,0.5-1.2,0.8-1.8c0.3-0.5,0.5-1,0.6-1.4c2.3-5.4,4-9.2,6.8-14.6
			C91.8,67,91.9,66.8,92.1,66.5z"/>
		<polygon fill="#FFFFFF" points="42.5,94.3 42.5,94.2 42.5,94.2 		"/>
		<path fill="#FFFFFF" d="M183.3,84.1c0.1-0.1,0.2-0.2,0.3-0.3c0.2-0.1,0.3-0.2,0.3-0.4c0-0.6-1.6-1.4-2.4-1.4c-0.2,0-0.3,0-0.5,0.1
			c0,1.2,0.9,1.5,1.8,1.9C183,84,183.2,84.1,183.3,84.1z"/>
		<path fill="#FFFFFF" d="M192.6,88.9C192.6,88.9,192.6,88.9,192.6,88.9c-0.1,0-0.2,0-0.3,0c-0.1,0-0.1,0-0.2,0.1
			c-0.6,0.4-1.1,0.8-1.5,1.1c-0.6,0.4-1.2,0.8-1.7,1.3c-0.8,0.7-1.7,1.3-2.5,1.9c-1,0.7-2,1.4-2.8,2.2c-0.9,0.9-2.1,1.6-3.2,2.2
			c-0.4,0.2-0.8,0.5-1.1,0.7l-0.1,0h-0.3c0,0,0,0,0,0c0,0.1,0,0.2-0.2,0.3c-0.7,0.4-1.3,0.6-1.9,0.6c-0.1,0-0.2,0-0.3,0
			c-0.1,0-0.2,0-0.3,0c-0.2,0-0.5,0-0.7-0.2c-0.2-0.2-0.3-0.5-0.3-1c0-0.9,0.2-1.9,0.6-3.1c0.1-0.2,0.2-0.4,0.4-0.5
			c0.1-0.2,0.3-0.3,0.3-0.5c0.2-0.4,0.3-1.1,0.3-1.4c0-0.1,0-0.1,0-0.2c0,0,0-0.1,0-0.2c0-0.2,0.2-0.3,0.3-0.4
			c0.1-0.1,0.2-0.1,0.2-0.2c0.1-0.4,0.3-0.7,0.4-1c0.2-0.5,0.4-1,0.6-1.5c-0.1-0.1-0.2-0.2-0.3-0.4c-0.3-0.3-0.5-0.6-0.9-0.6
			c-0.1,0-0.2,0.1-0.5,0.4l-0.1,0.1c-0.1,0.1-0.3,0.1-0.4,0.1c-0.1,0-0.2,0-0.3,0.1c0,0,0,0.2-0.1,0.2l-0.1,0.1
			c-0.4,0.2-0.6,0.3-0.9,0.4c-0.3,0.1-0.6,0.2-1,0.4c-3.9,2-8.5,2.5-10.4,2.5l-0.1-0.1c0-0.1-0.1-0.3-0.1-0.4
			c-0.4-1.4-0.6-2.3-2.9-2.8l0-0.2c0.3-0.1,0.6-0.1,0.8-0.1c0.5,0,1,0.2,1.5,0.3c0.1,0,0.2,0.1,0.3,0.1c-0.2-1.2-1.7-1.7-2.9-1.7
			c-0.1,0-0.2,0-0.3,0c-0.1,0-0.2,0-0.3,0c-0.1,0-0.2-0.1-0.2-0.2c-1.2,0.2-2.3,0.6-3.4,1.4l-0.2-0.1c0-0.1,0-0.2-0.1-0.2
			c-0.2,0.1-0.7,0.6-1,0.9c-0.3,0.2-0.5,0.5-0.7,0.6c-0.5,0.4-0.8,0.6-1.2,0.9c-0.3,0.2-0.7,0.4-1.1,0.8c-0.1,0.1-0.3,0.1-0.5,0.2
			c-0.1,0-0.3,0.1-0.4,0.1l-0.5,0.4c-0.7,0.6-1.1,0.9-1.7,1.3c-0.1,0.1-0.2,0.2-0.3,0.4c-0.1,0.2-0.1,0.3-0.3,0.4
			c-0.2,0.2-0.5,0.3-0.8,0.4c-0.3,0.1-0.5,0.2-0.8,0.3c-0.5,0.4-0.9,0.7-1.3,1c-0.9,0.7-1.6,1.2-3,1.9c-0.5,0.2-1,0.5-1.5,0.8
			c-1.1,0.7-2.3,1.3-3.5,1.3c-1,0-2.2-0.5-2.5-1.8c0-0.2,0-0.4,0.1-0.6c0-0.2,0.1-0.4,0.1-0.6c0-0.3-0.1-0.6-0.2-0.8l0-0.2
			c0.3-0.4,0.5-1,0.7-1.8c0.1-0.3,0.2-0.6,0.2-0.8c0.3-0.9,0.6-2,0.6-2.9l0-0.1c0.4-0.5,0.4-0.8,0.5-1.3c0-0.3,0-0.6,0.1-1.1
			c0-1.1-0.7-1.9-1.8-1.9c-1.4,0-2.9,1.2-3.9,2.1c-0.2,0.2-0.4,0.3-0.6,0.5c-0.4,0.3-0.6,0.4-0.8,0.5c-0.3,0.1-0.7,0.2-2.2,1.7
			c-0.2,0.1-0.3,0.2-0.4,0.2c-0.1,0.1-0.3,0.1-0.4,0.2c-0.7,0.7-1.4,1.3-2.2,1.8l-0.2-0.1c0.2-1.3,0.6-2.3,0.9-3.3
			c0.2-0.6,0.5-1.3,0.7-2c-0.1-0.5-0.6-0.6-1.2-0.8c-0.1,0-0.2-0.1-0.3-0.1l-0.6,2l-0.2,0c0-0.1-0.1-0.1-0.1-0.2
			c0,0-0.1,0.1-0.2,0.1c-0.3,0.2-1.2,0.8-1.3,1l0,0v0l0,0.1c0,0-0.1,0.1-0.2,0.1h-0.2c0,0-0.1,0.2-0.1,0.2l0,0.1
			c-0.3,0.3-0.7,0.5-1.1,0.7c-0.2,0.1-0.4,0.4-0.6,0.5c-0.1,0.1-0.1,0.1-0.2,0.2c-0.4,0.4-0.7,0.5-1,0.6c-0.3,0.1-0.5,0.2-0.9,0.5
			c-1.6,1.3-3.2,2.2-4.7,2.8c-0.1,0.7-0.9,1-1.3,1h0c-0.2,0.8-2.2,1.5-3.4,1.5c-1.4,0-2-0.6-2-1.9c0-2.1,0.6-3.8,1.2-5.3
			c0.3-0.9,0.6-1.8,0.9-2.8c-0.1-0.1-0.3-0.2-0.4-0.3c-0.2-0.2-0.4-0.4-0.8-0.4c-0.1,0-0.2,0.1-0.4,0.1c-0.1,0.1-0.3,0.1-0.5,0.1
			c-0.1,0-0.3,0-0.4-0.2c-0.2,0.1-0.3,0.3-0.5,0.5c-0.3,0.4-0.7,0.9-1.4,1l-0.1-0.1c-0.1-1.5-0.8-2.2-1.5-2.9
			c-0.1-0.1-0.2-0.1-0.3-0.1c-0.1,0-0.3,0-0.4-0.1c-0.1-0.1-0.3-0.2-0.3-0.3c0,0-0.1-0.1-0.1-0.1c-0.6-0.2-1.2-0.2-1.5-0.2
			c-3.3,0-5.9,3.2-7.8,5.5c-0.4,0.4-0.7,0.9-1,1.2c0,0-0.1,0.1-0.1,0.2c0,0.2,0.1,0.3,0.1,0.5c0.1,0.1,0.1,0.2,0.1,0.3
			c0,0.2-0.1,0.2-0.2,0.3L90.6,93c-0.1-0.1-0.1-0.2-0.2-0.2c0,0.1,0.1,0.1,0.1,0.1c0.1,0.1,0.1,0.2,0.1,0.3c0,0.3-0.1,0.5-0.3,0.5
			h-0.3c-0.1,0-0.1,0-0.1,0.1c0,0,0,0.1,0,0.2l0,0.1c0,0,0.1,0,0.1,0c0.1,0,0.4,0,0.4,0.3c0,0.1,0,0.2-0.1,0.3l-0.1,0
			c-0.1,0-0.3,0-0.3,0c0,0-0.1,0-0.1,0c-0.2,0-0.3,0-0.5,0.1c-0.1,0-0.2,0.1-0.3,0.1c0,0.1,0.1,0.2,0.1,0.4c0,0.4-0.1,0.8-0.3,1.2
			c-0.2,0.5-0.4,1-0.4,1.7c0,1.4,1.6,2.2,2.8,2.2c0.9,0,1.3-0.3,1.9-0.7c0.1-0.1,0.2-0.2,0.4-0.3c0.3-0.1,0.5-0.2,0.7-0.3
			c0.1,0,0.1,0,0.2-0.1c0,0,0,0,0,0c0-0.1,0.1-0.2,0.2-0.2c0.4-0.3,0.8-0.6,1.2-0.8c1.5-1,2.4-1.6,3.2-2.7l0.1,0
			c0.4,0,0.8-0.4,1.1-0.7c0.1-0.1,0.1-0.1,0.2-0.2c0.5-0.5,1-0.9,1.5-1.3c0.7-0.6,1.3-1.1,1.9-1.8l0,0c0.4-0.2,0.7-0.5,1-0.7
			c0.3-0.2,0.5-0.5,0.9-0.7l0.2,0.2c-0.3,0.5-0.4,1.1-0.5,1.7c0,0.2-0.1,0.4-0.1,0.6c-0.1,0.3-0.2,0.6-0.3,0.8
			c-0.2,0.7-0.5,1.4-0.5,2.2c0,0.4,0.1,0.7,0.2,0.9c0.1,0.2,0.2,0.4,0.2,0.7c0,0.8,1.8,2.7,3.5,2.7c0.6,0,1-0.4,1.3-0.7
			c0.2-0.2,0.3-0.3,0.5-0.5l0.2,0.1c0,0.1,0,0.1,0,0.1c0,0,0.1,0,0.1,0h0.6c0.2-0.3,0.5-0.4,0.9-0.4c0.3-0.5,0.9-0.8,1.4-1.1
			c0.2-0.1,0.4-0.2,0.6-0.3c0,0,0.1-0.1,0.1-0.1c0.1-0.1,0.1-0.2,0.3-0.3c0.3-0.2,0.7-0.3,1-0.4c0.4-0.1,0.8-0.2,1.1-0.5
			c0.2-0.2,0.4-0.3,0.5-0.5c0.5-0.4,0.9-0.7,0.9-1.1l0.1-0.1c0.7,0,0.7-0.1,0.8-0.3c0.1-0.2,0.2-0.4,0.7-0.5c0-0.2,0.2-0.4,0.3-0.6
			c0.1-0.2,0.3-0.5,0.3-0.6l0.1-0.1c0.8,0,1.9-0.3,1.9-0.9l0.1-0.1c0.4,0,0.6-0.2,0.8-0.3l0.2,0.1l-1.7,6.1c0.2,0.3,0.4,0.6,0.8,0.8
			c0.9-0.1,3.1-2.5,3.8-3.2c0.1-0.1,0.2-0.2,0.3-0.3c0,0,0.1-0.1,0.1-0.1c0.1-0.1,0.2-0.1,0.2-0.2c1.3-1.2,2.5-2.1,3.6-2.9
			c0.8-0.6,1.6-1.1,2.2-1.7c0.2-0.1,0.3-0.2,0.5-0.3c0.4-0.3,0.8-0.5,1.4-0.6l0.1,0.1c0,0.2,0,0.5,0,0.7c0,0.2,0,0.3,0,0.4l0.1,0.1
			c-0.1,0.3-0.2,0.6-0.3,0.9c-0.2,0.5-0.3,0.9-0.3,1.2c0,0.1,0,0.1,0.1,0.2c0,0.1,0.1,0.1,0.1,0.2c0,0.3-0.1,0.4-0.2,0.5
			c-0.1,0.1-0.1,0.1-0.1,0.3c0,0.1,0,0.2,0,0.3c0,0.1,0,0.2,0,0.3c0,0.2-0.1,0.5-0.3,0.7c-0.1,0.2-0.2,0.4-0.2,0.5
			c0,0.1,0,0.2,0,0.4c0,0.1,0,0.3,0,0.4c0,0.4-0.2,0.7-0.3,1c-0.1,0.2-0.2,0.5-0.2,0.7c0,0.9,0.3,2.5,0.4,2.7
			c0.2,0.2,0.4,0.5,0.6,0.7c0.4,0.5,0.7,0.9,1.2,0.9c0.1,0,0.3,0,0.4-0.1c0.2,0,0.4-0.1,0.7-0.1c0.5,0,0.8,0.1,1.1,0.1
			c0.1,0,0.1,0,0.2,0c0.1,0,0.2,0,0.3-0.1c0.2-0.1,0.4-0.2,0.9-0.3c0.1-0.1,0.2-0.2,0.3-0.3c0.2-0.2,0.4-0.4,0.8-0.4
			c0.1,0,0.2,0,0.3,0c0.1,0,0.2,0,0.3,0c0.2,0,0.2,0,0.2-0.1c0-0.1,0-0.1,0.1-0.2c0.2-0.1,0.4-0.2,0.5-0.2c0.1,0,0.1,0,0.2,0
			c0.1-0.1,0.2-0.2,0.3-0.2c0.1-0.1,0.3-0.2,0.4-0.3c1.3-0.4,1.4-0.7,1.5-0.9c0.1-0.2,0.1-0.3,0.5-0.3h0.4c0.1,0,0.7-0.4,1.2-0.7
			c0.4-0.2,0.5-0.4,0.6-0.5c0.1-0.1,0.2-0.3,0.6-0.5c1.1-0.7,1.7-1.3,2.3-1.8c0.8-0.7,1.5-1.2,2.9-2l0.2,0.2
			c-0.8,1.3-1.3,3.6-1.3,4.7c0,0.8,0,1,0.5,1.7c0.1,0.1,0.1,0.2,0.1,0.3c0,0.1,0,0.2,0.1,0.3c0.8,1,1.4,1.1,1.7,1.2
			c0.1,0,0.1,0,0.2,0.1c0.3,0.1,0.6,0.2,1,0.2c0.8,0,1.6-0.3,2.4-0.6c0.5-0.2,1-0.4,1.5-0.5c0.2-0.4,0.6-0.8,1-0.8h0.2c0,0,0,0,0,0
			c0-0.1,0-0.1,0-0.2c0-0.2,0.3-0.4,0.5-0.5c0.1-0.1,0.2-0.1,0.2-0.2l0.1,0c0.4-0.1,1-1,1.6-1.8c0.4-0.6,0.8-1.1,1.2-1.5
			c0-0.1,0.1-0.2,0.1-0.3c0-0.2,0-0.4,0.3-0.6l0.1,0c0.9-0.1,1.4-0.2,2-0.3c0.3-0.1,0.7-0.1,1.2-0.2c0.2-0.2,0.6-0.2,1.1-0.3
			c0.3,0,0.6-0.1,0.8-0.2l0,0h0.2c0.3,0,0.4-0.1,0.6-0.3c0.2-0.2,0.5-0.4,0.9-0.4c0.1,0,0.1,0,0.1,0c0.1,0,0.2,0.1,0.5,0.1
			c0.1-0.1,0.2-0.2,0.3-0.2c0.2-0.1,0.2-0.1,0.2-0.2c0,0,0-0.1,0-0.1l0.1-0.1h0.4c0.6,0,0.8-0.3,0.9-0.4c0-0.1,0.1-0.1,0.2-0.1
			c0.1,0,0.1,0,0.1,0.1c0,0,0,0,0,0c0.5,0,1.6-0.7,2.2-1.1l0.2,0.1c-0.1,0.3-0.2,0.6-0.3,0.9c-0.2,0.5-0.3,0.8-0.4,1
			c0,0.1-0.1,0.1-0.2,0.1c-0.1,0-0.1,0-0.1,0.1c0,0,0,0.1,0,0.1c0,0,0,0.1,0,0.2c0,0.1-0.1,0.2-0.2,0.6c-0.1,0.2-0.2,0.5-0.3,0.7
			c-0.4,1.1-1,2.6-1,4c0,1.5,0.9,3,3.3,3c0.8,0,1.5-0.4,2.2-0.8c0.3-0.2,0.5-0.3,0.8-0.5c1.8-1.2,3.2-2.2,4.6-3.3
			c0.6-0.5,1.1-0.8,1.6-1.2c1.4-1.1,2.5-1.9,3.5-3.1l0.1,0c0.5-0.1,0.8-0.4,1.1-0.7c0.2-0.2,0.4-0.3,0.6-0.4
			c0.3-0.1,0.5-0.2,0.8-0.7l0,0c0-0.1,0.1-0.2,0.5-0.5c0.1,0,0.1-0.1,0.2-0.2l0,0c0,0,0-0.1,0-0.1C192.6,89.3,192.6,89.1,192.6,88.9
			z M99.7,92.7c-0.6,0.5-1.4,1.1-2.3,1.9c0,0,0,0.1-0.1,0.2c-0.1,0.1-0.1,0.2-0.1,0.2c-0.1,0.1-0.3,0.1-0.4,0.1
			c-0.1,0-0.2,0-0.3,0.1c-0.2,0.2-0.4,0.3-0.5,0.5c-0.1,0.1-0.2,0.2-0.3,0.3c-0.4,0.3-0.8,0.6-1.2,0.8c-0.6,0.4-1.3,0.7-1.8,1.5
			l-0.1,0.1h-0.1c-0.3,0-0.6,0.1-0.9,0.2c-0.3,0.1-0.6,0.2-1.1,0.2c-0.2,0-0.8,0-0.8-0.5c0-0.2,0-0.4,0.1-0.5h0
			c-0.1-0.1-0.1-0.2-0.1-0.3c0-0.4,0.3-0.8,0.6-1.2c0.4-0.6,1-1.4,1-2.5l0.1-0.1c0.7-0.4,1.1-1.1,1.6-1.8c0.5-0.8,0.9-1.6,1.8-2
			l0.1,0c0.1,0,0.1,0,0.2,0c0,0,0,0,0,0c0,0,0-0.1,0.1-0.2c0-0.1,0-0.2,0.1-0.3l0,0c0.2-0.1,0.4-0.3,0.6-0.5
			c0.6-0.6,1.4-1.3,2.5-1.5c0-0.1,0-0.1,0-0.1c0,0,0-0.1,0-0.1c0-0.2,0.2-0.2,0.3-0.2c0.3,0,0.4-0.1,0.4-0.2v0l0.2-0.1
			c0,0,0.2,0,0.2,0c0.2,0,0.3,0,0.5,0c0.2,0,0.5-0.1,0.8-0.1c0.6,0,1.6,0.5,1.6,1.9C102.2,90.8,101.4,91.4,99.7,92.7z M162,93.9
			c-0.2,0.6-0.4,1.4-0.7,1.9c-0.1,0.1-0.2,0.1-0.3,0.2c0,0-0.1,0-0.1,0l0,0.2c0,0.2-0.2,0.2-0.3,0.2c-0.1,0-0.2,0-0.2,0
			c-0.1,0.1-0.2,0.3-0.2,0.5c-0.1,0.2-0.1,0.3-0.2,0.4c-0.2,0.1-0.5,0.3-0.7,0.4c-0.4,0.2-0.8,0.5-1.2,0.7c-0.1,0-0.1,0.1-0.2,0.2
			c-0.1,0.1-0.1,0.2-0.2,0.3c-0.3,0.3-1.2,1-2.8,1c-1,0-2.2-0.6-2.2-3.3c0-1.1,0.3-2.3,0.8-3.1c0.2-0.2,0.5-0.6,0.7-0.9
			c0.4-0.5,0.8-1.2,1.3-1.5c0.3-0.2,0.6-0.4,0.8-0.7c0.5-0.5,1-1,1.7-1c0.7,0,1.2,0.7,1.7,1.4c0.3,0.4,0.6,0.8,0.9,1.1
			c0.1,0.1,0.2,0.1,0.3,0.2c0.4,0.3,1,0.7,1.2,1.2l0,0.1C162,93.6,162,93.7,162,93.9z"/>
	</g>
</g>
</svg>
